<svg xmlns="http://www.w3.org/2000/svg" fill="none" viewBox="0 0 20 20">
<g id="Group">
<path id="Vector" d="M10 -8.74226e-07C4.47716 -1.35705e-06 1.35705e-06 4.47715 8.7423e-07 9.99997C3.91405e-07 15.5228 4.47716 20 10 20C15.5229 20 20 15.5229 20 10C20 4.47716 15.5229 -3.91401e-07 10 -8.74226e-07ZM13.8971 9.47419L10.6231 15.144C10.4945 15.3666 10.257 15.5037 10 15.5037C9.74303 15.5037 9.50552 15.3666 9.37697 15.144L6.10304 9.47419C5.9744 9.25154 5.9744 8.97733 6.10295 8.75473C6.23149 8.53208 6.46896 8.39495 6.726 8.39495L8.32128 8.39495L8.32128 5.2158C8.32128 4.81847 8.64336 4.49634 9.04075 4.49634L10.9593 4.49634C11.3566 4.49634 11.6788 4.81847 11.6788 5.2158L11.6788 8.39495L13.274 8.39496C13.531 8.39496 13.7686 8.53208 13.8971 8.75473C14.0256 8.97729 14.0256 9.25155 13.8971 9.47419Z" fill="#E02020"/>
</g>
</svg>