<svg xmlns="http://www.w3.org/2000/svg" fill="none" viewBox="0 0 20 20">
<g id="Group">
<path id="Vector" d="M9.99998 20C15.5228 20 20 15.5228 20 10C20 4.47716 15.5228 0 9.99998 0C4.47711 0 0 4.47711 0 9.99998C0 15.5228 4.47711 20 9.99998 20ZM6.10294 10.5258L9.37692 4.85598C9.50547 4.63337 9.74298 4.49629 9.99998 4.49629C10.257 4.49629 10.4945 4.63337 10.623 4.85598L13.897 10.5258C14.0256 10.7485 14.0256 11.0227 13.8971 11.2453C13.7685 11.4679 13.531 11.605 13.274 11.605H11.6787V14.7842C11.6787 15.1815 11.3566 15.5037 10.9593 15.5037H9.04069C8.64336 15.5037 8.32123 15.1815 8.32123 14.7842V11.605H6.726C6.46896 11.605 6.23139 11.4679 6.1029 11.2453C5.9744 11.0227 5.9744 10.7485 6.10294 10.5258Z" fill="#046937"/>
</g>
</svg>