<svg xmlns="http://www.w3.org/2000/svg" fill="none" viewBox="0.8 0.93 28.4 18.77">   <g clip-path="url(#clip0_189_3228)">  <g filter="url(#filter0_dd_189_3228)"> <g clip-path="url(#clip1_189_3228)">   <path d="M20.6875 1.125C20.1133 1.125 19.6348 1.48731 19.457 2H15.875V3.75H19.5938L19.8672 4.625H16.75C14.4668 4.625 13.3184 5.85547 12.8945 6.375H9.94141C9.60303 6.17676 8.39307 5.5 6.6875 5.5C4.79736 5.5 3.24219 6.23828 3.24219 6.23828L4.00781 7.82422C4.00781 7.82422 5.25879 7.25 6.6875 7.25C7.39502 7.25 8.06152 7.46533 8.54688 7.66016L7.78125 9.24609C7.29932 9.09912 6.77979 9 6.25 9C3.35498 9 1 11.355 1 14.25C1 17.145 3.35498 19.5 6.25 19.5C8.85107 19.5 11.0044 17.6099 11.418 15.125H14.4531C15.1162 15.125 15.7451 14.7388 16.0391 14.1406H16.0117L16.9688 12.1992C18.4248 11.5293 19.6108 10.3672 20.4414 9.27344C20.6704 8.97266 20.8652 8.6958 21.043 8.42578L22.9023 14.4961L24.5977 14.0039L23.6133 10.7773C23.6611 10.7739 23.7021 10.75 23.75 10.75C25.6812 10.75 27.25 12.3188 27.25 14.25C27.25 16.1812 25.6812 17.75 23.75 17.75C21.8188 17.75 20.25 16.1812 20.25 14.25C20.25 13.3169 20.6089 12.4727 21.207 11.8438L20.6602 10.0117C19.3545 10.9688 18.5 12.5137 18.5 14.25C18.5 17.145 20.855 19.5 23.75 19.5C26.645 19.5 29 17.145 29 14.25C29 11.355 26.645 9 23.75 9C23.5176 9 23.292 9.02393 23.0664 9.05469L21.4531 3.75H22.875V1.125H20.6875ZM16.75 6.375H20.25C20.1201 6.61084 19.7305 7.30811 19.0469 8.20703C18.2334 9.27344 17.1021 10.4082 16.0117 10.8047L15.6562 10.9141L15.5195 11.2422L14.4531 13.375H6.25V15.125H9.61328C9.22363 16.6323 7.87695 17.75 6.25 17.75C4.31885 17.75 2.75 16.1812 2.75 14.25C2.75 12.3188 4.31885 10.75 6.25 10.75C7.53857 10.75 8.64941 11.4575 9.25781 12.5H11.1992C10.8438 11.4951 10.1841 10.6304 9.33984 10.0117L10.2969 8.125H13.7148L13.9883 7.74219C13.9883 7.74219 14.8359 6.375 16.75 6.375Z" fill="#404040"/> <path d="M20.6875 1.125C20.1133 1.125 19.6348 1.48731 19.457 2H15.875V3.75H19.5938L19.8672 4.625H16.75C14.4668 4.625 13.3184 5.85547 12.8945 6.375H9.94141C9.60303 6.17676 8.39307 5.5 6.6875 5.5C4.79736 5.5 3.24219 6.23828 3.24219 6.23828L4.00781 7.82422C4.00781 7.82422 5.25879 7.25 6.6875 7.25C7.39502 7.25 8.06152 7.46533 8.54688 7.66016L7.78125 9.24609C7.29932 9.09912 6.77979 9 6.25 9C3.35498 9 1 11.355 1 14.25C1 17.145 3.35498 19.5 6.25 19.5C8.85107 19.5 11.0044 17.6099 11.418 15.125H14.4531C15.1162 15.125 15.7451 14.7388 16.0391 14.1406H16.0117L16.9688 12.1992C18.4248 11.5293 19.6108 10.3672 20.4414 9.27344C20.6704 8.97266 20.8652 8.6958 21.043 8.42578L22.9023 14.4961L24.5977 14.0039L23.6133 10.7773C23.6611 10.7739 23.7021 10.75 23.75 10.75C25.6812 10.75 27.25 12.3188 27.25 14.25C27.25 16.1812 25.6812 17.75 23.75 17.75C21.8188 17.75 20.25 16.1812 20.25 14.25C20.25 13.3169 20.6089 12.4727 21.207 11.8438L20.6602 10.0117C19.3545 10.9688 18.5 12.5137 18.5 14.25C18.5 17.145 20.855 19.5 23.75 19.5C26.645 19.5 29 17.145 29 14.25C29 11.355 26.645 9 23.75 9C23.5176 9 23.292 9.02393 23.0664 9.05469L21.4531 3.75H22.875V1.125H20.6875ZM16.75 6.375H20.25C20.1201 6.61084 19.7305 7.30811 19.0469 8.20703C18.2334 9.27344 17.1021 10.4082 16.0117 10.8047L15.6562 10.9141L15.5195 11.2422L14.4531 13.375H6.25V15.125H9.61328C9.22363 16.6323 7.87695 17.75 6.25 17.75C4.31885 17.75 2.75 16.1812 2.75 14.25C2.75 12.3188 4.31885 10.75 6.25 10.75C7.53857 10.75 8.64941 11.4575 9.25781 12.5H11.1992C10.8438 11.4951 10.1841 10.6304 9.33984 10.0117L10.2969 8.125H13.7148L13.9883 7.74219C13.9883 7.74219 14.8359 6.375 16.75 6.375Z" stroke="#404040" stroke-width="0.4" mask="url(#path-4-outside-1_189_3228)"/> </g> </g> </g>  </svg>