<svg width="31" height="30" viewBox="0 0 31 30" fill="none" xmlns="http://www.w3.org/2000/svg">
<rect width="31" height="30" fill="#D5D5D5"/>
<rect width="414" height="1811" transform="translate(-361 -59)" fill="#FCFCFC"/>
<rect x="0.5625" y="0.5" width="29" height="29" rx="4.5" fill="#EBEBEB" fill-opacity="0.5"/>
<path fill-rule="evenodd" clip-rule="evenodd" d="M11.1036 21.6482C11.4686 21.6482 11.7652 21.9514 11.7652 22.3245C11.7652 22.6975 11.4686 22.9998 11.1036 22.9998C10.7387 22.9998 10.4429 22.6975 10.4429 22.3245C10.4429 21.9514 10.7387 21.6482 11.1036 21.6482Z" stroke="#676767" stroke-width="1.5" stroke-linecap="round" stroke-linejoin="round"/>
<path fill-rule="evenodd" clip-rule="evenodd" d="M20.8352 21.6482C21.2002 21.6482 21.4968 21.9514 21.4968 22.3245C21.4968 22.6975 21.2002 22.9998 20.8352 22.9998C20.4702 22.9998 20.1736 22.6975 20.1736 22.3245C20.1736 21.9514 20.4702 21.6482 20.8352 21.6482Z" stroke="#676767" stroke-width="1.5" stroke-linecap="round" stroke-linejoin="round"/>
<path d="M7.0625 7L8.86141 7.31824L9.69427 17.4605C9.76173 18.2871 10.4372 18.9218 11.2484 18.9218H20.6858C21.4607 18.9218 22.118 18.3401 22.2296 17.5551L23.0503 11.7578C23.1515 11.0426 22.6092 10.4026 21.9027 10.4026H9.15027" stroke="#676767" stroke-width="1.5" stroke-linecap="round" stroke-linejoin="round"/>
<path d="M16.9009 13.6698H19.2991" stroke="#676767" stroke-width="1.5" stroke-linecap="round" stroke-linejoin="round"/>
<ellipse cx="21.9405" cy="8.03553" rx="4.87804" ry="4.96449" fill="#D65B5B"/>
<path d="M20.6174 9.178C20.7534 9.07 20.8154 9.02 20.8034 9.028C21.1954 8.704 21.5034 8.438 21.7274 8.23C21.9554 8.022 22.1474 7.804 22.3034 7.576C22.4594 7.348 22.5374 7.126 22.5374 6.91C22.5374 6.746 22.4994 6.618 22.4234 6.526C22.3474 6.434 22.2334 6.388 22.0814 6.388C21.9294 6.388 21.8094 6.446 21.7214 6.562C21.6374 6.674 21.5954 6.834 21.5954 7.042H20.6054C20.6134 6.702 20.6854 6.418 20.8214 6.19C20.9614 5.962 21.1434 5.794 21.3674 5.686C21.5954 5.578 21.8474 5.524 22.1234 5.524C22.5994 5.524 22.9574 5.646 23.1974 5.89C23.4414 6.134 23.5634 6.452 23.5634 6.844C23.5634 7.272 23.4174 7.67 23.1254 8.038C22.8334 8.402 22.4614 8.758 22.0094 9.106H23.6294V9.94H20.6174V9.178Z" fill="white"/>
<rect x="0.5625" y="0.5" width="29" height="29" rx="4.5" stroke="#EBEBEB"/>
</svg>
