<svg xmlns="http://www.w3.org/2000/svg" fill="none" viewBox="0 0 16 16">
<g clip-path="url(#clip0_1497_44233)">
<path d="M15.6658 14.0494C15.8799 14.2638 16.0001 14.5545 16 14.8575C15.9999 15.1604 15.8795 15.451 15.6652 15.6652C15.451 15.8795 15.1604 15.9999 14.8575 16C14.5545 16.0001 14.2638 15.8799 14.0494 15.6658L8 9.61637L1.95056 15.6658C1.73617 15.8799 1.44554 16.0001 1.14255 16C0.839556 15.9999 0.549007 15.8795 0.334761 15.6652C0.120515 15.451 0.00010627 15.1604 7.03091e-08 14.8575C-0.000106129 14.5545 0.120099 14.2638 0.334195 14.0494L6.38363 8L0.334195 1.95056C0.120099 1.73617 -0.000106129 1.44554 7.03091e-08 1.14255C0.00010627 0.839556 0.120515 0.549007 0.334761 0.334761C0.549007 0.120515 0.839556 0.00010627 1.14255 7.03091e-08C1.44554 -0.000106129 1.73617 0.120099 1.95056 0.334195L8 6.38363L14.0494 0.334195C14.2638 0.120099 14.5545 -0.000106129 14.8575 7.03091e-08C15.1604 0.00010627 15.451 0.120515 15.6652 0.334761C15.8795 0.549007 15.9999 0.839556 16 1.14255C16.0001 1.44554 15.8799 1.73617 15.6658 1.95056L9.61637 8L15.6658 14.0494Z" fill="#212121"/>
</g>
<defs>
<clipPath id="clip0_1497_44233">
<rect width="16" height="16" fill="white"/>
</clipPath>
</defs>
</svg>