<svg xmlns="http://www.w3.org/2000/svg" fill="none" viewBox="3.13 0.75 18.75 20.63">
<path d="M20.75 4.5H17.375V3.375C17.375 2.67881 17.0984 2.01113 16.6062 1.51884C16.1139 1.02656 15.4462 0.75 14.75 0.75H10.25C9.55381 0.75 8.88613 1.02656 8.39384 1.51884C7.90156 2.01113 7.625 2.67881 7.625 3.375V4.5H4.25C3.95163 4.5 3.66548 4.61853 3.4545 4.8295C3.24353 5.04048 3.125 5.32663 3.125 5.625C3.125 5.92337 3.24353 6.20952 3.4545 6.4205C3.66548 6.63147 3.95163 6.75 4.25 6.75H4.625V19.5C4.625 19.9973 4.82254 20.4742 5.17417 20.8258C5.52581 21.1775 6.00272 21.375 6.5 21.375H18.5C18.9973 21.375 19.4742 21.1775 19.8258 20.8258C20.1775 20.4742 20.375 19.9973 20.375 19.5V6.75H20.75C21.0484 6.75 21.3345 6.63147 21.5455 6.4205C21.7565 6.20952 21.875 5.92337 21.875 5.625C21.875 5.32663 21.7565 5.04048 21.5455 4.8295C21.3345 4.61853 21.0484 4.5 20.75 4.5ZM9.875 3.375C9.875 3.27554 9.91451 3.18016 9.98483 3.10984C10.0552 3.03951 10.1505 3 10.25 3H14.75C14.8495 3 14.9448 3.03951 15.0152 3.10984C15.0855 3.18016 15.125 3.27554 15.125 3.375V4.5H9.875V3.375ZM18.125 19.125H6.875V6.75H18.125V19.125ZM11.375 9.75V15.75C11.375 16.0484 11.2565 16.3345 11.0455 16.5455C10.8345 16.7565 10.5484 16.875 10.25 16.875C9.95163 16.875 9.66548 16.7565 9.4545 16.5455C9.24353 16.3345 9.125 16.0484 9.125 15.75V9.75C9.125 9.45163 9.24353 9.16548 9.4545 8.9545C9.66548 8.74353 9.95163 8.625 10.25 8.625C10.5484 8.625 10.8345 8.74353 11.0455 8.9545C11.2565 9.16548 11.375 9.45163 11.375 9.75ZM15.875 9.75V15.75C15.875 16.0484 15.7565 16.3345 15.5455 16.5455C15.3345 16.7565 15.0484 16.875 14.75 16.875C14.4516 16.875 14.1655 16.7565 13.9545 16.5455C13.7435 16.3345 13.625 16.0484 13.625 15.75V9.75C13.625 9.45163 13.7435 9.16548 13.9545 8.9545C14.1655 8.74353 14.4516 8.625 14.75 8.625C15.0484 8.625 15.3345 8.74353 15.5455 8.9545C15.7565 9.16548 15.875 9.45163 15.875 9.75Z" fill="#E02020"/>
</svg>