<svg xmlns="http://www.w3.org/2000/svg" fill="none" viewBox="0.5 0.89 32 32">
<path d="M16.5 32.894C25.3366 32.894 32.5 25.7306 32.5 16.894C32.5 8.05749 25.3366 0.894043 16.5 0.894043C7.66344 0.894043 0.5 8.05749 0.5 16.894C0.5 25.7306 7.66344 32.894 16.5 32.894Z" fill="#009A46"/>
<path d="M18.6044 13.5626C18.7614 13.5626 18.8876 13.4364 18.8876 13.2795V9.82173C18.8876 9.66478 18.7614 9.53857 18.6044 9.53857C18.4475 9.53857 18.3213 9.66478 18.3213 9.82173V13.2795C18.3213 13.4364 18.4475 13.5626 18.6044 13.5626Z" fill="white"/>
<path d="M19.9448 13.5626C20.1017 13.5626 20.2279 13.4364 20.2279 13.2795V9.82173C20.2279 9.66478 20.1017 9.53857 19.9448 9.53857C19.7878 9.53857 19.6616 9.66478 19.6616 9.82173V13.2795C19.6616 13.4364 19.7894 13.5626 19.9448 13.5626Z" fill="white"/>
<path d="M25.5092 13.0884C25.0173 11.9234 24.3118 10.8781 23.4138 9.98013C22.5158 9.08212 21.4705 8.37666 20.3056 7.88478C19.1001 7.3751 17.8203 7.11621 16.4999 7.11621C15.1796 7.11621 13.8998 7.3751 12.6943 7.88478C11.5293 8.37666 10.4841 9.08212 9.58609 9.98013C8.68808 10.8781 7.98262 11.9234 7.49073 13.0884C6.98105 14.2938 6.72217 15.5737 6.72217 16.894C6.72217 18.2143 6.98105 19.4942 7.49073 20.6996C7.98262 21.8646 8.68808 22.9098 9.58609 23.8078C10.4841 24.7059 11.5293 25.4113 12.6943 25.9032C13.8998 26.4129 15.1796 26.6718 16.4999 26.6718C17.8203 26.6718 19.1001 26.4129 20.3056 25.9032C21.4705 25.4113 22.5158 24.7059 23.4138 23.8078C24.3118 22.9098 25.0173 21.8646 25.5092 20.6996C26.0188 19.4942 26.2777 18.2143 26.2777 16.894C26.2777 15.5737 26.0188 14.2938 25.5092 13.0884ZM16.4999 26.1055C11.4209 26.1055 7.28848 21.973 7.28848 16.894C7.28848 11.815 11.4209 7.68252 16.4999 7.68252C21.579 7.68252 25.7114 11.815 25.7114 16.894C25.7114 21.973 21.579 26.1055 16.4999 26.1055Z" fill="white"/>
<path d="M22.9332 14.2081C22.6048 13.4217 22.1388 12.7098 21.5498 12.0901V9.8232C21.5498 9.66625 21.4236 9.54004 21.2667 9.54004C21.1097 9.54004 20.9835 9.66625 20.9835 9.8232V13.2809C20.9835 14.0317 20.4819 14.7048 19.7635 14.9184C19.7538 14.9216 19.7441 14.9249 19.736 14.9281C19.7344 14.9281 19.7344 14.9281 19.7328 14.9297C19.7295 14.9313 19.7263 14.933 19.7231 14.9346C19.7198 14.9362 19.7182 14.9362 19.7166 14.9378C19.715 14.9378 19.7134 14.9394 19.7117 14.9394C19.7085 14.941 19.7053 14.9427 19.702 14.9459H19.7004C19.6729 14.9621 19.6486 14.9831 19.6292 15.0058C19.6292 15.0058 19.6292 15.0058 19.6292 15.0074C19.6276 15.0106 19.6244 15.0139 19.6227 15.0155L19.6211 15.0171C19.6195 15.0203 19.6179 15.0219 19.6163 15.0252C19.6147 15.0268 19.6147 15.0284 19.613 15.03C19.6114 15.0316 19.6098 15.0333 19.6098 15.0365C19.6082 15.0381 19.6066 15.0397 19.6066 15.043C19.6049 15.0446 19.6049 15.0462 19.6033 15.0478C19.6017 15.0511 19.6001 15.0527 19.5985 15.0559C19.5985 15.0575 19.5969 15.0575 19.5969 15.0592C19.5952 15.0624 19.5936 15.0656 19.592 15.0689C19.592 15.0689 19.592 15.0705 19.5904 15.0705C19.5888 15.0737 19.5871 15.0769 19.5855 15.0802V15.0818C19.5839 15.085 19.5823 15.0883 19.5807 15.0931V15.0948C19.5791 15.098 19.5774 15.1012 19.5774 15.1061C19.5774 15.1077 19.5774 15.1077 19.5774 15.1093C19.5758 15.1126 19.5758 15.1158 19.5742 15.119C19.5742 15.1206 19.5742 15.1223 19.5726 15.1239C19.5726 15.1271 19.571 15.1287 19.571 15.132C19.571 15.1352 19.5693 15.1368 19.5693 15.1401C19.5693 15.1417 19.5694 15.1433 19.5677 15.1449C19.5677 15.1498 19.5661 15.153 19.5661 15.1579C19.5645 15.1724 19.5645 15.1886 19.5645 15.2032L19.8444 23.0976C19.8493 23.2529 19.7943 23.4001 19.6858 23.5118C19.5774 23.6234 19.4334 23.6849 19.2781 23.6849C19.1228 23.6849 18.9788 23.6234 18.8704 23.5118C18.7959 23.4357 18.7474 23.3419 18.7247 23.2415C18.7247 23.2399 18.7247 23.2399 18.7247 23.2383C18.715 23.193 18.7102 23.1461 18.7118 23.0976L18.9917 15.2032C18.9933 15.1837 18.9917 15.1627 18.9885 15.1433C18.9885 15.1417 18.9885 15.1401 18.9885 15.1401C18.9885 15.1368 18.9869 15.1336 18.9869 15.1303C18.9869 15.1287 18.9852 15.1255 18.9852 15.1239C18.9852 15.1223 18.9836 15.1206 18.9836 15.1174C18.982 15.1142 18.982 15.1109 18.9804 15.1077C18.9804 15.1061 18.9804 15.1045 18.9788 15.1045C18.9771 15.1012 18.9771 15.098 18.9755 15.0948C18.9755 15.0931 18.9755 15.0931 18.9739 15.0915C18.9723 15.0883 18.9707 15.085 18.9707 15.0818C18.9707 15.0802 18.9707 15.0802 18.9691 15.0786C18.9674 15.0753 18.9658 15.0721 18.9642 15.0689C18.9642 15.0673 18.9626 15.0672 18.9626 15.0656C18.961 15.0624 18.9594 15.0608 18.9577 15.0575C18.9577 15.0559 18.9561 15.0543 18.9561 15.0527C18.9545 15.0511 18.9529 15.0478 18.9529 15.0462C18.9513 15.0446 18.9513 15.043 18.9496 15.0414C18.948 15.0397 18.948 15.0381 18.9464 15.0365C18.9448 15.0349 18.9432 15.0316 18.9416 15.03C18.9399 15.0284 18.9399 15.0284 18.9383 15.0268C18.9367 15.0236 18.9351 15.0219 18.9318 15.0187L18.9302 15.0171C18.9286 15.0139 18.9254 15.0106 18.9221 15.0074C18.9027 14.9831 18.8785 14.9621 18.8493 14.9459C18.8461 14.9443 18.8429 14.941 18.838 14.9394C18.8364 14.9394 18.8348 14.9378 18.8348 14.9378C18.8315 14.9362 18.8299 14.9346 18.8267 14.9346C18.8234 14.933 18.8202 14.9313 18.817 14.9313C18.8153 14.9313 18.8153 14.9297 18.8137 14.9297C18.804 14.9265 18.7959 14.9232 18.7862 14.92C18.516 14.8391 18.2668 14.6919 18.0662 14.4912C17.7442 14.1692 17.5662 13.7388 17.5662 13.2826V9.82481C17.5662 9.66787 17.44 9.54166 17.2831 9.54166C17.1261 9.54166 16.9999 9.66787 16.9999 9.82481V9.94455C16.8333 9.93322 16.6666 9.92675 16.4999 9.92675C15.9725 9.92675 15.4466 9.98662 14.9353 10.1031C14.5793 9.7423 14.1764 9.55137 13.7606 9.55137C13.1344 9.55137 12.5374 9.98824 12.0811 10.7811C11.8837 11.1241 11.7251 11.5173 11.6167 11.9218C10.9727 12.5528 10.4647 13.2906 10.1055 14.1158C9.722 14.9944 9.52783 15.9313 9.52783 16.8972C9.52783 18.0946 9.83687 19.2758 10.421 20.3129C10.9598 21.2708 11.7267 22.0944 12.6409 22.7028L12.628 23.0781C12.6167 23.3888 12.7299 23.6817 12.9451 23.9049C13.1603 24.1282 13.4499 24.2512 13.7606 24.2512C14.0713 24.2512 14.3609 24.1282 14.5761 23.9049C14.6505 23.8273 14.7136 23.7415 14.7622 23.6477C15.3269 23.7917 15.9094 23.8661 16.4983 23.8661C17.0986 23.8661 17.6924 23.7901 18.2668 23.6396C18.317 23.7351 18.3801 23.824 18.4578 23.9049C18.673 24.1282 18.9626 24.2512 19.2733 24.2512C19.5839 24.2512 19.8735 24.1282 20.0887 23.9049C20.3039 23.6817 20.4172 23.3888 20.4059 23.0781L20.3913 22.6785C21.2974 22.0669 22.053 21.2449 22.587 20.2919C23.1646 19.2596 23.4688 18.0849 23.4688 16.8956C23.4704 15.9636 23.2892 15.0592 22.9332 14.2081ZM14.2719 14.954C14.1392 14.9847 14.0486 15.1045 14.0535 15.2404L14.3302 23.0976C14.3318 23.1461 14.3269 23.193 14.3172 23.2383C14.3172 23.2399 14.3156 23.2416 14.3156 23.2448C14.2929 23.3451 14.2444 23.4357 14.17 23.5118C14.0616 23.6234 13.9176 23.6849 13.7622 23.6849C13.6069 23.6849 13.4629 23.6234 13.3545 23.5118C13.2461 23.4001 13.1911 23.2529 13.1959 23.0976L13.4726 15.2404C13.4774 15.1045 13.3852 14.9847 13.2542 14.954C12.4451 14.7679 12.018 14.1401 12.018 13.1385C12.018 12.8133 12.0633 12.4703 12.1474 12.1354C12.1474 12.1321 12.149 12.1289 12.149 12.1273C12.2445 11.7487 12.3901 11.3814 12.573 11.061C12.9192 10.4591 13.3529 10.1144 13.7622 10.1144C14.1716 10.1144 14.6052 10.4591 14.9515 11.061C15.2994 11.6678 15.5081 12.4444 15.5081 13.1385C15.5065 14.1401 15.0793 14.7663 14.2719 14.954Z" fill="white"/>
</svg>