<svg xmlns="http://www.w3.org/2000/svg" fill="none" viewBox="0.5 0.89 32 32">
<circle cx="16.5" cy="16.894" r="16" fill="#009A46"/>
<g clip-path="url(#clip0_939_2301)">
<path d="M23.8328 16.2271C23.6485 16.2275 23.4646 16.2428 23.2828 16.2729L22.7978 15.0112C23.1373 14.9333 23.4845 14.8939 23.8328 14.8937C24.0096 14.8937 24.1792 14.8235 24.3042 14.6985C24.4292 14.5734 24.4995 14.4039 24.4995 14.2271C24.4995 14.0502 24.4292 13.8807 24.3042 13.7556C24.1792 13.6306 24.0096 13.5604 23.8328 13.5604H22.2395L21.122 10.6546C21.0736 10.5287 20.9882 10.4205 20.8771 10.3442C20.766 10.2678 20.6343 10.227 20.4995 10.2271H17.8328C17.656 10.2271 17.4864 10.2973 17.3614 10.4223C17.2364 10.5473 17.1661 10.7169 17.1661 10.8937C17.1661 11.0705 17.2364 11.2401 17.3614 11.3651C17.4864 11.4901 17.656 11.5604 17.8328 11.5604H20.042L20.8111 13.5604H18.4995C16.9578 13.5604 15.7078 13.9196 14.8853 14.5987C14.6918 14.7549 14.4584 14.8538 14.2116 14.8842C13.9648 14.9147 13.7144 14.8756 13.4886 14.7712C12.607 14.3704 7.38115 12.2612 7.33865 12.2496C7.17257 12.2007 6.99402 12.2184 6.84075 12.2989C6.68748 12.3794 6.57153 12.5163 6.5174 12.6807C6.46328 12.8451 6.47524 13.0242 6.55074 13.1799C6.62625 13.3357 6.75938 13.456 6.92198 13.5154C6.92198 13.5154 11.547 15.3437 12.4661 16.2604C13.1802 16.9716 13.6433 17.896 13.7853 18.8937H12.4328C12.2676 18.0844 11.8078 17.3652 11.1424 16.8756C10.4771 16.386 9.65367 16.1609 8.8318 16.2439C8.00993 16.327 7.24817 16.7122 6.69419 17.3249C6.14022 17.9377 5.8335 18.7343 5.8335 19.5604C5.8335 20.3864 6.14022 21.1831 6.69419 21.7958C7.24817 22.4086 8.00993 22.7938 8.8318 22.8768C9.65367 22.9599 10.4771 22.7348 11.1424 22.2452C11.8078 21.7556 12.2676 21.0364 12.4328 20.227H16.7761C17.3544 20.2283 17.9172 20.0411 18.3795 19.6937C18.8417 19.3464 19.1782 18.8578 19.3378 18.302C19.5041 17.7109 19.7854 17.1584 20.1657 16.6762C20.5459 16.194 21.0176 15.7916 21.5536 15.4921L22.0386 16.7529C21.363 17.1854 20.8659 17.847 20.6387 18.6164C20.4115 19.3859 20.4695 20.2114 20.8019 20.9415C21.1343 21.6717 21.7189 22.2574 22.4483 22.5913C23.1778 22.9252 24.0032 22.9848 24.7731 22.7592C25.543 22.5335 26.2056 22.0378 26.6395 21.363C27.0733 20.6882 27.2492 19.8795 27.1349 19.0854C27.0206 18.2914 26.6238 17.5652 26.0172 17.0401C25.4106 16.5151 24.6351 16.2264 23.8328 16.2271ZM9.16615 20.227H11.0511C10.8939 20.6719 10.5844 21.0468 10.1775 21.2855C9.77055 21.5242 9.29232 21.6114 8.82733 21.5316C8.36233 21.4518 7.94051 21.2102 7.63641 20.8495C7.33232 20.4888 7.16553 20.0322 7.16553 19.5604C7.16553 19.0886 7.33232 18.632 7.63641 18.2713C7.94051 17.9106 8.36233 17.669 8.82733 17.5892C9.29232 17.5094 9.77055 17.5966 10.1775 17.8353C10.5844 18.074 10.8939 18.4489 11.0511 18.8937H9.16615C8.98934 18.8937 8.81977 18.964 8.69474 19.089C8.56972 19.214 8.49948 19.3836 8.49948 19.5604C8.49948 19.7372 8.56972 19.9068 8.69474 20.0318C8.81977 20.1568 8.98934 20.227 9.16615 20.227ZM23.8328 21.5604C23.4243 21.5599 23.0257 21.4343 22.6907 21.2005C22.3557 20.9667 22.1003 20.6359 21.9589 20.2526C21.8175 19.8694 21.7969 19.452 21.8998 19.0566C22.0027 18.6613 22.2242 18.3069 22.5345 18.0412L23.2103 19.7996C23.2737 19.9646 23.4002 20.0978 23.5618 20.1697C23.7234 20.2416 23.9069 20.2463 24.072 20.1829C24.2371 20.1195 24.3702 19.993 24.4421 19.8314C24.514 19.6698 24.5187 19.4863 24.4553 19.3212L23.7786 17.5604H23.8328C24.3632 17.5604 24.872 17.7711 25.247 18.1462C25.6221 18.5212 25.8328 19.03 25.8328 19.5604C25.8328 20.0908 25.6221 20.5995 25.247 20.9746C24.872 21.3497 24.3632 21.5604 23.8328 21.5604Z" fill="white"/>
</g>
<defs>
<clipPath id="clip0_939_2301">
<rect width="21.3333" height="21.3333" fill="white" transform="translate(5.83301 6.22705)"/>
</clipPath>
</defs>
</svg>