<svg xmlns="http://www.w3.org/2000/svg" fill="none" viewBox="0 1.27 15 13.58">
<path d="M7.49995 14.8505C7.28641 14.8505 7.08053 14.7718 6.92009 14.6288C6.31413 14.0895 5.72991 13.5827 5.21447 13.1357L5.21184 13.1333C3.70065 11.8227 2.39569 10.6908 1.48772 9.57576C0.472753 8.32926 0 7.14739 0 5.85628C0 4.60185 0.422628 3.44457 1.18995 2.59745C1.96643 1.74032 3.03186 1.26825 4.19034 1.26825C5.0562 1.26825 5.84915 1.54686 6.54713 2.09626C6.89937 2.37359 7.21866 2.71299 7.49995 3.10889C7.78136 2.71299 8.10054 2.37359 8.4529 2.09626C9.15087 1.54686 9.94383 1.26825 10.8097 1.26825C11.968 1.26825 13.0336 1.74032 13.8101 2.59745C14.5774 3.44457 14.9999 4.60185 14.9999 5.85628C14.9999 7.14739 14.5273 8.32926 13.5123 9.57565C12.6043 10.6908 11.2995 11.8225 9.78853 13.1331C9.27218 13.5808 8.68704 14.0884 8.07971 14.629C7.91938 14.7718 7.71339 14.8505 7.49995 14.8505ZM4.19034 2.16254C3.2802 2.16254 2.4441 2.53223 1.83585 3.20358C1.21856 3.88507 0.878558 4.82711 0.878558 5.85628C0.878558 6.94217 1.27509 7.91333 2.16418 9.00516C3.02351 10.0605 4.30169 11.1691 5.78163 12.4528L5.78438 12.4551C6.30177 12.9039 6.88827 13.4127 7.4987 13.9559C8.11278 13.4116 8.7002 12.902 9.21862 12.4526C10.6984 11.1689 11.9765 10.0605 12.8358 9.00516C13.7248 7.91333 14.1214 6.94217 14.1214 5.85628C14.1214 4.82711 13.7814 3.88507 13.1641 3.20358C12.5559 2.53223 11.7197 2.16254 10.8097 2.16254C10.143 2.16254 9.53081 2.37825 8.99031 2.80361C8.50863 3.18285 8.17309 3.66226 7.97637 3.9977C7.8752 4.1702 7.69714 4.27316 7.49995 4.27316C7.30277 4.27316 7.12471 4.1702 7.02354 3.9977C6.82693 3.66226 6.49139 3.18285 6.0096 2.80361C5.4691 2.37825 4.85696 2.16254 4.19034 2.16254Z" fill="#E02020"/>
</svg>