<svg xmlns="http://www.w3.org/2000/svg" fill="none" viewBox="3 3.39 15 15">
<g id="8673325_ic_fluent_history_filled_icon">
<path id="Vector" d="M10.5 3.39404C14.6422 3.39404 18 6.75191 18 10.894C18 15.0362 14.6422 18.394 10.5 18.394C9.0755 18.394 7.70779 17.9955 6.52552 17.2554C6.044 16.954 5.59802 16.5987 5.19639 16.197C4.79414 15.7947 4.43845 15.348 4.1368 14.8655C3.39792 13.684 3 12.3173 3 10.894C3 10.6657 3.01023 10.4385 3.03057 10.2129C3.0719 9.75446 3.47699 9.41638 3.93537 9.45771C4.39375 9.49904 4.73183 9.90413 4.69051 10.3625C4.67465 10.5384 4.66667 10.7157 4.66667 10.894C4.66667 12.0025 4.97555 13.0634 5.54993 13.982C5.7847 14.3574 6.06168 14.7053 6.37497 15.0186C6.68778 15.3315 7.03507 15.6081 7.40982 15.8427C8.32888 16.418 9.39058 16.7274 10.5 16.7274C13.7217 16.7274 16.3333 14.1157 16.3333 10.894C16.3333 7.67238 13.7217 5.06071 10.5 5.06071C8.9405 5.06071 7.48688 5.67688 6.41495 6.72908L7.58143 6.73022C8.04166 6.73022 8.41476 7.10332 8.41476 7.56355C8.41476 7.99092 8.09306 8.34314 7.67861 8.39128L7.58143 8.39688H4.24693C3.81956 8.39688 3.46733 8.07518 3.4192 7.66074L3.41359 7.56355V4.2303C3.41359 3.77007 3.78668 3.39697 4.24693 3.39697C4.67429 3.39697 5.02652 3.71867 5.07465 4.13312L5.08026 4.2303L5.07991 5.70943C6.47175 4.25369 8.41297 3.39404 10.5 3.39404ZM9.875 6.72738C10.1912 6.72738 10.4529 6.96265 10.4942 7.2676L10.5 7.35238V10.894H12.375C12.72 10.894 13 11.174 13 11.519C13 11.8353 12.7647 12.097 12.4597 12.1383L12.375 12.144H9.875C9.55875 12.144 9.29708 11.9088 9.25575 11.6038L9.25 11.519V7.35238C9.25 7.00738 9.53 6.72738 9.875 6.72738Z" fill="#009A46"/>
</g>
</svg>