<svg xmlns="http://www.w3.org/2000/svg" fill="none" viewBox="15.5 32 120 86.7">
<ellipse cx="75.3284" cy="109.631" rx="51.9461" ry="9.06684" fill="#FEE567"/>
<path d="M75.4997 112.827C94.3371 112.827 109.608 97.5558 109.608 78.7184C109.608 59.8811 94.3371 44.6104 75.4997 44.6104C56.6624 44.6104 41.3917 59.8811 41.3917 78.7184C41.3917 97.5558 56.6624 112.827 75.4997 112.827Z" fill="#C3E678"/>
<path d="M79.7217 112.566C78.3381 112.737 76.9281 112.825 75.4985 112.825C56.6618 112.825 41.3917 97.5548 41.3917 78.718C41.3915 59.8792 56.6616 44.6091 75.4983 44.6091C76.9281 44.6091 78.3378 44.697 79.7215 44.8682C62.8747 46.9481 49.8336 61.3091 49.8336 78.7183C49.8336 96.1251 62.8747 110.486 79.7217 112.566Z" fill="#A5D76E"/>
<path d="M94.7777 66.358C95.6281 64.6442 94.9278 62.567 93.2138 61.7166L87.8511 59.0602C86.1373 58.2098 84.0601 58.9101 83.2097 60.6241L72.5975 82.0356L67.4296 73.3925C66.4477 71.7496 64.323 71.2154 62.6803 72.1973L57.5438 75.2671C55.9036 76.249 55.3666 78.3737 56.3486 80.0164L66.5317 97.0498C67.182 98.1371 68.3745 98.7847 69.6383 98.7347L76.857 98.4503C78.1234 98.4004 79.2606 97.6631 79.8215 96.5285L94.7777 66.358Z" fill="white"/>
<path d="M32.8339 56.5685L22.6018 51.5533C20.8393 50.6892 18.7183 51.5625 18.0749 53.4172L15.6819 60.3163C15.0386 62.1707 16.1634 64.1698 18.0822 64.5828L29.2223 66.9808C30.8368 67.3284 32.4569 66.4167 32.9985 64.8564L34.4838 60.575C35.0247 59.0147 34.3172 57.2955 32.8339 56.5685Z" fill="#FEE567"/>
<path d="M22.6019 51.552L32.8356 56.5689C34.3163 57.2972 35.0254 59.0135 34.4835 60.5761L32.9989 64.8561C32.8981 65.1463 32.7596 65.4166 32.5891 65.6584C32.6615 64.3724 31.9686 63.1286 30.7652 62.5382L20.531 57.5216C18.7689 56.6578 16.6495 57.5311 16.0055 59.3872L18.0759 53.4179C18.72 51.5619 20.8393 50.6882 22.6019 51.552Z" fill="#E8CD43"/>
<path d="M48.0796 42.9062L41.726 33.4467C40.6317 31.8173 38.358 31.513 36.8737 32.7974L31.3515 37.5757C29.8672 38.8601 29.8418 41.1536 31.297 42.4711L39.7458 50.1179C40.9703 51.2262 42.829 51.247 44.0781 50.1661L47.5049 47.2009C48.7536 46.1197 49.0002 44.2772 48.0796 42.9062Z" fill="#FEE567"/>
<path d="M41.7262 33.4454L48.0808 42.9069C48.999 44.2779 48.7548 46.1187 47.5042 47.2009L44.0783 50.1652C43.846 50.3661 43.5905 50.531 43.3222 50.6552C44.028 49.5777 44.0498 48.1542 43.3027 47.041L36.9482 37.5794C35.8538 35.95 33.5818 35.647 32.0962 36.9324L36.8742 32.7981C38.3598 31.513 40.6319 31.8163 41.7262 33.4454Z" fill="#E8CD43"/>
<path d="M30.6548 76.3259L19.2857 77.0985C17.3272 77.2316 15.9272 79.0484 16.2973 80.9761L17.6742 88.1474C18.0443 90.0752 20.0179 91.2439 21.8862 90.6422L32.7329 87.1489C34.3051 86.6427 35.2525 85.043 34.9409 83.4213L34.0864 78.9707C33.7748 77.3489 32.3024 76.2142 30.6548 76.3259Z" fill="#FEE567"/>
<path d="M19.285 77.0974L30.6561 76.3252C32.3027 76.2155 33.7747 77.3472 34.0867 78.9716L34.9408 83.4209C34.9986 83.7226 35.0138 84.0259 34.9871 84.3206C34.4068 83.1707 33.1849 82.4402 31.8473 82.5304L20.4762 83.3026C18.5181 83.4358 17.1193 85.2518 17.4898 87.1812L16.2982 80.9764C15.9285 79.047 17.3268 77.2306 19.285 77.0974Z" fill="#E8CD43"/>
<path d="M121.778 66.9804L132.918 64.5821C134.837 64.169 135.962 62.1699 135.318 60.3152L132.925 53.4162C132.282 51.5618 130.161 50.6884 128.398 51.5525L118.166 56.5685C116.683 57.2954 115.975 59.0143 116.516 60.5746L118.002 64.856C118.543 66.4166 120.163 67.328 121.778 66.9804Z" fill="#FEE567"/>
<path d="M132.919 64.583L121.777 66.9813C120.163 67.3266 118.543 66.4179 118.002 64.8553L116.517 60.5752C116.416 60.2851 116.358 59.9871 116.342 59.6913C117.081 60.7461 118.396 61.2933 119.706 61.0117L130.848 58.6135C132.767 58.2004 133.89 56.202 133.246 54.3459L135.317 60.3152C135.961 62.1715 134.838 64.17 132.919 64.583Z" fill="#E8CD43"/>
<path d="M118.269 87.1484L129.115 90.6418C130.984 91.2435 132.957 90.0744 133.327 88.1467L134.704 80.9753C135.074 79.0476 133.674 77.2309 131.716 77.0977L120.347 76.3255C118.699 76.2135 117.226 77.3485 116.915 78.9703L116.061 83.4208C115.749 85.0426 116.696 86.6419 118.269 87.1484Z" fill="#FEE567"/>
<path d="M129.116 90.6427L118.267 87.1484C116.697 86.6405 115.749 85.0438 116.061 83.4198L116.915 78.9705C116.973 78.6688 117.071 78.3814 117.205 78.1177C117.318 79.4007 118.183 80.5321 119.458 80.9435L130.307 84.4378C132.175 85.0396 134.147 83.8705 134.517 81.9411L133.326 88.1459C132.956 90.075 130.984 91.2444 129.116 90.6427Z" fill="#E8CD43"/>
<path d="M111.254 50.1178L119.702 42.471C121.158 41.1539 121.132 38.86 119.648 37.5756L114.125 32.7976C112.641 31.5132 110.367 31.8176 109.273 33.4469L102.92 42.9068C101.999 44.2778 102.245 46.1203 103.494 47.2011L106.921 50.1664C108.171 51.2469 110.03 51.2261 111.254 50.1178Z" fill="#FEE567"/>
<path d="M119.704 42.4708L111.253 50.119C110.029 51.2246 108.172 51.2478 106.921 50.1656L103.495 47.2013C103.263 47.0004 103.063 46.7714 102.902 46.5236C104.07 47.0671 105.481 46.8841 106.476 45.985L114.926 38.3368C116.381 37.0197 116.355 34.7275 114.869 33.4421L119.647 37.5765C121.132 38.8615 121.159 41.1537 119.704 42.4708Z" fill="#E8CD43"/>
</svg>