<svg width="20" height="21" viewBox="0 0 20 21" fill="none" xmlns="http://www.w3.org/2000/svg">
<g id="location-svgrepo-com (1) 1" clip-path="url(#clip0_196_15573)">
<g id="Group">
<path id="Vector" d="M10.0001 0.894043C6.76847 0.894043 4.1394 3.52311 4.1394 6.7547C4.1394 7.63601 4.3303 8.483 4.70664 9.27271C4.71421 9.28961 4.72217 9.3062 4.73065 9.32279L9.15869 17.8964C9.32125 18.211 9.64585 18.4088 9.99999 18.4088C10.3542 18.4088 10.6788 18.2111 10.8413 17.8964L15.2681 9.32513C15.2758 9.31036 15.2829 9.29544 15.2897 9.28036C15.6686 8.48837 15.8606 7.63881 15.8606 6.7547C15.8607 3.52311 13.2317 0.894043 10.0001 0.894043ZM10.0001 9.8223C8.30859 9.8223 6.93247 8.44618 6.93247 6.7547C6.93247 5.0633 8.30859 3.68719 10.0001 3.68719C11.6915 3.68719 13.0677 5.0633 13.0677 6.7547C13.0677 8.44618 11.6915 9.8223 10.0001 9.8223Z" fill="#FBAA19"/>
<path id="Vector_2" d="M12.2575 19.7578H7.74246C7.42862 19.7578 7.17432 20.0121 7.17432 20.3259C7.17432 20.6397 7.42862 20.894 7.74246 20.894H12.2575C12.5713 20.894 12.8256 20.6397 12.8256 20.3259C12.8256 20.0121 12.5712 19.7578 12.2575 19.7578Z" fill="#FBAA19"/>
</g>
</g>
<defs>
<clipPath id="clip0_196_15573">
<rect width="20" height="20" fill="white" transform="translate(0 0.894043)"/>
</clipPath>
</defs>
</svg>
