<svg width="12" height="20" viewBox="0 0 12 20" fill="none" xmlns="http://www.w3.org/2000/svg">
<g id="Group">
<path id="Vector" d="M6.06257 0C2.83097 0 0.201904 2.62906 0.201904 5.86066C0.201904 6.74196 0.3928 7.58895 0.769139 8.37867C0.776714 8.39556 0.784668 8.41215 0.793153 8.42874L5.22119 17.0023C5.38375 17.317 5.70835 17.5147 6.06249 17.5147C6.41671 17.5147 6.74131 17.3171 6.9038 17.0023L11.3306 8.43109C11.3383 8.41632 11.3454 8.4014 11.3522 8.38632C11.7311 7.59433 11.9231 6.74477 11.9231 5.86066C11.9232 2.62906 9.29417 0 6.06257 0ZM6.06257 8.92825C4.37109 8.92825 2.99497 7.55214 2.99497 5.86066C2.99497 4.16926 4.37109 2.79314 6.06257 2.79314C7.75405 2.79314 9.13017 4.16926 9.13017 5.86066C9.13017 7.55214 7.75405 8.92825 6.06257 8.92825Z" fill="#046937"/>
<path id="Vector_2" d="M8.31996 18.8638H3.80496C3.49112 18.8638 3.23682 19.1181 3.23682 19.4319C3.23682 19.7458 3.49112 20.0001 3.80496 20.0001H8.31996C8.6338 20.0001 8.8881 19.7458 8.8881 19.4319C8.8881 19.1181 8.63372 18.8638 8.31996 18.8638Z" fill="#046937"/>
</g>
</svg>
