<svg width="20" height="22" viewBox="0 0 20 22" fill="none" xmlns="http://www.w3.org/2000/svg">
<path d="M10.9179 20.7798C15.4573 18.4685 19 14.6408 19 9.98687C19 5.02356 14.9706 1 10 1C5.02943 1 1 5.02356 1 9.98687C1 14.6408 4.54273 18.4685 9.08211 20.7798C9.6589 21.0734 10.3411 21.0734 10.9179 20.7798Z" stroke="#f08417" stroke-width="2" stroke-linecap="round" stroke-linejoin="round"/>
<path d="M13 10C13 11.6569 11.6569 13 10 13C8.3431 13 7 11.6569 7 10C7 8.34315 8.3431 7 10 7C11.6569 7 13 8.34315 13 10Z" stroke="#f08417" stroke-width="2" stroke-linecap="round" stroke-linejoin="round"/>
</svg>
