<svg xmlns="http://www.w3.org/2000/svg" version="1.1" viewBox="10.94 6.25 78.13 87.5">
 <path d="m10.938 76.562c0 3.4453 2.8047 6.25 6.25 6.25v4.6875c0 3.4453 2.8047 6.25 6.25 6.25h59.375c3.4453 0 6.25-2.8047 6.25-6.25v-64.062c0-0.86328-0.69922-1.5625-1.5625-1.5625s-1.5625 0.69922-1.5625 1.5625v64.062c0 1.7227-1.4023 3.125-3.125 3.125h-59.375c-1.7227 0-3.125-1.4023-3.125-3.125v-4.6875h3.125c2.0664-0.050781 2.0469-3.0859 0-3.125h-3.125v-23.438h3.125c2.0625-0.039062 2.0469-3.0898 0-3.125h-3.125v-23.438h3.125c2.0586-0.027344 2.0469-3.0977 0-3.125h-3.125v-14.062c0-1.7227 1.4023-3.125 3.125-3.125h6.25v75c0.03125 2.0312 3.0859 2.0742 3.125 0v-75h50c1.7227 0 3.125 1.4023 3.125 3.125v3.125c0.019531 2.0625 3.1016 2.043 3.125 0v-3.125c0-3.4453-2.8047-6.25-6.25-6.25h-59.375c-3.4453 0-6.25 2.8047-6.25 6.25v4.6875c-3.4453 0-6.25 2.8047-6.25 6.25s2.8047 6.25 6.25 6.25v14.062c-8.2461 0.25391-8.2695 12.238 0 12.5v14.062c-3.4453 0-6.25 2.8047-6.25 6.25zm3.125-53.125c0-1.7227 1.4023-3.125 3.125-3.125v6.25c-1.7227 0-3.125-1.4023-3.125-3.125zm0 26.562c0-1.7227 1.4023-3.125 3.125-3.125v6.25c-1.7227 0-3.125-1.4023-3.125-3.125zm0 26.562c0-1.7227 1.4023-3.125 3.125-3.125v6.25c-1.7227 0-3.125-1.4023-3.125-3.125z"/>
 <path d="m79.688 18.75c0-0.86328-0.69922-1.5625-1.5625-1.5625h-37.5c-0.86328 0-1.5625 0.69922-1.5625 1.5625s0.69922 1.5625 1.5625 1.5625h37.5c0.86328 0 1.5625-0.69922 1.5625-1.5625z"/>
 <path d="m46.875 26.562c-2.0469 0.03125-2.0586 3.0898 0 3.125h25c2.0469-0.03125 2.0586-3.0898 0-3.125h-25z"/>
 <path d="m37.5 72.656c0 2.5859 2.1016 4.6875 4.6875 4.6875h34.375c2.5859 0 4.6875-2.1016 4.6875-4.6875 0-2.0586-1.3438-3.793-3.1914-4.4219-0.57422-8.3164-6.5742-15.148-14.492-16.965 1.582-2.9766-0.8125-6.8281-4.1953-6.7383-3.3828-0.082031-5.7773 3.7617-4.1953 6.7383-7.9141 1.8164-13.918 8.6484-14.492 16.965-1.8477 0.62891-3.1914 2.3633-3.1914 4.4219zm20.312-23.438c0.035156-2.0547 3.0898-2.0547 3.125 0-0.035156 2.0547-3.0898 2.0547-3.125 0zm-15.625 21.875h26.562c2.0508-0.03125 2.0586-3.0898 0-3.125h-24.922c0.78516-7.8828 7.457-14.062 15.547-14.062 8.6133 0 15.625 7.0117 15.625 15.625 0 0.86328 0.69922 1.5625 1.5625 1.5625 2.043 0.03125 2.0625 3.0898 0 3.125h-34.375c-2.043-0.035156-2.0625-3.0859 0-3.125z"/>
</svg>