<svg xmlns="http://www.w3.org/2000/svg" fill="none" viewBox="0.5 0 300 300">
<g clip-path="url(#clip0_334_6274)">
<path d="M300.5 229.44H0.5V229.59H300.5V229.44Z" fill="#EBEBEB"/>
<path d="M270.44 239.094H261.5V239.244H270.44V239.094Z" fill="#EBEBEB"/>
<path d="M199.232 240.726H194.018V240.876H199.232V240.726Z" fill="#EBEBEB"/>
<path d="M258.968 233.526H238.454V233.676H258.968V233.526Z" fill="#EBEBEB"/>
<path d="M66.278 236.622H40.364V236.772H66.278V236.622Z" fill="#EBEBEB"/>
<path d="M80.966 236.622H71.618V236.772H80.966V236.622Z" fill="#EBEBEB"/>
<path d="M153.356 234.606H97.148V234.756H153.356V234.606Z" fill="#EBEBEB"/>
<path d="M142.7 202.68H26.846C25.9384 202.678 25.0686 202.317 24.4274 201.674C23.7862 201.032 23.426 200.162 23.426 199.254V36.396C23.4339 35.4936 23.7975 34.6308 24.4379 33.9949C25.0782 33.3591 25.9436 33.0015 26.846 33H142.7C143.609 33 144.48 33.361 145.123 34.0035C145.765 34.646 146.126 35.5174 146.126 36.426V199.254C146.126 200.163 145.765 201.034 145.123 201.677C144.48 202.319 143.609 202.68 142.7 202.68ZM26.846 33.12C25.9782 33.1216 25.1465 33.4674 24.5334 34.0816C23.9204 34.6958 23.576 35.5282 23.576 36.396V199.254C23.576 200.122 23.9204 200.954 24.5334 201.568C25.1465 202.183 25.9782 202.528 26.846 202.53H142.7C143.568 202.528 144.401 202.183 145.015 201.569C145.629 200.955 145.974 200.122 145.976 199.254V36.396C145.974 35.5276 145.629 34.6953 145.015 34.0813C144.401 33.4672 143.568 33.1216 142.7 33.12H26.846Z" fill="#EBEBEB"/>
<path d="M272.486 202.68H156.626C155.718 202.678 154.847 202.317 154.205 201.675C153.563 201.033 153.202 200.162 153.2 199.254V36.396C153.209 35.4931 153.574 34.6302 154.216 33.9946C154.857 33.3589 155.723 33.0015 156.626 33H272.486C273.387 33.0031 274.251 33.3613 274.89 33.997C275.529 34.6327 275.892 35.4947 275.9 36.396V199.254C275.9 200.161 275.541 201.03 274.901 201.672C274.261 202.314 273.393 202.677 272.486 202.68ZM156.626 33.12C155.758 33.1216 154.925 33.4672 154.311 34.0813C153.697 34.6953 153.352 35.5276 153.35 36.396V199.254C153.352 200.122 153.697 200.955 154.311 201.569C154.925 202.183 155.758 202.528 156.626 202.53H272.486C273.354 202.528 274.187 202.183 274.801 201.569C275.415 200.955 275.76 200.122 275.762 199.254V36.396C275.76 35.5276 275.415 34.6953 274.801 34.0813C274.187 33.4672 273.354 33.1216 272.486 33.12H156.626Z" fill="#EBEBEB"/>
<path d="M133.4 225.06H138.14V192.6H133.4V225.06Z" fill="#F0F0F0"/>
<path d="M37.526 229.44H135.014V225.06H37.526V229.44Z" fill="#F0F0F0"/>
<path d="M133.4 192.6H34.394V225.06H133.4V192.6Z" fill="#F5F5F5"/>
<path d="M126.992 198.252H40.796V216.792H126.992V198.252Z" fill="#F0F0F0"/>
<path d="M62.93 200.73H104.87C105.655 200.73 106.292 200.093 106.292 199.308V199.044C106.292 198.259 105.655 197.622 104.87 197.622H62.93C62.1446 197.622 61.508 198.259 61.508 199.044V199.308C61.508 200.093 62.1446 200.73 62.93 200.73Z" fill="#F5F5F5"/>
<path d="M32.222 192.6H133.4V189.702H32.222V192.6Z" fill="#F0F0F0"/>
<path d="M140.414 189.702H133.4V192.6H140.414V189.702Z" fill="#E6E6E6"/>
<path d="M129.782 146.886L256.64 146.886V49.596L129.782 49.596V146.886Z" fill="#E6E6E6"/>
<path d="M117.908 45.8101H263.816C264.107 45.8101 264.387 45.9258 264.592 46.1317C264.798 46.3376 264.914 46.6169 264.914 46.9081C264.912 47.1982 264.796 47.476 264.59 47.6806C264.385 47.8852 264.106 48.0001 263.816 48.0001H117.908C117.763 48.0009 117.62 47.973 117.486 47.9182C117.352 47.8634 117.23 47.7826 117.128 47.6806C117.025 47.5786 116.944 47.4573 116.888 47.3236C116.833 47.19 116.804 47.0468 116.804 46.9021C116.805 46.7579 116.834 46.6153 116.89 46.4823C116.946 46.3494 117.027 46.2288 117.13 46.1274C117.232 46.026 117.354 45.9458 117.487 45.8914C117.621 45.8369 117.764 45.8093 117.908 45.8101Z" fill="#E6E6E6"/>
<path d="M125.078 146.886L254.444 146.886V49.596L125.078 49.596V146.886Z" fill="#F0F0F0"/>
<path d="M129.782 146.886H256.64V150H126.542L129.782 146.886Z" fill="#E6E6E6"/>
<path d="M117.242 146.886H246.608L243.368 150H114.008L117.242 146.886Z" fill="#F0F0F0"/>
<path d="M247.856 140.304V56.178L131.66 56.178V140.304H247.856Z" fill="#FAFAFA"/>
<path d="M209.084 140.298L170.45 56.178H152.204L190.844 140.298H209.084Z" fill="white"/>
<path d="M186.926 140.298L148.286 56.178H141.176L179.816 140.298H186.926Z" fill="white"/>
<path d="M132.5 140.304V56.178H131.666V140.304H132.5Z" fill="#E6E6E6"/>
<g opacity="0.4">
<path opacity="0.4" d="M247.784 124.122H259.112V43.8358H247.784V124.122Z" fill="#F0F0F0"/>
<path opacity="0.4" d="M243.368 124.122H252.194V43.8358H243.368V124.122Z" fill="#E6E6E6"/>
<path opacity="0.4" d="M236.456 124.122H247.784V43.8358H236.456V124.122Z" fill="#F0F0F0"/>
<path opacity="0.4" d="M232.04 124.122H240.866V43.8358H232.04V124.122Z" fill="#E6E6E6"/>
<path opacity="0.4" d="M225.122 124.122H236.45V43.8358H225.122V124.122Z" fill="#F0F0F0"/>
</g>
<g opacity="0.4">
<path opacity="0.4" d="M135.884 124.122H142.412V43.8358H135.884V124.122Z" fill="#F0F0F0"/>
<path opacity="0.4" d="M133.334 124.122H138.422V43.8358H133.334V124.122Z" fill="#E6E6E6"/>
<path opacity="0.4" d="M129.35 124.122H135.878V43.8358H129.35V124.122Z" fill="#F0F0F0"/>
<path opacity="0.4" d="M126.806 124.122H131.894V43.8358H126.806L126.806 124.122Z" fill="#E6E6E6"/>
<path opacity="0.4" d="M122.822 124.122H129.35V43.8358H122.822L122.822 124.122Z" fill="#F0F0F0"/>
</g>
<path d="M94.82 43.8899H42.698V177.066H94.82V43.8899Z" fill="#F5F5F5"/>
<path d="M94.826 177.06H96.254L96.254 43.8841H94.826L94.826 177.06Z" fill="#E0E0E0"/>
<path d="M89.99 172.236L89.99 48.7141H47.522L47.522 172.236H89.99Z" fill="white"/>
<path d="M62.474 172.236L76.568 48.7141H84.698L70.61 172.236H62.474Z" fill="#FAFAFA"/>
<path d="M55.43 172.236L69.518 48.7141H73.586L59.498 172.236H55.43Z" fill="#FAFAFA"/>
<path d="M150.5 256.536C214.749 256.536 266.834 253.495 266.834 249.744C266.834 245.993 214.749 242.952 150.5 242.952C86.2505 242.952 34.166 245.993 34.166 249.744C34.166 253.495 86.2505 256.536 150.5 256.536Z" fill="#F5F5F5"/>
<path d="M239.33 249.744H169.25C168.274 249.754 167.306 249.561 166.408 249.177C165.511 248.793 164.703 248.227 164.036 247.513C163.369 246.8 162.859 245.955 162.536 245.034C162.214 244.112 162.087 243.133 162.164 242.16L171.944 93.9178C172.108 91.8754 173.026 89.9672 174.52 88.5651C176.015 87.163 177.977 86.3676 180.026 86.3338H250.1C251.076 86.3242 252.043 86.5177 252.94 86.9021C253.837 87.2866 254.644 87.8535 255.31 88.5669C255.976 89.2802 256.486 90.1243 256.808 91.0456C257.13 91.9668 257.257 92.945 257.18 93.9178L247.412 242.16C247.248 244.202 246.33 246.111 244.836 247.513C243.341 248.915 241.379 249.71 239.33 249.744Z" fill="#263238"/>
<path d="M254.084 126.198H245.6C245.364 126.2 245.131 126.154 244.914 126.061C244.698 125.968 244.503 125.831 244.342 125.659C244.181 125.487 244.058 125.283 243.98 125.061C243.902 124.839 243.872 124.603 243.89 124.368L244.736 111.528C244.783 111.04 245.009 110.586 245.37 110.254C245.731 109.922 246.202 109.734 246.692 109.728H255.17C255.403 109.726 255.634 109.772 255.848 109.863C256.062 109.953 256.256 110.087 256.416 110.256C256.577 110.425 256.7 110.625 256.78 110.844C256.86 111.063 256.894 111.295 256.88 111.528L256.034 124.368C255.995 124.861 255.774 125.322 255.413 125.66C255.053 125.999 254.579 126.19 254.084 126.198Z" fill="#263238"/>
<path d="M198.368 84.2339H195.266V84.8339H198.368V84.2339Z" fill="#FEE567"/>
<path d="M191.444 84.2339H180.164V84.8339H191.444V84.2339Z" fill="#FEE567"/>
<path d="M238.262 249.744H168.182C167.206 249.753 166.239 249.56 165.341 249.175C164.444 248.791 163.637 248.224 162.97 247.511C162.304 246.798 161.793 245.954 161.47 245.033C161.148 244.111 161.02 243.133 161.096 242.16L170.9 93.9178C171.064 91.8754 171.982 89.9671 173.476 88.565C174.971 87.1629 176.933 86.3675 178.982 86.3338H249.062C250.034 86.33 250.997 86.5278 251.889 86.9148C252.781 87.3019 253.583 87.8697 254.244 88.5824C254.906 89.2951 255.412 90.1372 255.731 91.0555C256.051 91.9739 256.176 92.9485 256.1 93.9178L246.344 242.16C246.18 244.202 245.262 246.11 243.768 247.513C242.273 248.915 240.311 249.71 238.262 249.744Z" fill="#009A46"/>
<path d="M241.442 232.476H167.3C166.745 232.482 166.196 232.372 165.686 232.154C165.176 231.936 164.717 231.614 164.338 231.208C163.96 230.803 163.669 230.324 163.486 229.8C163.303 229.277 163.231 228.721 163.274 228.168L171.788 99.1078C171.88 97.9505 172.399 96.8688 173.244 96.0727C174.089 95.2766 175.199 94.8229 176.36 94.7998H250.52C251.075 94.7939 251.624 94.9036 252.134 95.1218C252.644 95.34 253.103 95.6619 253.482 96.0671C253.86 96.4723 254.151 96.952 254.334 97.4755C254.517 97.9989 254.589 98.5548 254.546 99.1078L246.032 228.168C245.94 229.328 245.418 230.412 244.57 231.209C243.721 232.005 242.606 232.457 241.442 232.476Z" fill="white"/>
<path d="M227.612 94.7998H212.888L177.218 232.476H191.942L227.612 94.7998Z" fill="#FAFAFA"/>
<path d="M240.584 94.7998H233.222L197.552 232.476H204.914L240.584 94.7998Z" fill="#FAFAFA"/>
<path d="M230.804 189.816L214.796 129.27C214.368 127.66 213.319 126.286 211.88 125.448C210.44 124.61 208.727 124.377 207.116 124.8L169.244 134.808L164.192 213.924L226.334 197.502C227.943 197.071 229.317 196.021 230.154 194.581C230.992 193.141 231.225 191.428 230.804 189.816Z" fill="#F0F0F0"/>
<path opacity="0.2" d="M207.051 242.726C208.975 240.865 209.123 237.896 207.382 236.095C205.64 234.295 202.668 234.344 200.743 236.206C198.819 238.068 198.671 241.036 200.413 242.837C202.155 244.637 205.127 244.588 207.051 242.726Z" fill="white"/>
<path opacity="0.2" d="M215.678 90.324C215.636 90.8468 215.401 91.3351 215.018 91.6936C214.635 92.052 214.132 92.2547 213.608 92.262C213.36 92.2627 213.114 92.212 212.886 92.113C212.658 92.0141 212.453 91.869 212.284 91.687C212.115 91.5049 211.985 91.2898 211.903 91.0553C211.821 90.8207 211.789 90.5717 211.808 90.324C211.848 89.8007 212.083 89.3116 212.467 88.9529C212.85 88.5942 213.353 88.3919 213.878 88.386C214.126 88.3853 214.372 88.436 214.6 88.5349C214.828 88.6339 215.033 88.779 215.202 88.961C215.371 89.1431 215.501 89.3581 215.583 89.5927C215.665 89.8273 215.697 90.0763 215.678 90.324Z" fill="white"/>
<path opacity="0.2" d="M214.802 90.324C214.781 90.6116 214.653 90.881 214.443 91.0787C214.233 91.2765 213.956 91.3882 213.668 91.392C213.53 91.3942 213.394 91.3675 213.267 91.3136C213.141 91.2597 213.027 91.1799 212.933 91.0792C212.839 90.9786 212.767 90.8593 212.722 90.7293C212.677 90.5992 212.66 90.4611 212.672 90.324C212.693 90.0363 212.821 89.767 213.031 89.5693C213.241 89.3715 213.518 89.2597 213.806 89.256C213.944 89.2538 214.08 89.2805 214.207 89.3344C214.333 89.3883 214.447 89.4681 214.541 89.5687C214.635 89.6694 214.707 89.7886 214.752 89.9187C214.797 90.0488 214.814 90.1869 214.802 90.324Z" fill="white"/>
<path d="M102.092 82.8359C104.33 77.3339 103.526 70.632 97.178 69.132C95.7792 68.7716 94.3154 68.744 92.904 69.0513C91.4925 69.3587 90.1728 69.9925 89.0505 70.9019C87.9281 71.8113 87.0345 72.971 86.4412 74.288C85.8479 75.6051 85.5715 77.0428 85.634 78.4859C85.886 84.4859 89.834 89.4839 82.916 93.8339C75.998 98.1839 76.736 111.294 90.116 108.762C103.496 106.23 96.266 99.3479 96.266 99.3479C96.266 99.3479 92.984 102.024 91.928 99.2999C90.59 95.7719 99.5 89.2739 102.092 82.8359Z" fill="#263238"/>
<path d="M78.548 100.884L78.254 100.818C79.148 96.816 80.552 95.7841 82.034 94.6921C83.516 93.6001 84.92 92.5621 86.054 88.6261C86.588 86.7721 86.252 84.72 85.922 82.7401C85.502 80.2141 85.07 77.5981 86.372 75.2581L86.63 75.4081C85.382 77.6521 85.808 80.2081 86.216 82.6921C86.552 84.7081 86.9 86.7901 86.342 88.6921C85.184 92.7241 83.672 93.8341 82.214 94.9141C80.756 95.9941 79.418 96.996 78.548 100.884Z" fill="#263238"/>
<path d="M119.132 113.058C119.174 113.262 119.246 113.568 119.312 113.844L119.522 114.69C119.666 115.26 119.828 115.83 119.996 116.4C120.338 117.534 120.704 118.68 121.1 119.808C121.892 122.078 122.797 124.307 123.812 126.486L124.568 128.064C124.696 128.346 124.877 128.601 125.102 128.814C125.776 129.356 126.581 129.712 127.436 129.846C129.679 130.209 131.967 130.209 134.21 129.846L135.02 132.396C134.399 132.669 133.764 132.91 133.118 133.116C132.476 133.329 131.823 133.51 131.162 133.656C129.786 133.973 128.373 134.104 126.962 134.046C125.302 133.999 123.687 133.49 122.3 132.576C121.52 132.034 120.861 131.335 120.368 130.524L120.272 130.374L120.212 130.272L120.092 130.056L119.846 129.636L119.36 128.784C118.104 126.495 117.002 124.126 116.06 121.692C115.604 120.492 115.154 119.238 114.788 117.972C114.608 117.372 114.428 116.706 114.266 116.058C114.104 115.41 113.96 114.798 113.828 114.03L119.132 113.058Z" fill="#FFBE9D"/>
<path d="M114.5 104.67C120.554 107.37 120.5 116.442 120.5 116.442L114.122 120.276C114.122 120.276 109.322 113.172 109.682 109.944C110.036 106.578 111.068 103.152 114.5 104.67Z" fill="#FEE567"/>
<path opacity="0.2" d="M115.454 112.41C113.798 110.736 112.34 112.668 111.008 114.81C111.921 116.704 112.962 118.534 114.122 120.288L116.738 118.716C117.254 116.718 117.104 114.09 115.454 112.41Z" fill="black"/>
<path d="M133.58 130.074L137.84 127.95L137.888 133.524C137.888 133.524 134.708 134.076 132.59 131.844L133.58 130.074Z" fill="#FFBE9D"/>
<path d="M142.418 128.94L141.686 133.08L137.888 133.524L137.84 127.95L142.418 128.94Z" fill="#FFBE9D"/>
<path d="M94.586 245.316L99.854 245.82L102.308 233.562L97.04 233.058L94.586 245.316Z" fill="#FFBE9D"/>
<path d="M60.044 230.946L64.328 234.066L71.474 223.926L67.184 220.806L60.044 230.946Z" fill="#FFBE9D"/>
<path d="M65.9 232.116L62.372 227.286C62.3133 227.2 62.2251 227.14 62.1243 227.115C62.0235 227.091 61.9172 227.105 61.826 227.154L57.596 229.398C57.4914 229.459 57.4009 229.541 57.3303 229.639C57.2596 229.737 57.2105 229.849 57.1862 229.967C57.1618 230.086 57.1628 230.208 57.1889 230.326C57.2151 230.444 57.2659 230.555 57.338 230.652C58.598 232.314 59.288 233.052 60.842 235.182C61.802 236.49 63.722 239.52 65.042 241.326C66.362 243.132 68.216 241.926 67.832 241.056C66.092 237.15 66.032 234.864 66.164 233.034C66.1892 232.706 66.0954 232.38 65.9 232.116Z" fill="#263238"/>
<path d="M100.55 244.23H94.226C94.1123 244.23 94.0018 244.268 93.9118 244.337C93.8217 244.407 93.7571 244.504 93.728 244.614L92.354 249.6C92.3203 249.718 92.3146 249.842 92.3375 249.963C92.3604 250.083 92.4113 250.197 92.4859 250.294C92.5605 250.392 92.657 250.47 92.7674 250.524C92.8779 250.577 92.9993 250.604 93.122 250.602C95.354 250.602 96.41 250.602 99.188 250.602H107.69C110 250.602 110.48 248.268 109.526 248.052C105.242 247.104 102.77 245.796 101.444 244.548C101.197 244.333 100.878 244.219 100.55 244.23Z" fill="#263238"/>
<path opacity="0.2" d="M102.308 233.568L101.042 239.886H95.672L97.04 233.064L102.308 233.568Z" fill="black"/>
<path opacity="0.2" d="M67.184 220.806L71.474 223.932L67.79 229.158L63.5 226.032L67.184 220.806Z" fill="black"/>
<path d="M116.996 109.452C116.624 113.502 115.28 121.452 111.35 136.986L89.786 135.12C90.824 127.026 91.31 121.782 89.282 106.458C89.2161 105.951 89.255 105.437 89.3964 104.946C89.5377 104.455 89.7785 103.999 90.1037 103.605C90.429 103.211 90.8317 102.888 91.2869 102.656C91.7422 102.425 92.2402 102.289 92.75 102.258C94.304 102.174 96.152 102.12 98.006 102.192C101.286 102.241 104.558 102.524 107.798 103.038C109.7 103.38 111.728 103.872 113.378 104.304C114.492 104.596 115.467 105.273 116.13 106.216C116.792 107.158 117.099 108.305 116.996 109.452Z" fill="#FEE567"/>
<path opacity="0.2" d="M89.834 110.946C90.11 113.346 90.314 115.488 90.434 117.408C92.42 117.234 93.884 115.056 94.034 110.502C93.29 108.3 91.52 109.098 89.834 110.946Z" fill="black"/>
<path d="M111.35 136.986C111.35 136.986 118.646 169.266 113.75 192.024C110.492 207.264 103.238 238.05 103.238 238.05L94.04 237.816C94.04 237.816 98.432 205.506 100.274 192.816C103.424 171.084 95.534 135.642 95.534 135.642L111.35 136.986Z" fill="#263238"/>
<path opacity="0.2" d="M102.938 143.508L98.336 150.762C99.7218 159.363 100.601 168.038 100.97 176.742C107.438 165.162 104.372 149.634 102.938 143.508Z" fill="black"/>
<path d="M104.558 238.53L93.194 238.242L93.854 234.75L105.446 235.296L104.558 238.53Z" fill="#FEE567"/>
<path d="M106.634 136.644C106.634 136.644 102.356 170.874 93.074 189.564C85.58 204.66 69.902 228.654 69.902 228.654L64.172 224.064C64.172 224.064 73.976 197.526 79.544 187.5C93.206 162.9 82.04 144.15 89.786 135.12L106.634 136.644Z" fill="#263238"/>
<path d="M196.368 106.182L94.3822 149.032C91.1805 150.377 89.6756 154.063 91.0208 157.265L115.278 214.998C116.623 218.199 120.309 219.704 123.51 218.359L225.496 175.509C228.698 174.164 230.203 170.478 228.858 167.276L204.601 109.543C203.256 106.342 199.57 104.837 196.368 106.182Z" fill="#FEE567"/>
<path opacity="0.1" d="M196.368 106.182L94.3822 149.032C91.1805 150.377 89.6756 154.063 91.0208 157.265L115.278 214.998C116.623 218.199 120.309 219.704 123.51 218.359L225.496 175.509C228.698 174.164 230.203 170.478 228.858 167.276L204.601 109.543C203.256 106.342 199.57 104.837 196.368 106.182Z" fill="black"/>
<path opacity="0.2" d="M122.514 146.462L102.545 154.852C101.005 155.499 100.282 157.271 100.929 158.811L105.138 168.829C105.784 170.369 107.557 171.092 109.097 170.445L129.066 162.055C130.606 161.408 131.329 159.636 130.682 158.096L126.473 148.078C125.826 146.539 124.054 145.815 122.514 146.462Z" fill="white"/>
<path opacity="0.4" d="M136.526 186.061L116.961 194.281C116.384 194.524 116.112 195.189 116.355 195.766L117.84 199.301C118.083 199.878 118.747 200.15 119.325 199.907L138.89 191.687C139.467 191.444 139.739 190.779 139.496 190.202L138.011 186.667C137.768 186.09 137.104 185.818 136.526 186.061Z" fill="white"/>
<path opacity="0.4" d="M161.982 175.369L142.416 183.589C141.839 183.832 141.568 184.496 141.81 185.074L143.295 188.608C143.538 189.186 144.203 189.457 144.78 189.215L164.345 180.994C164.923 180.752 165.194 180.087 164.951 179.51L163.466 175.975C163.224 175.397 162.559 175.126 161.982 175.369Z" fill="white"/>
<path opacity="0.4" d="M187.431 164.676L167.866 172.897C167.288 173.14 167.017 173.804 167.26 174.382L168.745 177.916C168.987 178.494 169.652 178.765 170.229 178.523L189.795 170.302C190.372 170.06 190.643 169.395 190.401 168.817L188.916 165.283C188.673 164.705 188.008 164.434 187.431 164.676Z" fill="white"/>
<path opacity="0.4" d="M212.886 153.984L193.321 162.205C192.744 162.447 192.472 163.112 192.715 163.689L194.2 167.224C194.443 167.801 195.107 168.073 195.685 167.83L215.25 159.61C215.827 159.367 216.099 158.702 215.856 158.125L214.371 154.59C214.128 154.013 213.464 153.742 212.886 153.984Z" fill="white"/>
<path d="M70.502 229.29L63.152 223.728L64.958 220.5L72.77 226.56L70.502 229.29Z" fill="#FEE567"/>
<path d="M89.57 133.83L88.43 135.678C88.34 135.816 88.508 135.99 88.754 136.008L111.374 137.964C111.566 137.964 111.734 137.898 111.758 137.778L112.118 135.864C112.148 135.732 111.986 135.606 111.776 135.588L89.936 133.698C89.8688 133.687 89.8 133.694 89.736 133.717C89.6719 133.74 89.6148 133.779 89.57 133.83Z" fill="#FEE567"/>
<path opacity="0.5" d="M89.57 133.83L88.43 135.678C88.34 135.816 88.508 135.99 88.754 136.008L111.374 137.964C111.566 137.964 111.734 137.898 111.758 137.778L112.118 135.864C112.148 135.732 111.986 135.606 111.776 135.588L89.936 133.698C89.8688 133.687 89.8 133.694 89.736 133.717C89.6719 133.74 89.6148 133.779 89.57 133.83Z" fill="black"/>
<path d="M92.3 136.524L91.7 136.476C91.586 136.476 91.502 136.398 91.514 136.326L92.006 133.842C92.006 133.764 92.126 133.716 92.246 133.728L92.846 133.776C92.966 133.776 93.05 133.854 93.032 133.926L92.54 136.41C92.516 136.482 92.408 136.536 92.3 136.524Z" fill="#FEE567"/>
<path d="M109.7 138.03L109.1 137.982C108.986 137.982 108.902 137.904 108.914 137.832L109.406 135.348C109.428 135.305 109.463 135.27 109.506 135.25C109.55 135.229 109.599 135.223 109.646 135.234L110.246 135.282C110.366 135.282 110.45 135.36 110.432 135.432L109.94 137.916C109.934 138 109.826 138.042 109.7 138.03Z" fill="#FEE567"/>
<path d="M101 137.28L100.4 137.226C100.28 137.226 100.196 137.148 100.214 137.076L100.706 134.592C100.706 134.52 100.826 134.466 100.94 134.478L101.54 134.532C101.654 134.532 101.738 134.61 101.726 134.682L101.234 137.166C101.222 137.238 101.12 137.286 101 137.28Z" fill="#FEE567"/>
<path d="M67.244 234.786C67.1765 234.798 67.1075 234.798 67.04 234.786C66.386 234.654 65.84 233.544 65.552 232.896C65.5407 232.879 65.5346 232.859 65.5346 232.839C65.5346 232.819 65.5407 232.799 65.552 232.782C65.5676 232.77 65.5865 232.764 65.606 232.764C65.6255 232.764 65.6444 232.77 65.66 232.782C65.864 232.854 67.652 233.544 67.79 234.198C67.8066 234.269 67.803 234.343 67.7797 234.412C67.7564 234.481 67.7142 234.542 67.658 234.588C67.5446 234.696 67.3996 234.766 67.244 234.786ZM65.846 233.034C66.254 233.928 66.71 234.498 67.082 234.57C67.166 234.583 67.2519 234.574 67.3316 234.545C67.4113 234.515 67.4823 234.466 67.538 234.402C67.568 234.38 67.5908 234.349 67.6036 234.314C67.6164 234.279 67.6186 234.24 67.61 234.204C67.526 233.802 66.464 233.286 65.846 233.034Z" fill="#FEE567"/>
<path d="M67.298 233.118C66.7276 233.189 66.1487 233.127 65.606 232.938C65.5894 232.931 65.5751 232.919 65.5646 232.904C65.554 232.889 65.5476 232.872 65.546 232.854C65.5437 232.836 65.5463 232.817 65.5537 232.8C65.5611 232.783 65.573 232.769 65.588 232.758C65.642 232.722 66.878 231.822 67.622 231.99C67.7139 232.008 67.8008 232.045 67.8765 232.1C67.9522 232.155 68.0149 232.226 68.06 232.308C68.1194 232.383 68.1517 232.476 68.1517 232.572C68.1517 232.668 68.1194 232.761 68.06 232.836C67.8465 233.016 67.5771 233.116 67.298 233.118ZM65.9 232.8C66.5 232.974 67.622 232.986 67.898 232.68C67.946 232.632 67.988 232.554 67.898 232.398C67.8684 232.342 67.8266 232.294 67.7757 232.257C67.7248 232.219 67.6661 232.194 67.604 232.182C67.1 232.08 66.236 232.578 65.9 232.8Z" fill="#FEE567"/>
<path d="M103.358 245.25C102.776 245.235 102.197 245.163 101.63 245.034C101.611 245.026 101.594 245.012 101.583 244.994C101.571 244.976 101.565 244.956 101.565 244.935C101.565 244.914 101.571 244.893 101.583 244.876C101.594 244.858 101.611 244.844 101.63 244.836C101.894 244.71 104.186 243.636 104.762 244.044C104.815 244.078 104.858 244.126 104.885 244.184C104.911 244.241 104.921 244.305 104.912 244.368C104.911 244.485 104.882 244.601 104.827 244.705C104.773 244.809 104.695 244.899 104.6 244.968C104.227 245.192 103.792 245.291 103.358 245.25ZM101.99 244.89C102.674 245.016 103.934 245.184 104.45 244.794C104.517 244.741 104.572 244.675 104.611 244.599C104.65 244.524 104.673 244.441 104.678 244.356C104.678 244.272 104.678 244.236 104.624 244.218C104.3 243.996 102.944 244.47 101.99 244.89Z" fill="#FEE567"/>
<path d="M101.654 245.034C101.633 245.042 101.609 245.042 101.588 245.034C101.572 245.023 101.561 245.007 101.554 244.989C101.548 244.97 101.547 244.951 101.552 244.932C101.552 244.83 102.092 242.568 103.352 242.712C103.664 242.754 103.748 242.904 103.766 243.03C103.844 243.63 102.398 244.77 101.702 245.052L101.654 245.034ZM103.226 242.892C102.428 242.892 101.966 244.212 101.81 244.74C102.56 244.344 103.61 243.402 103.544 243.036C103.544 243.006 103.544 242.922 103.31 242.898L103.226 242.892Z" fill="#FEE567"/>
<path d="M92.174 111.054L91.856 111.504L91.508 112.014C91.274 112.362 91.04 112.716 90.818 113.082C90.362 113.802 89.948 114.552 89.528 115.302C88.6987 116.811 87.9691 118.372 87.344 119.976C86.7138 121.571 86.1867 123.204 85.766 124.866L85.484 126.066C85.484 126.03 85.448 126.156 85.514 126.384C85.7205 127.025 86.0219 127.632 86.408 128.184C87.3772 129.577 88.4653 130.884 89.66 132.09C90.86 133.362 92.192 134.592 93.518 135.816C94.844 137.04 96.236 138.216 97.628 139.374C99.02 140.532 100.442 141.702 101.828 142.83L100.328 145.044C97.1141 143.138 94.0111 141.05 91.034 138.792C89.534 137.664 88.064 136.476 86.642 135.192C85.1509 133.885 83.7905 132.436 82.58 130.866C81.8545 129.944 81.2868 128.908 80.9 127.8C80.6374 127.029 80.5493 126.209 80.642 125.4V125.232V125.142L80.672 124.962L80.732 124.596L80.858 123.87C81.211 121.938 81.7084 120.034 82.346 118.176C83.0054 116.327 83.7851 114.523 84.68 112.776C85.13 111.9 85.622 111.054 86.15 110.22C86.408 109.8 86.678 109.386 86.96 108.972L87.404 108.372C87.56 108.162 87.692 107.976 87.902 107.718L92.174 111.054Z" fill="#FFBE9D"/>
<path d="M91.64 102.6C87.524 103.68 83.552 113.658 83.552 113.658L88.88 118.53C88.88 118.53 97.25 110.898 96.968 107.454C96.734 104.526 94.946 101.724 91.64 102.6Z" fill="#FEE567"/>
<path opacity="0.2" d="M98.006 102C97.252 102.154 96.4834 102.224 95.714 102.21C95.552 105.174 97.454 108.036 102.128 111.876C103.25 108.378 105.728 107.622 105.728 107.622L98.006 102Z" fill="black"/>
<path opacity="0.2" d="M107.798 102.942C107.798 102.942 108.344 103.02 109.646 103.32C110.516 104.658 111.644 108.78 109.082 111.72C108.086 108.12 105.71 107.664 105.71 107.664L107.798 102.942Z" fill="black"/>
<path d="M98.006 102C98.006 102 96.806 102 95.342 102C94.472 103.338 97.466 107.046 102.134 110.886C103.256 107.388 105.734 107.598 105.734 107.598L98.006 102Z" fill="white"/>
<path d="M107.798 102.942C107.798 102.942 108.344 103.02 109.646 103.32C110.516 104.658 112.394 108.282 109.832 111.198C108.836 107.598 105.71 107.646 105.71 107.646L107.798 102.942Z" fill="white"/>
<path d="M99.932 91.23C100.28 94.434 100.394 100.23 98.006 102.174C98.006 102.174 99.248 105.774 105.71 107.646C109.598 105.402 107.798 103.02 107.798 103.02C104.36 101.88 104.678 99.282 105.5 96.882L99.932 91.23Z" fill="#FFBE9D"/>
<path opacity="0.2" d="M102.2 93.54L105.5 96.882C105.298 97.4375 105.145 98.0097 105.044 98.592C103.718 98.286 101.798 96.906 101.78 95.49C101.804 94.8204 101.947 94.1603 102.2 93.54Z" fill="black"/>
<path d="M107.228 78.4258C108.278 77.2678 110.36 78.7438 111.128 81.5818C112.28 85.7818 109.208 86.0818 107.6 83.9818C105.992 81.8818 106.352 79.3918 107.228 78.4258Z" fill="#263238"/>
<path d="M110.48 85.7999C111.534 86.1645 112.53 86.6776 113.438 87.3239C112.916 86.0519 112.448 85.2779 110.48 85.7999Z" fill="#263238"/>
<path d="M111.086 85.998C111.939 85.8282 112.812 85.7797 113.678 85.854C112.826 85.2 112.208 84.876 111.086 85.998Z" fill="#263238"/>
<path d="M97.1 86.226C98.438 91.344 98.9 93.54 102.032 95.682C106.754 98.91 112.748 96.15 112.97 90.732C113.168 85.86 110.948 78.312 105.47 77.244C104.263 76.999 103.013 77.0677 101.84 77.4437C100.667 77.8197 99.61 78.4904 98.7702 79.3915C97.9304 80.2927 97.3359 81.3943 97.0435 82.5909C96.751 83.7875 96.7705 85.0391 97.1 86.226Z" fill="#FFBE9D"/>
<path d="M99.572 79.476L98.09 81.198C97.6453 81.7068 97.0181 82.0198 96.3442 82.0692C95.6703 82.1186 95.0041 81.9005 94.49 81.462C93.9804 81.0182 93.6662 80.3913 93.6157 79.7174C93.5651 79.0435 93.7823 78.3769 94.22 77.862L95.702 76.146C96.1467 75.6377 96.7733 75.3246 97.4467 75.2741C98.1202 75.2236 98.7865 75.4397 99.302 75.876C99.8103 76.3207 100.123 76.9473 100.174 77.6207C100.224 78.2942 100.008 78.9605 99.572 79.476Z" fill="white"/>
<path d="M100.94 81.396L99.14 82.296C98.4012 82.6578 97.5492 82.7126 96.7702 82.4485C95.9911 82.1843 95.3483 81.6226 94.982 80.886C94.6199 80.1463 94.5649 79.2935 94.829 78.5135C95.0931 77.7334 95.655 77.0895 96.392 76.722L98.192 75.822C98.9324 75.4603 99.7858 75.4062 100.566 75.6715C101.346 75.9368 101.99 76.4999 102.356 77.238C102.717 77.9775 102.771 78.83 102.506 79.6092C102.241 80.3883 101.678 81.0307 100.94 81.396Z" fill="#FEE567"/>
<path d="M98.636 90.054C98.636 90.054 102.332 89.208 100.76 83.802C100.701 83.594 100.691 83.3753 100.73 83.1626C100.769 82.95 100.856 82.7491 100.985 82.5754C101.113 82.4016 101.28 82.2596 101.472 82.1602C101.664 82.0608 101.876 82.0067 102.092 82.002C106.256 81.888 110.15 81.018 109.598 78.606C108.908 75.558 98.534 73.206 96.65 79.308C92.972 80.166 92.834 87.414 98.636 90.054Z" fill="#263238"/>
<path d="M98.654 88.986C99.7075 89.3505 100.704 89.8637 101.612 90.51C101.09 89.25 100.622 88.476 98.654 88.986Z" fill="#263238"/>
<path d="M99.26 89.196C100.113 89.0262 100.986 88.9777 101.852 89.052C101.006 88.41 100.388 88.08 99.26 89.196Z" fill="#263238"/>
<path d="M96.26 90.2461C96.7392 91.15 97.5568 91.8273 98.534 92.1301C99.836 92.5201 100.508 91.3681 100.172 90.1261C99.866 89.0101 98.822 87.4681 97.508 87.6181C97.2221 87.6576 96.9506 87.7676 96.7179 87.9382C96.4851 88.1088 96.2985 88.3346 96.1747 88.5952C96.0509 88.8559 95.9939 89.1433 96.0088 89.4314C96.0237 89.7196 96.11 89.9996 96.26 90.2461Z" fill="#FFBE9D"/>
<path d="M105.776 86.0519C105.86 86.4719 106.154 86.7719 106.424 86.7179C106.694 86.6639 106.856 86.2739 106.778 85.8539C106.7 85.4339 106.4 85.1339 106.124 85.1879C105.848 85.2419 105.692 85.6259 105.776 86.0519Z" fill="#263238"/>
<path d="M110.546 85.1099C110.63 85.5359 110.918 85.8299 111.194 85.7759C111.47 85.7219 111.626 85.3379 111.542 84.9179C111.458 84.4979 111.17 84.1979 110.894 84.2519C110.618 84.3059 110.462 84.6899 110.546 85.1099Z" fill="#263238"/>
<path d="M110.78 84.2999L111.734 83.8079C111.734 83.8079 111.368 84.7019 110.78 84.2999Z" fill="#263238"/>
<path d="M108.908 86.166C109.473 87.0555 110.157 87.8631 110.942 88.566C110.759 88.7666 110.534 88.9243 110.283 89.028C110.032 89.1317 109.761 89.1788 109.49 89.166L108.908 86.166Z" fill="#ED847E"/>
<path d="M107.54 91.152C106.652 91.1634 105.794 90.835 105.14 90.234C105.121 90.2139 105.11 90.187 105.11 90.159C105.11 90.131 105.121 90.1041 105.14 90.084C105.16 90.0646 105.187 90.0537 105.215 90.0537C105.243 90.0537 105.27 90.0646 105.29 90.084C105.694 90.44 106.176 90.6957 106.697 90.8302C107.219 90.9647 107.764 90.9742 108.29 90.858C108.317 90.8532 108.345 90.8594 108.367 90.8751C108.39 90.8909 108.405 90.9149 108.41 90.942C108.415 90.969 108.409 90.9969 108.393 91.0194C108.377 91.0419 108.353 91.0572 108.326 91.062C108.068 91.12 107.804 91.1502 107.54 91.152Z" fill="#263238"/>
<path d="M102.914 84.414C102.876 84.4124 102.839 84.4022 102.806 84.384C102.758 84.3553 102.724 84.3089 102.71 84.2549C102.697 84.2009 102.705 84.1437 102.734 84.096C102.932 83.7589 103.209 83.474 103.539 83.2653C103.87 83.0565 104.246 82.9299 104.636 82.896C104.691 82.8959 104.744 82.917 104.785 82.955C104.825 82.9929 104.849 83.0448 104.852 83.1C104.853 83.1276 104.848 83.155 104.838 83.1808C104.828 83.2066 104.814 83.2302 104.795 83.2503C104.776 83.2703 104.753 83.2865 104.728 83.2977C104.703 83.309 104.676 83.3152 104.648 83.316C104.326 83.3514 104.017 83.4629 103.747 83.6413C103.477 83.8197 103.253 84.0599 103.094 84.342C103.072 84.3676 103.044 84.3875 103.013 84.4C102.981 84.4125 102.948 84.4173 102.914 84.414Z" fill="#263238"/>
<path d="M111.872 82.7219C111.839 82.7308 111.803 82.7308 111.77 82.7219C111.49 82.5569 111.175 82.46 110.851 82.4392C110.527 82.4183 110.203 82.4741 109.904 82.6019C109.851 82.6289 109.789 82.6337 109.732 82.6151C109.675 82.5966 109.628 82.5562 109.601 82.5029C109.574 82.4496 109.569 82.3877 109.588 82.3309C109.606 82.2741 109.647 82.2269 109.7 82.1999C110.059 82.0371 110.453 81.9635 110.846 81.9855C111.24 82.0074 111.623 82.1242 111.962 82.3259C111.986 82.339 112.007 82.3568 112.024 82.3782C112.041 82.3996 112.053 82.4241 112.061 82.4504C112.068 82.4767 112.07 82.5042 112.066 82.5312C112.063 82.5583 112.054 82.5843 112.04 82.6079C112.025 82.6403 112.001 82.668 111.972 82.6881C111.942 82.7081 111.908 82.7198 111.872 82.7219Z" fill="#263238"/>
<path d="M99.866 141.936L104.666 142.272L102.5 147.402C102.5 147.402 98.492 146.136 98.33 143.202L99.866 141.936Z" fill="#FFBE9D"/>
<path d="M106.508 145.176L104.186 148.68L102.506 147.402L104.684 142.272L106.508 145.176Z" fill="#FFBE9D"/>
<path d="M106.01 85.2359L106.964 84.7439C106.964 84.7439 106.598 85.6379 106.01 85.2359Z" fill="#263238"/>
</g>
<defs>
<clipPath id="clip0_334_6274">
<rect width="300" height="300" fill="white" transform="translate(0.5)"/>
</clipPath>
</defs>
</svg>