<svg xmlns="http://www.w3.org/2000/svg" fill="none" viewBox="4.61 4.6 27.79 27.79">
<path d="M20.6705 4.60107C19.1455 4.60107 17.8855 5.86015 17.8855 7.38419V8.30696C17.8855 9.831 19.1465 11.0845 20.6705 11.0845H22.1547V12.7929H10.2876C8.76167 12.7929 7.45812 13.9603 7.32749 15.4945L6.46309 25.644C5.38746 26.0294 4.60645 27.0559 4.60645 28.2566V29.6176C4.60645 31.1417 5.85903 32.3952 7.38215 32.3952H29.6156C31.1406 32.3952 32.4006 31.1408 32.4006 29.6176V28.2566C32.4006 27.055 31.6121 26.0276 30.5347 25.6421L29.6693 15.4945C29.5378 13.9603 28.2342 12.7698 26.7093 12.7929H24.0077V11.0845H25.4984C27.0224 11.0845 28.2741 9.83008 28.2741 8.30696V7.38419C28.2741 5.86015 27.0205 4.60107 25.4984 4.60107H20.6705ZM20.6705 6.45402H25.4984C26.0264 6.45402 26.4211 6.85518 26.4211 7.38419V8.30696C26.4211 8.83597 26.0264 9.23157 25.4984 9.23157H23.0849H20.6714C20.1434 9.23157 19.7413 8.83597 19.7413 8.30696V7.38419C19.7413 6.85518 20.1415 6.45402 20.6705 6.45402ZM13.4348 16.2672H15.1376C16.6617 16.2672 17.9208 17.5216 17.9208 19.0448V20.843C17.9208 22.3671 16.6617 23.6187 15.1376 23.6187H13.4348C11.9107 23.6187 10.6517 22.3652 10.6517 20.843V19.0448C10.6517 17.5207 11.9107 16.2672 13.4348 16.2672ZM20.7595 17.3345H24.4042C24.9184 17.3326 25.3362 17.7495 25.3344 18.2647C25.3325 18.7761 24.9165 19.1893 24.4042 19.1874H20.7595C20.2471 19.1893 19.8311 18.7761 19.8293 18.2647C19.8274 17.7495 20.2453 17.3326 20.7595 17.3345ZM13.4348 18.1201C12.9058 18.1201 12.5046 18.5157 12.5046 19.0448V20.843C12.5046 21.3711 12.9058 21.7658 13.4348 21.7658H15.1376C15.6667 21.7658 16.0678 21.3711 16.0678 20.843V19.0448C16.0678 18.5157 15.6667 18.1201 15.1376 18.1201H13.4348ZM20.7595 21.158H24.4042C24.9184 21.1562 25.3362 21.5731 25.3344 22.0882C25.3325 22.6005 24.9165 23.0128 24.4042 23.011H20.7595C20.2471 23.0128 19.8311 22.6005 19.8293 22.0882C19.8274 21.5731 20.2453 21.1562 20.7595 21.158ZM7.38215 27.3265H29.6156C30.1446 27.3265 30.5458 27.7276 30.5458 28.2566V29.6176C30.5458 30.1467 30.1446 30.5423 29.6156 30.5423H7.38215C6.85314 30.5423 6.45939 30.1467 6.45939 29.6176V28.2566C6.45939 27.7276 6.85221 27.3265 7.38215 27.3265Z" fill="#FBAA19"/>
<path d="M12.5049 19.0447C12.5049 18.5157 12.906 18.1201 13.4351 18.1201H15.1379C15.6669 18.1201 16.0681 18.5157 16.0681 19.0447V20.843C16.0681 21.3711 15.6669 21.7658 15.1379 21.7658H13.4351C12.906 21.7658 12.5049 21.3711 12.5049 20.843V19.0447Z" fill="#009A46"/>
</svg>