<svg width="14" height="14" viewBox="0 0 14 14" fill="none" xmlns="http://www.w3.org/2000/svg">
<path d="M6.99976 0.394089C5.71418 0.394089 4.45747 0.775307 3.38855 1.48954C2.31963 2.20377 1.48651 3.21893 0.994542 4.40665C0.502572 5.59437 0.373851 6.9013 0.624654 8.16218C0.875458 9.42305 1.49452 10.5812 2.40356 11.4903C3.31261 12.3993 4.4708 13.0184 5.73167 13.2692C6.99255 13.52 8.29948 13.3913 9.4872 12.8993C10.6749 12.4073 11.6901 11.5742 12.4043 10.5053C13.1185 9.43638 13.4998 8.17967 13.4998 6.89409C13.4979 5.17074 12.8125 3.5185 11.5939 2.2999C10.3754 1.08131 8.72311 0.395909 6.99976 0.394089ZM10.4998 7.39409H6.99976C6.86715 7.39409 6.73997 7.34141 6.64621 7.24764C6.55244 7.15387 6.49976 7.0267 6.49976 6.89409V3.39409C6.49976 3.26148 6.55244 3.1343 6.64621 3.04054C6.73997 2.94677 6.86715 2.89409 6.99976 2.89409C7.13237 2.89409 7.25954 2.94677 7.35331 3.04054C7.44708 3.1343 7.49976 3.26148 7.49976 3.39409V6.39409H10.4998C10.6324 6.39409 10.7595 6.44677 10.8533 6.54054C10.9471 6.6343 10.9998 6.76148 10.9998 6.89409C10.9998 7.0267 10.9471 7.15387 10.8533 7.24764C10.7595 7.34141 10.6324 7.39409 10.4998 7.39409Z" fill="#E02020"/>
</svg>
