<svg xmlns="http://www.w3.org/2000/svg" fill="none" viewBox="2.33 2.33 23.33 23.33">
<path d="M13.9885 2.33398C7.5485 2.33398 2.3335 7.56065 2.3335 14.0007C2.3335 20.4407 7.5485 25.6673 13.9885 25.6673C20.4402 25.6673 25.6668 20.4407 25.6668 14.0007C25.6668 7.56065 20.4402 2.33398 13.9885 2.33398ZM14.0002 23.334C8.8435 23.334 4.66683 19.1573 4.66683 14.0007C4.66683 8.84398 8.8435 4.66732 14.0002 4.66732C19.1568 4.66732 23.3335 8.84398 23.3335 14.0007C23.3335 19.1573 19.1568 23.334 14.0002 23.334Z" fill="#404040"/>
<path d="M14.5835 8.16602H12.8335V15.166L18.9585 18.841L19.8335 17.406L14.5835 14.291V8.16602Z" fill="#404040"/>
</svg>