<svg width="31" height="30" viewBox="0 0 31 30" fill="none" xmlns="http://www.w3.org/2000/svg">
<g id="Cart">
<rect x="1.12598" y="0.5" width="29" height="29" rx="4.5" fill="#EBEBEB"/>
<path id="Vector" d="M20.5778 17.2225C19.6626 17.2225 18.8465 17.6586 18.3245 18.3326L13.9533 15.891C14.0557 15.5969 14.1119 15.2797 14.1119 14.9526C14.1119 14.6222 14.0557 14.3084 13.95 14.011L18.3179 11.5727C18.8366 12.25 19.656 12.6894 20.5745 12.6894C22.1405 12.6894 23.4192 11.4141 23.4192 9.84471C23.4192 8.27533 22.1438 7 20.5745 7C19.0051 7 17.7297 8.27533 17.7297 9.84471C17.7297 10.1751 17.7859 10.4923 17.8916 10.7863L13.5271 13.2247C13.0084 12.5441 12.189 12.1079 11.2705 12.1079C9.70442 12.1079 8.42578 13.3833 8.42578 14.9526C8.42578 16.522 9.70442 17.7974 11.2738 17.7974C12.1923 17.7974 13.0117 17.3579 13.5337 16.6773L17.9016 19.1189C17.7958 19.4163 17.7364 19.7368 17.7364 20.0672C17.7364 21.6333 19.0117 22.9119 20.5811 22.9119C22.1505 22.9119 23.4258 21.6366 23.4258 20.0672C23.4258 18.4978 22.1471 17.2225 20.5778 17.2225ZM20.5778 7.89537C21.6549 7.89537 22.5304 8.77093 22.5304 9.84802C22.5304 10.9251 21.6549 11.8007 20.5778 11.8007C19.5007 11.8007 18.6251 10.9251 18.6251 9.84802C18.6251 8.77093 19.504 7.89537 20.5778 7.89537ZM11.2738 16.9053C10.1967 16.9053 9.32116 16.0297 9.32116 14.9526C9.32116 13.8756 10.1967 13 11.2738 13C12.3509 13 13.2264 13.8756 13.2264 14.9526C13.2264 16.0297 12.3476 16.9053 11.2738 16.9053ZM20.5778 22.0165C19.5007 22.0165 18.6251 21.141 18.6251 20.0639C18.6251 18.9868 19.5007 18.1112 20.5778 18.1112C21.6549 18.1112 22.5304 18.9868 22.5304 20.0639C22.5304 21.141 21.6549 22.0165 20.5778 22.0165Z" fill="black"/>
<rect x="1.12598" y="0.5" width="29" height="29" rx="4.5" stroke="#EBEBEB"/>
</g>
</svg>
