<svg xmlns="http://www.w3.org/2000/svg" fill="none" viewBox="14.66 13.1 148.68 154.9">
<path d="M34.2574 125.157C32.2806 123.915 30.0446 123.145 27.7225 122.905C26.6605 122.796 25.4888 122.827 24.6321 123.475C24.5326 123.531 24.4502 123.613 24.3941 123.712C24.3379 123.811 24.31 123.924 24.3135 124.038C24.3621 124.2 24.4695 124.337 24.6144 124.424C27.273 126.452 31.2979 126.711 34.2574 125.157Z" fill="#E0E0E0"/>
<path d="M34.0909 124.962C32.5811 123.853 31.1725 122.613 29.8818 121.256C28.5805 119.888 27.6666 118.198 27.2339 116.36C27.1206 115.804 27.0852 115.167 27.4428 114.724C30.8093 117.351 33.4608 120.742 34.1015 124.969" fill="#E0E0E0"/>
<path d="M34.2252 125.128C33.9704 123.288 33.8712 121.397 34.3031 119.588C34.735 117.779 35.7191 116.048 37.2555 115.015C37.836 116.374 37.5847 117.939 37.1776 119.358C36.5414 121.557 35.5527 123.639 34.25 125.521" fill="#E0E0E0"/>
<path d="M37.5208 131.04C35.5207 131.284 33.7755 132.339 32.2816 133.695C30.776 135.061 29.7289 136.859 29.2832 138.842C31.2479 138.718 32.9117 137.334 34.1224 135.78C35.3331 134.226 36.1685 132.523 37.496 131.072" fill="#E0E0E0"/>
<path d="M38.2393 131.985C37.4502 129.984 37.1735 127.817 37.4344 125.682C37.6953 123.547 38.4855 121.511 39.7332 119.758C40.8731 123.815 40.4412 128.399 38.2393 131.985Z" fill="#E0E0E0"/>
<path d="M42.5972 137.175C40.7681 137.06 38.9456 137.485 37.3563 138.398C35.767 139.31 34.4812 140.67 33.6587 142.308C33.5489 142.527 33.4498 142.811 33.5985 143.016C33.6765 143.09 33.7712 143.145 33.8747 143.175C33.9782 143.205 34.0874 143.21 34.1932 143.189C35.9632 143.076 37.5137 142.014 38.7952 140.811C40.0767 139.607 41.206 138.209 42.629 137.164" fill="#E0E0E0"/>
<path d="M42.4594 136.895C41.521 133.874 41.4632 130.648 42.293 127.596C42.6187 126.396 43.1709 125.135 44.2754 124.576C44.3195 124.546 44.3695 124.526 44.4219 124.517C44.4744 124.508 44.5282 124.51 44.5798 124.523C44.6704 124.569 44.7391 124.649 44.771 124.746C45.1442 125.582 45.3059 126.498 45.2418 127.412C45.1753 128.322 45.0356 129.225 44.8241 130.113C44.4701 131.766 44.2895 133.539 43.3833 134.962C43.1689 135.304 42.9762 135.659 42.8063 136.024C42.6364 136.378 42.6364 136.513 42.4771 136.8" fill="#E0E0E0"/>
<path d="M53.9964 138.612C53.1433 135.362 54.0495 131.419 56.0992 128.753C56.2479 128.559 56.4532 128.346 56.6939 128.371C57.0727 128.406 57.1718 128.909 57.1541 129.288C56.9982 132.631 55.9038 135.862 53.9964 138.612Z" fill="#E0E0E0"/>
<path d="M55.0369 139.324C58.9875 140.35 63.5329 139.352 66.8038 136.931C64.8341 135.941 62.5824 135.665 60.4318 136.148C58.3078 136.637 56.3608 137.589 55.0369 139.334" fill="#E0E0E0"/>
<path d="M55.9153 137.157C58.1278 133.55 62.3687 131.196 66.5955 130.984C66.1069 132.701 64.6945 134.039 63.1015 134.846C61.5085 135.653 59.7279 136.003 57.9756 136.343C57.2923 136.478 56.3578 136.623 55.9153 137.157Z" fill="#E0E0E0"/>
<path d="M54.2156 126.654C54.8139 124.601 55.4157 122.53 55.5821 120.399C55.7484 118.268 55.444 116.041 54.336 114.211C52.2686 118.211 52.0598 122.884 54.1554 126.867" fill="#E0E0E0"/>
<path d="M61.1755 123.135C63.5898 118.746 68.521 115.238 73.5089 114.746C71.5867 119.535 66.3369 123.242 61.1755 123.135Z" fill="#E0E0E0"/>
<path d="M59.6533 123.999C63.257 124.548 66.3298 126.849 69.6963 128.247C70.403 128.588 71.1864 128.738 71.969 128.683C72.3342 128.682 72.6901 128.568 72.988 128.356C73.2859 128.145 73.5111 127.847 73.6329 127.503C73.7546 127.158 73.7669 126.785 73.668 126.433C73.5691 126.082 73.3639 125.769 73.0805 125.539C72.6037 125.097 72.0426 124.757 71.4309 124.537C67.7599 123.008 63.827 122.969 59.9719 123.9" fill="#E0E0E0"/>
<path d="M57.568 126.527C58.3822 126.76 58.6619 127.182 59.3097 127.73C61.5129 129.604 64.1186 130.944 66.9242 131.646C67.2145 131.716 67.5968 131.745 67.742 131.483C67.8871 131.221 67.7066 130.976 67.5437 130.775C66.3189 129.338 64.7289 128.26 62.9417 127.652C61.1717 126.998 59.6601 126.208 57.5645 126.378" fill="#E0E0E0"/>
<path d="M55.2139 111.259C56.6916 112.621 58.4379 113.659 60.3406 114.307C62.2433 114.954 64.2603 115.196 66.2622 115.018C66.4472 115.021 66.6271 114.957 66.7684 114.838C67.0445 114.533 66.7118 114.066 66.3861 113.815C63.1399 111.28 59.2034 110.232 55.2139 111.259Z" fill="#E0E0E0"/>
<path d="M58.0034 110.236C59.9603 108.798 62.2295 107.843 64.6258 107.449C67.0221 107.055 69.4776 107.234 71.7917 107.97C70.0571 109.68 67.6464 110.6 65.2215 110.852C62.7984 111.075 60.3549 110.868 58.0034 110.243" fill="#E0E0E0"/>
<path d="M56.8955 103.219C56.5769 99.9768 56.7822 97.4173 56.5592 94.1605C56.5415 93.8986 56.4848 93.5871 56.2406 93.4915C55.8866 93.3641 55.6175 93.7782 55.5078 94.1252C55.0352 95.6352 54.9142 97.2333 55.1541 98.7973C55.394 100.361 55.9885 101.85 56.8919 103.149" fill="#E0E0E0"/>
<path d="M56.6619 103.58C58.8602 102.221 60.5099 100.444 62.0321 98.3589C63.094 96.9075 63.9897 95.1729 63.7489 93.3852C62.2586 93.3569 60.8426 94.1782 59.8726 95.311C58.9027 96.4438 58.3292 97.8563 57.8973 99.2829C57.4654 100.709 57.1681 102.175 56.6619 103.58Z" fill="#E0E0E0"/>
<path d="M61.9396 102.111C66.7749 100.325 71.2516 97.687 75.1579 94.3233C73.5791 93.6897 71.7702 94.0685 70.2019 94.7057C66.5982 96.1641 63.6494 98.6209 61.8794 102.083" fill="#E0E0E0"/>
<path d="M58.1448 105.354C60.5874 105.619 63.0654 105.793 65.4867 105.389C67.9081 104.986 70.1135 104.048 72.3402 103.113C72.5332 103.056 72.6984 102.93 72.8039 102.759C72.839 102.656 72.8419 102.544 72.8122 102.439C72.7825 102.334 72.7216 102.241 72.6375 102.171C72.4664 102.037 72.2665 101.944 72.0534 101.899C69.6356 101.223 67.0266 101.545 64.6478 102.341C62.3808 103.116 60.2013 104.125 58.1448 105.354Z" fill="#E0E0E0"/>
<path d="M44.2121 111.368C42.5483 108.009 42.6545 104.087 44.0953 100.621C45.1078 102.164 45.2317 104.129 45.044 105.966C44.8564 107.804 44.3006 109.69 44.2652 111.535" fill="#E0E0E0"/>
<path d="M37.5599 108.012C35.4755 107.986 33.4084 108.394 31.4908 109.211C29.5731 110.029 27.8471 111.237 26.4231 112.76C28.4975 113.085 30.6357 112.551 32.5225 111.627C34.4093 110.703 36.0873 109.414 37.7476 108.129" fill="#E0E0E0"/>
<path d="M33.0888 106.519C31.0568 106.352 29.0992 106.101 27.1451 106.703C25.191 107.305 23.4104 108.678 22.6104 110.544C24.5305 110.697 26.4564 110.33 28.1859 109.482C29.9045 108.637 31.5452 107.642 33.0888 106.508" fill="#E0E0E0"/>
<path d="M39.7092 106.586C37.8826 105.389 36.0028 104.168 33.8718 103.672C31.7407 103.177 29.2698 103.541 27.79 105.149C29.514 106.158 31.6062 106.278 33.6027 106.278C35.5993 106.278 38.0525 106.253 39.9393 106.919" fill="#E0E0E0"/>
<path d="M39.7195 106.685C36.5937 103.612 35.4078 98.097 36.6645 93.8986C39.1345 97.6776 40.2144 102.198 39.7195 106.685Z" fill="#E0E0E0"/>
<path d="M48.3218 97.9837C48.9094 96.6101 49.3271 95.1729 49.8546 93.7746C50.3385 92.364 51.0803 91.0556 52.0423 89.916C53.0199 88.7648 54.4108 88.0439 55.9151 87.9088C55.4335 90.0246 54.5161 92.0167 53.2215 93.7581C51.9269 95.4995 50.2835 96.9519 48.3961 98.0226" fill="#E0E0E0"/>
<path d="M46.764 99.7962C45.7869 98.451 44.6612 96.6102 43.3372 95.626C42.0133 94.6419 40.2893 94.0153 38.675 94.4012C39.5114 95.8671 40.678 97.1179 42.0821 98.0544C43.4862 98.9909 45.0892 99.5872 46.764 99.7962Z" fill="#E0E0E0"/>
<path d="M47.0755 98.0934C46.4348 96.4685 45.7905 94.826 45.5321 93.0985C45.2736 91.3709 45.4329 89.5231 46.3144 88.0186C48.0313 91.2612 48.5835 94.7446 47.164 98.1323" fill="#E0E0E0"/>
<path d="M48.3354 88.0185C49.3089 84.8007 52.2542 82.4324 55.4331 81.3456C55.8275 81.1843 56.2548 81.1199 56.6792 81.158C56.8911 81.1789 57.0918 81.2629 57.2553 81.3993C57.4188 81.5356 57.5375 81.718 57.5961 81.9226C57.7129 82.4713 57.2598 82.9599 56.835 83.3386C54.3486 85.4604 51.4586 87.0571 48.339 88.0327" fill="#E0E0E0"/>
<path d="M48.3713 85.3849C48.4952 83.3104 48.6262 81.2077 49.2988 79.243C49.9714 77.2783 51.2741 75.434 53.1645 74.5737C53.4866 76.6694 52.5627 78.7509 51.4476 80.5563C50.3325 82.3617 48.9908 84.0609 48.3218 86.0716" fill="#E0E0E0"/>
<path d="M48.3217 86.8151C47.5181 84.468 47.4332 81.5051 46.0313 79.4483C45.0472 78.0323 43.4754 77.0482 42.6329 75.5366C42.1209 76.987 42.1907 78.5793 42.8276 79.9793C43.4669 81.3623 44.3467 82.6209 45.426 83.6963C46.4667 84.8043 47.3553 85.6398 48.3217 86.8151Z" fill="#E0E0E0"/>
<path d="M48.3356 155.859C48.2755 155.859 48.2188 140.219 48.2153 120.93C48.2117 101.641 48.2578 85.9973 48.3215 85.9973C48.3852 85.9973 48.4383 101.633 48.4418 120.93C48.4454 140.227 48.3994 155.859 48.3356 155.859Z" fill="#E0E0E0"/>
<path d="M62.0037 109.007C61.8163 109.102 61.6193 109.177 61.4161 109.23L59.7983 109.776C58.4319 110.239 56.5592 110.912 54.5237 111.747C52.4882 112.583 50.6085 113.312 49.5288 114.25C49.0973 114.611 48.7535 115.065 48.5234 115.578C48.3677 115.932 48.3429 116.169 48.3216 116.165C48.3108 116.111 48.3108 116.056 48.3216 116.002C48.3443 115.847 48.3822 115.694 48.4349 115.546C48.6402 115 48.977 114.514 49.4155 114.13C50.0675 113.577 50.7975 113.124 51.582 112.785C52.4493 112.381 53.4122 111.956 54.4317 111.538C56.4707 110.703 58.3611 110.052 59.7417 109.623C60.432 109.407 60.9948 109.248 61.3842 109.145C61.5861 109.081 61.7935 109.034 62.0037 109.007Z" fill="#E0E0E0"/>
<path d="M66.4849 98.005C66.4347 98.0676 66.379 98.1256 66.3185 98.1784L65.8159 98.6528L63.9432 100.352L57.7057 105.906C55.2737 108.073 53.171 110.154 51.7125 111.701C50.9833 112.48 50.4062 113.117 50.0133 113.577L49.5602 114.094C49.5125 114.158 49.4565 114.215 49.3938 114.264C49.4283 114.192 49.4724 114.126 49.5248 114.066C49.6204 113.938 49.7584 113.751 49.946 113.521C50.3 113.05 50.8771 112.388 51.5957 111.595C53.4776 109.538 55.4675 107.582 57.557 105.736C59.9996 103.577 62.2228 101.633 63.837 100.235L65.7592 98.5855L66.2902 98.1466C66.4106 98.0581 66.4778 97.9979 66.4849 98.005Z" fill="#E0E0E0"/>
<path d="M55.0794 108.108C55.0157 108.08 55.5254 106.908 56.0316 105.421C56.5379 103.934 56.7821 102.685 56.8494 102.695C56.9166 102.706 56.7644 103.991 56.2441 105.496C56.0263 106.135 55.7746 106.763 55.49 107.375C55.3903 107.639 55.2519 107.886 55.0794 108.108Z" fill="#E0E0E0"/>
<path d="M48.3498 117.578C48.2124 117.443 48.0868 117.298 47.9745 117.142L47.0152 115.907C46.2081 114.866 45.093 113.429 43.8292 111.85C42.5654 110.271 41.4291 108.858 40.5972 107.835L39.613 106.621C39.4767 106.48 39.3578 106.323 39.259 106.154C39.4052 106.278 39.5402 106.414 39.6626 106.561C39.9139 106.834 40.2679 107.234 40.6998 107.733C41.5671 108.731 42.7353 110.129 43.9885 111.708C45.2416 113.287 46.339 114.742 47.1143 115.811C47.5002 116.346 47.8223 116.781 48.017 117.089C48.1467 117.238 48.2583 117.402 48.3498 117.578Z" fill="#E0E0E0"/>
<path d="M45.3551 113.73C45.3162 113.768 44.5161 112.82 44.0984 111.379C43.8632 110.612 43.7673 109.808 43.8152 109.007H43.9143C43.8683 109.188 43.8364 109.283 43.8187 109.28C43.801 109.276 43.801 109.177 43.8187 108.99H43.9179C43.9664 109.771 44.1006 110.545 44.3179 111.298C44.7179 112.71 45.4153 113.691 45.3551 113.73Z" fill="#E0E0E0"/>
<path d="M41.4854 108.862C41.2155 108.656 40.9205 108.484 40.6075 108.352C39.8194 108.118 38.9908 108.052 38.1755 108.158C37.3482 108.222 36.5276 108.354 35.7223 108.554C35.3922 108.658 35.055 108.739 34.7134 108.795C35.0155 108.619 35.3408 108.487 35.6798 108.402C36.4852 108.152 37.3167 107.995 38.1578 107.935C39.0039 107.821 39.8648 107.914 40.6677 108.204C41.0075 108.323 41.2961 108.556 41.4854 108.862Z" fill="#E0E0E0"/>
<path d="M40.5691 107.683C40.5691 107.719 40.0558 107.478 39.2239 107.195C38.1408 106.826 37.0158 106.594 35.8751 106.504C34.7336 106.421 33.5862 106.48 32.459 106.678C31.5917 106.834 31.0677 106.993 31.043 106.958C31.1525 106.889 31.2719 106.838 31.397 106.805C31.7287 106.688 32.0682 106.593 32.4129 106.522C33.5498 106.271 34.7177 106.188 35.8786 106.278C37.0391 106.367 38.1803 106.624 39.2664 107.043C39.5947 107.168 39.915 107.314 40.2257 107.478C40.3501 107.528 40.4659 107.598 40.5691 107.683Z" fill="#E0E0E0"/>
<path d="M48.3216 102.695C48.2614 102.695 47.8224 101.187 47.341 99.2935C46.8596 97.3996 46.5197 95.8491 46.5799 95.8349C46.6401 95.8208 47.079 97.343 47.5605 99.2369C48.0419 101.131 48.3818 102.678 48.3216 102.695Z" fill="#E0E0E0"/>
<path d="M48.3818 102.695C48.3145 102.717 48.0278 101.697 47.2986 100.656C46.8383 100.041 46.3005 99.4878 45.6985 99.0103C45.9275 99.0636 46.14 99.1717 46.318 99.3253C46.7703 99.6591 47.1639 100.066 47.4826 100.529C48.2473 101.598 48.4384 102.692 48.3818 102.695Z" fill="#E0E0E0"/>
<path d="M48.3359 147.522C48.3111 147.522 48.2651 147.144 48.0881 146.482C47.8257 145.546 47.4699 144.638 47.0261 143.773C45.9641 141.565 43.9817 138.764 41.4825 135.961C40.2435 134.545 39.0434 133.21 38.0239 131.936C37.1072 130.812 36.2788 129.619 35.5459 128.367C35.0543 127.522 34.6362 126.636 34.2963 125.719C34.183 125.394 34.098 125.139 34.052 124.962C34.0207 124.875 33.9993 124.785 33.9883 124.693C34.0095 124.693 34.1228 125.047 34.3812 125.688C34.7487 126.586 35.1842 127.454 35.6839 128.286C36.431 129.518 37.2663 130.694 38.1832 131.805C39.2062 133.069 40.4098 134.396 41.6488 135.812C44.1552 138.623 46.1163 141.476 47.1677 143.703C47.5934 144.584 47.9245 145.509 48.1554 146.46C48.2262 146.814 48.2757 147.062 48.2934 147.243C48.3172 147.334 48.3314 147.428 48.3359 147.522Z" fill="#E0E0E0"/>
<path d="M60.6796 133.571C60.4709 133.702 60.2546 133.821 60.0317 133.925C59.4465 134.254 58.8857 134.624 58.3538 135.033C57.568 135.646 56.8306 136.318 56.1484 137.044C55.3731 137.862 54.5766 138.814 53.7624 139.83C52.1375 141.869 50.6153 143.675 49.7056 145.119C49.2418 145.827 48.9055 146.436 48.686 146.861C48.583 147.085 48.4647 147.303 48.332 147.512C48.3425 147.448 48.3628 147.386 48.3922 147.328C48.4418 147.211 48.5055 147.038 48.6117 146.822C48.8941 146.211 49.2157 145.62 49.5746 145.052C50.456 143.575 51.9676 141.742 53.5925 139.706C54.4067 138.687 55.2138 137.734 56.0032 136.917C56.699 136.19 57.4545 135.524 58.2617 134.924C58.8075 134.519 59.388 134.164 59.9963 133.862C60.2087 133.752 60.3857 133.685 60.499 133.635C60.5556 133.605 60.6165 133.583 60.6796 133.571Z" fill="#E0E0E0"/>
<path d="M60.9273 138.095C60.4779 138.198 60.0209 138.265 59.5608 138.294C58.4615 138.408 57.3749 138.622 56.3147 138.934C55.2675 139.275 54.2858 139.791 53.4119 140.46C52.7393 140.977 52.4242 141.405 52.3923 141.381C52.4423 141.265 52.5118 141.158 52.5977 141.065C52.8085 140.799 53.0457 140.555 53.3057 140.336C54.1724 139.614 55.1699 139.065 56.2439 138.718C57.3166 138.399 58.4224 138.205 59.5396 138.138C59.9999 138.082 60.4644 138.067 60.9273 138.095Z" fill="#E0E0E0"/>
<path d="M52.7927 140.892C52.7219 140.853 53.3379 139.911 53.8158 138.644C54.2937 137.377 54.3715 136.244 54.453 136.258C54.4844 136.502 54.476 136.75 54.4282 136.991C54.3604 137.581 54.2262 138.162 54.0282 138.722C53.8211 139.277 53.5553 139.809 53.2352 140.308C52.9909 140.68 52.8175 140.892 52.7927 140.892Z" fill="#E0E0E0"/>
<path d="M64.6872 121.422C64.6184 121.469 64.5448 121.508 64.4677 121.539L63.827 121.829C63.5438 121.949 63.2004 122.105 62.8181 122.307C62.4358 122.509 61.9791 122.711 61.5083 122.994L60.7613 123.419C60.5029 123.567 60.248 123.744 59.9755 123.914C59.4268 124.247 58.8745 124.658 58.2869 125.079C55.7659 126.952 53.5671 129.224 51.7768 131.805C51.3803 132.407 50.9874 132.973 50.6723 133.536C50.5095 133.812 50.3431 134.074 50.2015 134.339L49.805 135.101C49.5395 135.578 49.3484 136.035 49.1643 136.428C48.9802 136.821 48.8315 137.168 48.7218 137.455C48.6121 137.741 48.52 137.933 48.4492 138.106C48.4214 138.184 48.3858 138.258 48.343 138.329C48.354 138.248 48.3754 138.168 48.4067 138.092L48.6368 137.423C48.736 137.129 48.8669 136.779 49.0475 136.361C49.228 135.943 49.4015 135.497 49.6634 135.009L50.0493 134.237C50.1874 133.971 50.3502 133.706 50.5095 133.423C50.821 132.853 51.2175 132.279 51.6069 131.653C53.3899 129.035 55.6071 126.741 58.163 124.87C58.7577 124.452 59.317 124.042 59.8763 123.712C60.1525 123.546 60.4109 123.358 60.6764 123.224L61.4339 122.81C61.9118 122.537 62.3685 122.339 62.7614 122.151C63.0972 121.985 63.441 121.837 63.7916 121.705L64.45 121.454C64.5275 121.433 64.6071 121.423 64.6872 121.422Z" fill="#E0E0E0"/>
<path d="M54.9131 127.971C55.0033 127.654 55.1917 127.374 55.4512 127.171C56.0518 126.648 56.8177 126.353 57.6141 126.339C58.3961 126.335 59.1712 126.486 59.8939 126.785C60.2004 126.882 60.4914 127.023 60.7576 127.203C60.4443 127.142 60.1374 127.052 59.8408 126.934C59.1253 126.695 58.3754 126.575 57.6212 126.58C56.8724 126.596 56.1482 126.85 55.5538 127.305C55.3244 127.512 55.1103 127.734 54.9131 127.971Z" fill="#E0E0E0"/>
<path d="M53.4516 129.479C53.3914 129.444 53.9401 128.637 54.0676 127.475C54.195 126.314 53.8623 125.408 53.9295 125.39C54.0607 125.56 54.1483 125.759 54.1844 125.971C54.4461 126.979 54.3198 128.049 53.8304 128.969C53.6428 129.316 53.4729 129.493 53.4516 129.479Z" fill="#E0E0E0"/>
<path d="M37.5352 149.763C37.8715 155.739 39.6592 161.817 42.4416 167.962H54.4776C57.1184 161.881 58.7964 155.81 59.0796 149.763H37.5352Z" fill="#E0E0E0"/>
<path d="M57.1399 159.435C57.1399 159.498 53.1751 159.548 48.2899 159.548C43.4047 159.548 39.4399 159.498 39.4399 159.435C39.4399 159.371 43.4047 159.321 48.2899 159.321C53.1751 159.321 57.1399 159.371 57.1399 159.435Z" fill="#FAFAFA"/>
<path d="M56.8853 161.601C56.8853 161.661 53.1683 161.711 48.5805 161.711C43.9926 161.711 40.2756 161.661 40.2756 161.601C40.2756 161.541 43.9926 161.488 48.5805 161.488C53.1683 161.488 56.8853 161.537 56.8853 161.601Z" fill="#FAFAFA"/>
<path d="M42.626 153.686C42.6897 153.686 42.7393 154.928 42.7393 156.461C42.7393 157.994 42.6897 159.236 42.626 159.236C42.5623 159.236 42.5127 157.994 42.5127 156.461C42.5127 154.928 42.5764 153.686 42.626 153.686Z" fill="#FAFAFA"/>
<path d="M49.0935 153.686C49.1537 153.686 49.2068 154.974 49.2068 156.56C49.2068 158.146 49.1537 159.435 49.0935 159.435C49.0333 159.435 48.9802 158.146 48.9802 156.56C48.9802 154.974 49.0298 153.686 49.0935 153.686Z" fill="#FAFAFA"/>
<path d="M55.15 153.636C55.2137 153.636 55.2633 154.946 55.2633 156.564C55.2633 158.181 55.2137 159.495 55.15 159.495C55.0863 159.495 55.0403 158.185 55.0403 156.564C55.0403 154.942 55.0898 153.636 55.15 153.636Z" fill="#FAFAFA"/>
<path d="M58.7257 153.686C58.7257 153.749 54.0706 153.799 48.3358 153.799C42.601 153.799 37.9424 153.749 37.9424 153.686C37.9424 153.622 42.5939 153.572 48.3358 153.572C54.0777 153.572 58.7257 153.636 58.7257 153.686Z" fill="#FAFAFA"/>
<path d="M47.3769 19.4558H18.9648V49.0715H47.3769V19.4558Z" fill="#E0E0E0"/>
<path d="M45.4506 19.4558H17.0386V49.0715H45.4506V19.4558Z" fill="#FAFAFA"/>
<path d="M45.4579 49.0822H17.0317V19.4489H45.4579V49.0822ZM17.0459 49.0645H45.4579V19.4701H17.0494L17.0459 49.0645Z" fill="#E0E0E0"/>
<path d="M41.6311 23.4384H20.8584V45.0925H41.6311V23.4384Z" fill="white"/>
<path d="M20.8582 45.2377C20.7106 45.455 20.5384 45.6546 20.3449 45.8324C20.0157 46.1864 19.5484 46.6572 19.0245 47.1705C18.5006 47.6838 18.0227 48.144 17.6687 48.4697C17.4898 48.6606 17.2876 48.8283 17.0669 48.9688C17.2141 48.7522 17.3864 48.5538 17.5802 48.3777C17.9094 48.0237 18.3767 47.5493 18.9006 47.036C19.4245 46.5227 19.906 46.059 20.26 45.7333C20.4381 45.5439 20.6391 45.3775 20.8582 45.2377Z" fill="#E0E0E0"/>
<path d="M41.6309 45.1812C41.8485 45.3297 42.0492 45.5019 42.2291 45.6945C42.5831 46.0272 43.0504 46.4945 43.5672 47.0149C44.0841 47.5353 44.5407 48.0202 44.8664 48.3742C45.0557 48.5534 45.2232 48.7542 45.3656 48.9725C45.1476 48.827 44.9479 48.6559 44.7708 48.4627C44.4168 48.1335 43.946 47.6627 43.4292 47.1388C42.9123 46.6149 42.4557 46.1334 42.13 45.7794C41.9407 45.6003 41.7732 45.3995 41.6309 45.1812Z" fill="#E0E0E0"/>
<path d="M41.5637 23.4951C41.7127 23.2788 41.8848 23.0794 42.077 22.9004C42.4098 22.5464 42.8735 22.0755 43.3974 21.5622C43.9214 21.0489 44.3957 20.5887 44.7497 20.2631C44.9283 20.0718 45.1306 19.9041 45.3515 19.7639C45.2053 19.9803 45.0342 20.1787 44.8418 20.3551C44.509 20.7091 44.0417 21.1799 43.5178 21.6968C42.9939 22.2136 42.5124 22.6738 42.1584 22.9995C41.9823 23.1895 41.7824 23.3561 41.5637 23.4951Z" fill="#E0E0E0"/>
<path d="M20.8017 23.5481C20.5843 23.4005 20.3848 23.2282 20.207 23.0348C19.853 22.7055 19.3822 22.2383 18.8689 21.7143C18.3556 21.1904 17.8954 20.7125 17.5697 20.3585C17.3791 20.1806 17.2114 19.9796 17.0706 19.7603C17.288 19.905 17.4866 20.0762 17.6617 20.27C18.0157 20.5992 18.4866 21.0665 19.0034 21.5904C19.5202 22.1144 19.9698 22.5958 20.3238 22.9498C20.5059 23.1299 20.6663 23.3306 20.8017 23.5481Z" fill="#E0E0E0"/>
<path d="M41.5636 45.0925C41.5636 45.0925 41.5636 45.0536 41.5636 44.9863C41.5636 44.9191 41.5636 44.8129 41.5636 44.6854C41.5636 44.4117 41.5636 44.0223 41.5636 43.5172C41.5636 42.4906 41.5636 40.9968 41.5424 39.1029C41.5424 35.3115 41.5176 29.8989 41.5034 23.4384L41.5813 23.5198H20.8688L20.9608 23.4277C20.9608 31.375 20.9608 38.809 20.9608 45.0819L20.8794 45.004L35.8784 45.043L40.0945 45.0642H41.2096H41.4964H41.2096H40.1122L35.9173 45.0855L20.8652 45.1244H20.7874V45.0465C20.7874 38.7736 20.7874 31.3396 20.7874 23.3923V23.364H20.8829H41.5636H41.645V23.4454C41.6273 29.9343 41.6132 35.3575 41.6026 39.1595C41.6026 41.0463 41.6026 42.5331 41.5813 43.5562C41.5813 44.0553 41.5813 44.4412 41.5813 44.7102C41.5813 44.8341 41.5813 44.9297 41.5813 45.004C41.5781 45.034 41.5722 45.0636 41.5636 45.0925Z" fill="#E0E0E0"/>
<path d="M34.7101 30.7981H27.7788V37.7294H34.7101V30.7981Z" fill="#EBEBEB"/>
<path d="M157.12 13.1052H115.836V72.9418H157.12V13.1052Z" fill="#E0E0E0"/>
<path d="M155.049 13.1052H113.766V72.9418H155.049V13.1052Z" fill="#F5F5F5"/>
<path d="M149.92 19.5834H118.895V66.4601H149.92V19.5834Z" fill="white"/>
<path d="M149.92 66.4601C149.92 66.4601 149.92 66.3786 149.92 66.2299C149.92 66.0813 149.92 65.8547 149.92 65.5644C149.92 64.9768 149.92 64.113 149.92 62.9944C149.92 60.7465 149.92 57.4755 149.891 53.3373C149.891 45.0714 149.863 33.3681 149.842 19.5834L149.944 19.686H118.923L119.037 19.5728C119.037 37.2551 119.037 53.5568 119.012 66.4494L118.923 66.3609L141.505 66.407L147.746 66.4282H149.382H149.948H149.399H147.781L141.562 66.453L118.923 66.499H118.835V66.4105C118.835 53.5214 118.835 37.2161 118.81 19.5338V19.4701H118.927H149.948H150.051V19.5728C150.029 33.3788 150.012 45.1139 150.001 53.3939C150.001 57.5216 149.98 60.7854 149.973 63.0262C149.973 64.1378 149.973 64.9945 149.973 65.5786C149.973 65.8618 149.973 66.0813 149.973 66.2299C149.973 66.3786 149.92 66.4601 149.92 66.4601Z" fill="#E0E0E0"/>
<path d="M155.166 13.098C154.95 13.4714 154.704 13.8266 154.43 14.16C153.948 14.8008 153.269 15.6716 152.493 16.6168C151.718 17.562 150.989 18.3868 150.451 18.9886C150.174 19.328 149.867 19.642 149.534 19.9267C149.767 19.5618 150.029 19.2172 150.32 18.8965C150.876 18.2275 151.555 17.3991 152.309 16.4858L154.295 14.0751C154.556 13.7242 154.847 13.3972 155.166 13.098Z" fill="#E0E0E0"/>
<path d="M150.079 66.3077C151.621 68.7603 153.436 71.0309 155.488 73.0762L150.079 66.3077Z" fill="white"/>
<path d="M155.488 73.0762C155.145 72.8222 154.83 72.534 154.546 72.216C153.105 70.7523 151.819 69.1437 150.709 67.4158C150.46 67.0696 150.249 66.6982 150.079 66.3077C150.357 66.6287 150.611 66.9695 150.84 67.3273C151.293 67.968 151.934 68.8424 152.681 69.7734C153.427 70.7044 154.139 71.5434 154.659 72.1098C154.96 72.4097 155.237 72.7329 155.488 73.0762Z" fill="#E0E0E0"/>
<path d="M113.78 72.8921L119.185 66.2228L113.78 72.8921Z" fill="white"/>
<path d="M119.168 66.2227C119.217 66.2617 118.046 67.7839 116.552 69.6282C115.058 71.4725 113.808 72.931 113.762 72.8921C113.716 72.8531 114.884 71.3274 116.378 69.4866C117.872 67.6458 119.122 66.1979 119.168 66.2227Z" fill="#E0E0E0"/>
<path d="M113.78 13.0981C113.829 13.0591 115.005 14.461 116.406 16.2345C117.808 18.0081 118.902 19.4736 118.853 19.5126C117.924 18.5127 117.048 17.4646 116.229 16.3726C115.355 15.3253 114.538 14.2323 113.78 13.0981Z" fill="#E0E0E0"/>
<path d="M140.252 29.1024H129.866V58.5977H140.252V29.1024Z" fill="#E0E0E0"/>
<path d="M132.981 135.582C132.946 135.621 132.666 135.454 132.351 135.203C132.036 134.952 131.813 134.715 131.845 134.672C131.877 134.63 132.16 134.8 132.475 135.051C132.79 135.302 133.013 135.532 132.981 135.582Z" fill="#263238"/>
<path d="M141.519 122.806C141.572 121.613 141.604 120.392 141.229 119.266C140.854 118.14 139.979 117.089 138.811 116.848C137.476 116.572 136.11 117.415 135.359 118.554C134.609 119.694 134.358 121.075 134.135 122.42C132.613 131.694 132.052 141.1 132.46 150.489L137.922 151.253C140.33 141.448 141.084 132.884 141.519 122.806Z" fill="#455A64"/>
<path d="M138.053 116.799C138.053 116.799 138.053 116.831 138.029 116.887C138.004 116.944 137.972 117.032 137.937 117.135C137.848 117.365 137.728 117.68 137.583 118.077C137.508 118.282 137.406 118.505 137.324 118.76L137.059 119.585C136.963 119.882 136.864 120.201 136.754 120.537L136.471 121.617C136.013 123.397 135.659 125.202 135.409 127.022C135.115 129.076 134.92 131.348 134.768 133.748C134.489 138.534 134.446 142.874 134.322 146.014C134.266 147.586 134.212 148.846 134.152 149.735C134.12 150.16 134.099 150.496 134.082 150.744L134.06 151.006C134.064 151.035 134.064 151.065 134.06 151.094C134.055 151.065 134.055 151.035 134.06 151.006C134.06 150.935 134.06 150.847 134.06 150.74C134.06 150.493 134.071 150.156 134.092 149.731C134.131 148.854 134.163 147.583 134.202 146.011C134.29 142.871 134.312 138.531 134.591 133.738C134.743 131.345 134.945 129.065 135.25 127.012C135.505 125.185 135.873 123.377 136.351 121.596L136.644 120.516L136.967 119.567L137.25 118.742C137.335 118.487 137.441 118.268 137.522 118.063C137.692 117.67 137.823 117.355 137.922 117.132L138.029 116.891C138.033 116.859 138.041 116.828 138.053 116.799Z" fill="#263238"/>
<path d="M138.56 116.82C138.845 117.156 139.071 117.538 139.229 117.949C139.648 119.08 139.818 120.287 139.728 121.489C139.583 124.505 139.31 128.661 138.953 133.253C138.595 137.844 138.206 141.954 137.852 144.97C137.689 146.467 137.551 147.682 137.448 148.51C137.395 148.914 137.353 149.236 137.324 149.473C137.324 149.572 137.296 149.653 137.285 149.721C137.285 149.75 137.279 149.779 137.268 149.806C137.263 149.778 137.263 149.749 137.268 149.721L137.285 149.469C137.307 149.229 137.335 148.907 137.374 148.499C137.455 147.643 137.572 146.432 137.728 144.959C138.015 141.957 138.393 137.805 138.754 133.217C139.116 128.629 139.406 124.47 139.586 121.461C139.688 120.278 139.541 119.086 139.154 117.963C138.992 117.565 138.793 117.182 138.56 116.82Z" fill="#263238"/>
<path d="M142.344 130.934C141.986 130.906 141.636 130.815 141.31 130.665C140.963 130.574 140.634 130.422 140.34 130.215C140.698 130.239 141.049 130.329 141.374 130.481C141.722 130.571 142.051 130.725 142.344 130.934Z" fill="#263238"/>
<path d="M143.003 125.369C142.377 125.789 141.684 126.099 140.953 126.286C141.577 125.862 142.271 125.552 143.003 125.369Z" fill="#263238"/>
<path d="M142.659 120.827C142.395 120.903 142.116 120.918 141.845 120.87C141.399 120.838 141.041 120.771 141.045 120.714C141.31 120.638 141.588 120.624 141.859 120.675C142.134 120.662 142.408 120.714 142.659 120.827Z" fill="#263238"/>
<path d="M137.027 117.917C136.981 117.946 136.741 117.648 136.493 117.252C136.245 116.855 136.079 116.512 136.139 116.484C136.199 116.455 136.422 116.753 136.67 117.149C136.918 117.546 137.073 117.882 137.027 117.917Z" fill="#263238"/>
<path d="M135.165 120.664C134.917 120.752 134.651 120.779 134.39 120.742C134.127 120.769 133.862 120.73 133.618 120.629C133.867 120.54 134.132 120.512 134.394 120.548C134.818 120.558 135.165 120.608 135.165 120.664Z" fill="#263238"/>
<path d="M133.827 126.158C133.542 126.147 133.263 126.071 133.012 125.935C132.581 125.762 132.248 125.581 132.269 125.528C132.554 125.54 132.832 125.617 133.083 125.751C133.515 125.925 133.848 126.109 133.827 126.158Z" fill="#263238"/>
<path d="M133.686 130.778C133.686 130.831 133.385 130.941 132.978 131.026C132.57 131.111 132.27 131.132 132.241 131.079C132.213 131.026 132.542 130.916 132.949 130.835C133.356 130.753 133.675 130.725 133.686 130.778Z" fill="#263238"/>
<path d="M133.055 138.34C132.831 138.474 132.579 138.553 132.318 138.57C131.901 138.644 131.554 138.662 131.547 138.609C131.54 138.556 131.865 138.453 132.283 138.379C132.533 138.302 132.798 138.289 133.055 138.34Z" fill="#263238"/>
<path d="M132.638 142.51C132.663 142.559 132.386 142.754 132.022 142.945C131.657 143.136 131.342 143.257 131.314 143.211C131.285 143.165 131.562 142.966 131.93 142.775C132.298 142.584 132.613 142.464 132.638 142.51Z" fill="#263238"/>
<path d="M136.046 147.264C135.997 147.292 135.76 146.959 135.508 146.524C135.333 146.274 135.212 145.989 135.154 145.689C135.2 145.66 135.441 145.993 135.689 146.428C135.863 146.68 135.985 146.964 136.046 147.264Z" fill="#263238"/>
<path d="M137.027 139.377C137.066 139.416 136.797 139.731 136.433 140.085C136.068 140.439 135.725 140.704 135.696 140.665C135.668 140.626 135.927 140.311 136.295 139.957C136.663 139.603 136.992 139.338 137.027 139.377Z" fill="#263238"/>
<path d="M136.811 135.246C136.772 135.285 136.524 135.079 136.255 134.793C135.986 134.506 135.806 134.244 135.845 134.205C135.884 134.166 136.135 134.371 136.4 134.662C136.666 134.952 136.85 135.228 136.811 135.246Z" fill="#263238"/>
<path d="M137.498 129.971C137.537 130.006 137.314 130.325 136.999 130.679C136.684 131.033 136.397 131.288 136.358 131.249C136.319 131.21 136.539 130.895 136.854 130.541C137.169 130.187 137.445 129.936 137.498 129.971Z" fill="#263238"/>
<path d="M137.852 126.141C137.817 126.18 137.498 125.935 137.144 125.596C136.79 125.256 136.549 124.948 136.588 124.909C136.627 124.87 136.942 125.118 137.296 125.458C137.65 125.797 137.905 126.102 137.852 126.141Z" fill="#263238"/>
<path d="M138.613 120.965C138.555 121.247 138.434 121.512 138.259 121.741C138.019 122.141 137.788 122.449 137.742 122.413C137.801 122.132 137.922 121.867 138.096 121.638C138.337 121.238 138.56 120.937 138.613 120.965Z" fill="#263238"/>
<path d="M140.022 116.169C139.978 116.447 139.872 116.711 139.714 116.944C139.494 117.347 139.278 117.652 139.232 117.627C139.276 117.349 139.381 117.084 139.54 116.852C139.76 116.466 139.976 116.144 140.022 116.169Z" fill="#263238"/>
<path d="M141.615 118.346C141.64 118.395 141.42 118.547 141.13 118.7C140.84 118.852 140.581 118.912 140.557 118.863C140.532 118.813 140.751 118.664 141.045 118.509C141.339 118.353 141.594 118.3 141.615 118.346Z" fill="#263238"/>
<path d="M141.654 135.582C141.284 135.585 140.919 135.496 140.592 135.323C140.238 135.207 139.92 135.003 139.668 134.729C140.015 134.835 140.35 134.973 140.67 135.143C141.013 135.254 141.343 135.401 141.654 135.582Z" fill="#263238"/>
<path d="M141.002 139.221C141.002 139.274 140.684 139.384 140.266 139.465C139.848 139.547 139.505 139.568 139.498 139.515C139.491 139.462 139.817 139.352 140.231 139.271C140.481 139.194 140.745 139.177 141.002 139.221Z" fill="#263238"/>
<path d="M140.203 145.494C139.866 145.329 139.579 145.077 139.371 144.765C139.114 144.491 138.933 144.154 138.847 143.788C139.097 144.052 139.323 144.337 139.523 144.641C139.773 144.906 140.001 145.191 140.203 145.494Z" fill="#263238"/>
<path d="M131.423 148.326C131.388 148.287 131.611 148.039 131.919 147.774C132.227 147.508 132.507 147.331 132.542 147.37C132.577 147.409 132.354 147.657 132.046 147.922C131.738 148.188 131.459 148.383 131.423 148.326Z" fill="#263238"/>
<path d="M128.903 134.686C128.549 133.575 127.88 132.283 126.715 132.265C126.368 132.284 126.033 132.395 125.745 132.588C125.456 132.782 125.225 133.049 125.076 133.362C124.757 133.982 124.605 134.673 124.634 135.37C124.778 140.312 125.621 145.209 127.136 149.915H131.384C131.341 144.742 130.504 139.606 128.903 134.686Z" fill="#455A64"/>
<path d="M121.193 127.698C120.595 125.316 118.818 124.031 116.754 123.911C114.871 124.24 114.138 126.095 113.922 127.996C113.706 129.897 114.276 131.787 114.871 133.61C116.74 139.458 118.608 145.308 120.474 151.158L125.784 150.577C124.099 142.743 123.137 135.476 121.193 127.698Z" fill="#455A64"/>
<path d="M126.715 132.265C126.58 132.456 126.461 132.659 126.361 132.87C126.141 133.472 126.071 134.119 126.159 134.754C126.244 135.564 126.336 136.524 126.471 137.61C126.605 138.697 126.804 139.855 127.044 141.076C127.526 143.526 128.067 145.724 128.414 147.328C128.588 148.128 128.719 148.776 128.804 149.229C128.839 149.434 128.867 149.607 128.892 149.749C128.907 149.809 128.913 149.871 128.91 149.933C128.884 149.877 128.865 149.817 128.853 149.756C128.818 149.618 128.779 149.448 128.729 149.243L128.28 147.356C127.901 145.763 127.335 143.572 126.864 141.115C126.627 139.887 126.435 138.708 126.308 137.632C126.241 137.094 126.195 136.57 126.152 136.099C126.11 135.628 126.06 135.175 126.035 134.764C125.961 134.11 126.053 133.447 126.304 132.838C126.399 132.621 126.539 132.425 126.715 132.265Z" fill="#263238"/>
<path d="M116.832 123.758C116.597 124.029 116.383 124.316 116.191 124.619C115.7 125.464 115.422 126.417 115.38 127.394C115.358 128.844 115.58 130.287 116.039 131.663C116.502 133.242 117.016 134.977 117.55 136.793L120.266 146.124C120.602 147.306 120.871 148.269 121.069 148.956C121.154 149.275 121.225 149.533 121.274 149.728C121.303 149.817 121.323 149.908 121.335 150C121.294 149.917 121.262 149.829 121.239 149.738C121.175 149.547 121.097 149.292 120.995 148.977C120.786 148.291 120.492 147.335 120.135 146.145L117.363 136.832C116.832 135.012 116.325 133.292 115.865 131.695C115.405 130.099 115.157 128.626 115.246 127.369C115.3 126.375 115.601 125.41 116.124 124.562C116.315 124.258 116.554 123.986 116.832 123.758Z" fill="#263238"/>
<path d="M124.623 150.014C124.573 149.934 124.533 149.849 124.503 149.76C124.432 149.59 124.319 149.342 124.198 149.013C123.947 148.361 123.621 147.402 123.288 146.198C122.956 144.995 122.619 143.54 122.301 141.922C121.982 140.304 121.653 138.517 121.299 136.644C120.945 134.771 120.52 133.012 120.046 131.433C119.633 130.035 119.116 128.669 118.499 127.348C118.085 126.458 117.612 125.597 117.083 124.771C116.899 124.473 116.729 124.261 116.637 124.105C116.578 124.031 116.528 123.95 116.488 123.865C116.554 123.932 116.614 124.004 116.669 124.08C116.775 124.229 116.952 124.434 117.146 124.728C117.706 125.543 118.204 126.399 118.637 127.288C119.274 128.609 119.807 129.979 120.23 131.383C120.745 133.102 121.17 134.846 121.504 136.609C121.858 138.478 122.187 140.262 122.488 141.887C122.789 143.512 123.115 144.956 123.434 146.163C123.752 147.37 124.057 148.329 124.287 148.995C124.393 149.328 124.496 149.579 124.552 149.753C124.581 149.838 124.605 149.926 124.623 150.014Z" fill="#263238"/>
<path d="M114.958 132.75C114.958 132.803 114.682 132.916 114.314 133.008C113.946 133.1 113.634 133.125 113.624 133.076C113.613 133.026 113.9 132.906 114.268 132.817C114.636 132.729 114.944 132.679 114.958 132.75Z" fill="#263238"/>
<path d="M114.396 129.114C113.803 129.218 113.2 129.242 112.601 129.185C113.179 128.983 113.804 128.958 114.396 129.114Z" fill="#263238"/>
<path d="M114.994 125.808C114.959 125.847 114.672 125.663 114.35 125.39C114.028 125.118 113.798 124.863 113.833 124.824C113.868 124.785 114.155 124.969 114.477 125.242C114.799 125.514 115.029 125.766 114.994 125.808Z" fill="#263238"/>
<path d="M116.612 122.746C116.665 122.746 116.651 123.015 116.64 123.33C116.63 123.645 116.641 123.9 116.577 123.907C116.513 123.914 116.435 123.656 116.446 123.323C116.456 122.99 116.559 122.735 116.612 122.746Z" fill="#263238"/>
<path d="M119.919 124.19C119.961 124.219 119.834 124.481 119.628 124.771C119.423 125.061 119.225 125.274 119.179 125.245C119.133 125.217 119.264 124.951 119.469 124.661C119.674 124.371 119.872 124.158 119.919 124.19Z" fill="#263238"/>
<path d="M122.064 127.914C122.081 127.967 121.809 128.127 121.448 128.268C121.087 128.41 120.782 128.491 120.761 128.442C120.74 128.392 121.016 128.233 121.377 128.088C121.738 127.943 122.042 127.865 122.064 127.914Z" fill="#263238"/>
<path d="M123.363 131.752C122.845 132.105 122.212 132.247 121.593 132.148C121.874 132.039 122.168 131.966 122.467 131.929C122.756 131.828 123.057 131.768 123.363 131.752Z" fill="#263238"/>
<path d="M117.387 130.661C117.338 130.661 117.387 130.382 117.472 130.07C117.557 129.759 117.688 129.521 117.741 129.536C117.794 129.55 117.741 129.819 117.656 130.127C117.571 130.435 117.44 130.679 117.387 130.661Z" fill="#263238"/>
<path d="M118.223 135.476C118.24 135.195 118.323 134.922 118.464 134.679C118.644 134.261 118.818 133.939 118.882 133.971C118.865 134.252 118.782 134.525 118.641 134.768C118.46 135.175 118.273 135.497 118.223 135.476Z" fill="#263238"/>
<path d="M116.162 136.793C116.141 136.846 115.808 136.754 115.398 136.626C114.987 136.499 114.665 136.382 114.69 136.329C114.715 136.276 115.044 136.311 115.472 136.439C115.9 136.566 116.184 136.747 116.162 136.793Z" fill="#263238"/>
<path d="M117.348 140.718C117.38 140.764 117.153 140.98 116.842 141.2C116.53 141.419 116.254 141.554 116.222 141.526C116.191 141.497 116.417 141.264 116.729 141.044C117.04 140.825 117.32 140.676 117.348 140.718Z" fill="#263238"/>
<path d="M118.3 144.634C118.3 144.687 118.035 144.8 117.674 144.885C117.313 144.97 117.012 145.002 117.001 144.949C116.99 144.896 117.27 144.786 117.628 144.698C117.985 144.609 118.29 144.581 118.3 144.634Z" fill="#263238"/>
<path d="M123.469 135.019C123.497 135.065 123.257 135.256 122.906 135.373C122.556 135.49 122.251 135.522 122.241 135.469C122.23 135.416 122.506 135.316 122.839 135.193C123.172 135.069 123.441 134.973 123.469 135.019Z" fill="#263238"/>
<path d="M124.209 141.108C124.184 141.157 123.897 141.072 123.568 140.917C123.239 140.761 122.988 140.595 123.012 140.545C123.037 140.495 123.32 140.584 123.65 140.74C123.979 140.895 124.23 141.062 124.209 141.108Z" fill="#263238"/>
<path d="M125.512 145.466C125.216 145.454 124.927 145.376 124.665 145.239C124.219 145.066 123.873 144.885 123.894 144.832C124.188 144.847 124.475 144.924 124.736 145.058C125.021 145.136 125.286 145.275 125.512 145.466Z" fill="#263238"/>
<path d="M118.509 148.878C118.485 148.832 118.831 148.598 119.235 148.28C119.639 147.961 119.943 147.682 119.989 147.721C120.035 147.759 119.773 148.106 119.355 148.429C119.122 148.656 118.828 148.812 118.509 148.878Z" fill="#263238"/>
<path d="M121.958 146.666C121.901 146.666 121.827 146.379 121.692 146.039C121.558 145.699 121.423 145.43 121.466 145.398C121.508 145.367 121.735 145.6 121.876 145.968C122.018 146.336 122.007 146.659 121.958 146.666Z" fill="#263238"/>
<path d="M121.044 141.423C121.012 141.469 120.789 141.363 120.545 141.186C120.301 141.009 120.131 140.832 120.163 140.793C120.194 140.754 120.417 140.853 120.658 141.03C120.899 141.207 121.076 141.38 121.044 141.423Z" fill="#263238"/>
<path d="M129.073 133.214C129.105 133.256 128.889 133.469 128.588 133.692C128.287 133.915 128.022 134.046 127.99 134.01C127.958 133.975 128.174 133.755 128.475 133.532C128.776 133.309 129.041 133.168 129.073 133.214Z" fill="#263238"/>
<path d="M130.283 136.52C130.283 136.573 129.951 136.644 129.529 136.598C129.108 136.552 128.793 136.41 128.821 136.361C128.85 136.311 129.175 136.361 129.561 136.403C129.947 136.446 130.28 136.467 130.283 136.52Z" fill="#263238"/>
<path d="M125.079 137.263C125.079 137.313 124.778 137.426 124.371 137.455C123.964 137.483 123.639 137.412 123.646 137.359C123.653 137.306 123.968 137.285 124.354 137.26C124.739 137.235 125.069 137.21 125.079 137.263Z" fill="#263238"/>
<path d="M125.529 134.134C125.529 134.187 125.207 134.194 124.86 134.035C124.513 133.876 124.312 133.628 124.347 133.592C124.382 133.557 124.623 133.713 124.942 133.858C125.26 134.003 125.536 134.081 125.529 134.134Z" fill="#263238"/>
<path d="M130.73 140.074C130.464 140.014 130.215 139.893 130.004 139.72C129.632 139.487 129.353 139.26 129.381 139.214C129.409 139.168 129.735 139.32 130.107 139.568C130.478 139.816 130.772 140.028 130.73 140.074Z" fill="#263238"/>
<path d="M143.424 149.36H115.667V154.28H143.424V149.36Z" fill="#FF725E"/>
<path d="M117.741 153.303L121.115 168.001H137.657L141.353 153.303H117.741Z" fill="#FF725E"/>
<path d="M143.41 154.284C143.41 154.337 137.148 154.383 129.427 154.383C121.706 154.383 115.444 154.337 115.444 154.284C115.444 154.231 121.703 154.185 129.427 154.185C137.151 154.185 143.41 154.231 143.41 154.284Z" fill="#263238"/>
<path d="M127.972 137.37C127.926 137.398 127.738 137.178 127.55 136.878C127.363 136.577 127.246 136.308 127.292 136.279C127.338 136.251 127.526 136.47 127.713 136.771C127.901 137.072 128.018 137.352 127.972 137.37Z" fill="#263238"/>
<path d="M127.982 141.327C127.969 141.07 128.019 140.814 128.128 140.58C128.259 140.184 128.407 139.872 128.46 139.897C128.474 140.154 128.424 140.411 128.315 140.644C128.184 141.037 128.035 141.345 127.982 141.327Z" fill="#263238"/>
<path d="M129.356 145.494C129.307 145.519 129.101 145.186 128.892 144.751C128.738 144.5 128.64 144.218 128.606 143.926C128.655 143.905 128.861 144.234 129.069 144.669C129.224 144.92 129.322 145.201 129.356 145.494Z" fill="#263238"/>
<path d="M126.407 148.825C126.365 148.79 126.531 148.535 126.761 148.252C126.991 147.968 127.239 147.77 127.278 147.806C127.317 147.841 127.154 148.096 126.924 148.379C126.694 148.662 126.446 148.861 126.407 148.825Z" fill="#263238"/>
<path d="M125.791 142.758C125.791 142.811 125.515 142.807 125.197 142.758C124.878 142.708 124.623 142.612 124.634 142.559C124.644 142.506 124.91 142.51 125.229 142.559C125.547 142.609 125.816 142.705 125.791 142.758Z" fill="#263238"/>
<path d="M60.5704 44.1402L57.4057 38.5612C59.366 35.3821 60.0663 31.5848 59.3689 27.9156C58.6715 24.2464 56.6268 20.9708 53.6368 18.7327C50.6468 16.4946 46.9278 15.4558 43.2107 15.8206C39.4937 16.1854 36.0476 17.9274 33.5498 20.7041C31.052 23.4808 29.6831 27.0914 29.7124 30.8262C29.7416 34.561 31.1668 38.1497 33.7078 40.887C36.2487 43.6243 39.7217 45.3121 43.444 45.6187C47.1663 45.9252 50.8686 44.8284 53.8232 42.5437L60.5704 44.1402Z" fill="#FAFAFA"/>
<path d="M60.5703 44.1403L53.8089 42.5968H53.7416L53.7841 42.5402L53.8478 42.6075C52.9009 43.3419 51.8708 43.9621 50.7786 44.4553C49.4772 45.0385 48.0992 45.4331 46.6864 45.6271C45.9044 45.7361 45.1142 45.7752 44.3252 45.7439C43.9181 45.7227 43.5039 45.712 43.0862 45.6766L41.826 45.4855C38.9113 44.9144 36.2307 43.4937 34.1217 41.4023C32.0128 39.311 30.5696 36.6425 29.974 33.7327C29.5434 31.533 29.6038 29.2653 30.151 27.0916C30.7105 24.8215 31.8026 22.7173 33.337 20.9533L33.9459 20.2842C34.1442 20.0577 34.3849 19.87 34.6008 19.6647C34.8168 19.4594 35.0327 19.247 35.2805 19.0735L35.9885 18.539C36.2234 18.358 36.4706 18.1935 36.7284 18.0469L37.4859 17.5867L38.2789 17.2044C38.5379 17.0698 38.8051 16.9516 39.0789 16.8504C41.2038 16.0104 43.4905 15.6595 45.7695 15.8238C47.9249 15.9706 50.0217 16.5894 51.9114 17.6363C55.3008 19.5288 57.8349 22.6496 58.9914 26.3553C59.4511 27.9323 59.6695 29.5698 59.6392 31.2122C59.5615 33.8331 58.7921 36.3868 57.409 38.6143V38.5683L60.5349 44.1686L57.3666 38.586V38.5612V38.54C57.9777 37.5383 58.4706 36.4692 58.8357 35.354C59.2682 34.0082 59.5066 32.6076 59.5437 31.1945C59.5686 29.5668 59.3466 27.9448 58.8852 26.3836C57.7313 22.7183 55.2148 19.6354 51.8548 17.7708C49.9847 16.7443 47.9124 16.1402 45.7837 16.0008C43.5342 15.8329 41.2757 16.1716 39.1745 16.992C38.9021 17.0938 38.6361 17.212 38.378 17.346L37.5957 17.7283L36.8487 18.1815C36.5942 18.327 36.3494 18.489 36.1159 18.6664L35.4079 19.1974C35.1672 19.3674 34.9654 19.5868 34.7389 19.778C34.5123 19.9692 34.2928 20.178 34.0946 20.3869L33.4928 21.0489C31.9724 22.7904 30.8887 24.8691 30.3316 27.1129C29.7903 29.2596 29.7287 31.4992 30.151 33.6725C30.5618 35.7282 31.4067 37.6725 32.629 39.3754C34.8341 42.4503 38.1233 44.5744 41.833 45.3191L43.0827 45.5103C43.4968 45.5457 43.9075 45.5598 44.311 45.5811C45.0927 45.6147 45.8759 45.578 46.651 45.4713C48.0527 45.2855 49.421 44.9017 50.7149 44.3314C51.8025 43.8439 52.83 43.2321 53.777 42.5083L54.0531 42.2959L53.8407 42.5721L53.8159 42.5013L60.5703 44.1403Z" fill="#263238"/>
<path d="M34.8132 32.2884L35.192 31.4458C35.661 31.7717 36.2175 31.9481 36.7886 31.9521C37.4505 31.9521 37.7231 31.729 37.7231 31.4317C37.7231 30.5254 34.8911 31.1485 34.8911 29.3502C34.8911 28.5289 35.5531 27.8457 36.9302 27.8457C37.518 27.8335 38.098 27.9816 38.6081 28.274L38.2541 29.1236C37.8618 28.891 37.4177 28.7596 36.962 28.7413C36.2965 28.7413 36.0416 28.9926 36.0416 29.2971C36.0416 30.1891 38.8736 29.5732 38.8736 31.3503C38.8736 32.1574 38.2046 32.8512 36.8204 32.8512C36.1093 32.8754 35.4081 32.6788 34.8132 32.2884Z" fill="#263238"/>
<path d="M39.2524 30.9078C39.2524 29.7856 40.1162 28.9927 41.2986 28.9927C42.4809 28.9927 43.3341 29.7856 43.3341 30.9078C43.3341 32.03 42.4774 32.823 41.295 32.823C40.1127 32.823 39.2524 32.0265 39.2524 30.9078ZM42.2437 30.9078C42.2286 30.7232 42.16 30.5471 42.0462 30.4009C41.9325 30.2548 41.7787 30.145 41.6035 30.0849C41.4283 30.0249 41.2394 30.0172 41.0599 30.0628C40.8805 30.1085 40.7182 30.2055 40.593 30.3419C40.4678 30.4784 40.3851 30.6484 40.355 30.8311C40.325 31.0138 40.3488 31.2013 40.4237 31.3707C40.4986 31.5401 40.6212 31.684 40.7766 31.7847C40.932 31.8855 41.1134 31.9387 41.2986 31.938C41.4305 31.9396 41.5613 31.9134 41.6824 31.861C41.8035 31.8087 41.9122 31.7314 42.0014 31.6341C42.0906 31.5369 42.1583 31.422 42.2 31.2968C42.2418 31.1717 42.2567 31.0391 42.2437 30.9078Z" fill="#263238"/>
<path d="M46.3645 28.9926V29.9873C46.276 29.9873 46.2052 29.9873 46.1238 29.9873C45.9864 29.9749 45.8481 29.9936 45.719 30.042C45.5899 30.0904 45.4734 30.1673 45.3781 30.267C45.2829 30.3667 45.2113 30.4866 45.1688 30.6177C45.1263 30.7489 45.1139 30.8879 45.1326 31.0246V32.7946H44.0706V29.0457H45.1042V29.5378C45.2554 29.3527 45.4487 29.2067 45.668 29.1118C45.8873 29.0169 46.1261 28.9761 46.3645 28.9926Z" fill="#263238"/>
<path d="M49.3171 28.9927V29.9875C49.2251 29.9875 49.1578 29.9875 49.0729 29.9875C48.4781 29.9875 48.0852 30.3131 48.0852 31.0247V32.7947H47.0232V29.0458H48.0533V29.5379C48.2054 29.353 48.3994 29.2071 48.6192 29.1123C48.839 29.0175 49.0783 28.9765 49.3171 28.9927Z" fill="#263238"/>
<path d="M53.7803 29.0458L52.1024 32.9964C51.7484 33.892 51.228 34.1646 50.559 34.1646C50.1829 34.1688 49.8167 34.0439 49.5217 33.8106L49.9147 33.0424C50.0839 33.1898 50.2992 33.2737 50.5235 33.2796C50.8209 33.2796 50.9873 33.1451 51.1324 32.8159V32.7805L49.5217 29.0316H50.6333L51.6953 31.5556L52.7573 29.0316L53.7803 29.0458Z" fill="#263238"/>
<path d="M54.064 32.1928C54.0762 32.0252 54.1515 31.8683 54.2746 31.7539C54.3977 31.6394 54.5596 31.5758 54.7277 31.5758C54.8958 31.5758 55.0577 31.6394 55.1808 31.7539C55.304 31.8683 55.3792 32.0252 55.3915 32.1928C55.3792 32.3605 55.304 32.5173 55.1808 32.6318C55.0577 32.7462 54.8958 32.8098 54.7277 32.8098C54.5596 32.8098 54.3977 32.7462 54.2746 32.6318C54.1515 32.5173 54.0762 32.3605 54.064 32.1928ZM54.0852 27.9448H55.3702L55.1543 31.106H54.3082L54.0852 27.9448Z" fill="#263238"/>
<path d="M75.406 53.2769L80.9036 51.2414L94.5185 50.2432L98.1009 51.337L93.2688 72.1522L81.3921 74.7187L75.8839 67.4086L75.406 53.2769Z" fill="#FFBE9D"/>
<path d="M106.254 54.1267L97.3789 50.9761C97.3789 50.9761 89.0564 62.8811 75.4061 53.2594C75.4061 53.2594 69.42 55.4117 68.5279 55.9073C67.6358 56.4029 72.691 71.5293 72.691 71.5293L72.0962 90.3373C79.8842 94.3552 92.345 92.8614 103.192 91.0453L102.88 70.1593L106.254 54.1267Z" fill="#009A46"/>
<path d="M102.806 37.0638C103.266 36.4024 103.468 35.5954 103.373 34.7952C103.279 33.995 102.895 33.2572 102.293 32.721C101.692 32.1849 100.915 31.8877 100.109 31.8856C99.3032 31.8835 98.5246 32.1766 97.9203 32.7096L96.1503 35.8495C95.1571 37.0374 94.505 38.4725 94.2635 40.002C94.0348 41.5463 94.4032 43.1198 95.2936 44.4022C95.7403 45.0223 96.3155 45.5387 96.98 45.9161C97.6445 46.2935 98.3826 46.5231 99.1439 46.5891C99.9053 46.655 100.672 46.5559 101.391 46.2985C102.111 46.041 102.766 45.6313 103.313 45.0972C103.86 44.5632 104.285 43.9175 104.559 43.2042C104.833 42.4909 104.95 41.7268 104.902 40.9641C104.854 40.2014 104.641 39.4581 104.28 38.785C103.918 38.1118 103.415 37.5247 102.806 37.0638Z" fill="#263238"/>
<path d="M98.2035 37.3081C98.1504 36.2461 98.0371 35.1841 98.338 34.154C98.4876 33.7834 98.5853 33.3938 98.6283 32.9964C98.6257 32.7071 98.5345 32.4255 98.3671 32.1896C98.1996 31.9537 97.9639 31.7747 97.6917 31.6767C97.4195 31.5788 97.1237 31.5666 96.8444 31.6418C96.565 31.717 96.3153 31.8759 96.129 32.0973L96.0795 32.2141C95.467 32.7097 95.1732 33.492 94.9325 34.2425C94.5616 35.4122 94.259 36.6025 94.0263 37.8073C93.8624 38.4788 93.8228 39.1747 93.9094 39.8605C93.9557 40.2023 94.0821 40.5283 94.2784 40.8119C94.4746 41.0955 94.7352 41.3287 95.0387 41.4924C96.0016 41.9385 97.191 41.3225 97.7185 40.4056C98.246 39.4888 98.2672 38.3631 98.2035 37.3081Z" fill="#009A46"/>
<path d="M96.8935 33.6689C96.6917 32.4653 96.1678 31.3325 95.9837 30.1289C95.743 28.5465 96.1006 26.9429 96.1891 25.3428C96.2776 23.7428 96.0262 21.9834 94.8545 20.8931C93.6049 19.7284 91.7251 19.6753 90.0436 19.3709C88.132 19.0169 86.3195 18.2699 84.4398 17.7708C82.5601 17.2716 80.5246 17.0345 78.705 17.7177C77.0589 18.3336 75.7703 19.6257 74.6057 20.9391C72.7153 23.0666 70.9453 25.5871 70.9453 28.4333C70.9453 29.9094 71.4657 31.3396 71.6533 32.8052C71.8339 34.2212 71.7206 35.6372 72.0498 37.0532C72.379 38.4692 73.3136 39.8144 74.7083 40.0692L90.0082 41.5985C91.0122 41.6263 92.0099 41.4312 92.9294 41.0271C93.8489 40.6231 94.6673 40.0202 95.3258 39.2618C95.9843 38.5034 96.4665 37.6084 96.7376 36.6413C97.0086 35.6742 97.0619 34.6591 96.8935 33.6689Z" fill="#263238"/>
<path d="M92.731 26.1641L92.692 24.2915L81.364 22.61C77.8878 22.3834 74.284 26.0084 74.2062 29.4917C74.1212 33.3609 74.1672 38.0904 74.7407 40.9542C75.8947 46.7103 80.3658 47.2661 80.3658 47.2661V50.537C80.3676 52.2796 81.0609 53.9502 82.2935 55.1821C83.526 56.4139 85.197 57.1063 86.9395 57.1073C87.8207 57.1072 88.6928 56.9301 89.5042 56.5863C90.3155 56.2425 91.0494 55.7391 91.6623 55.1061C92.2752 54.473 92.7546 53.7232 93.072 52.9012C93.3894 52.0792 93.5382 51.2018 93.5098 50.3211L92.731 26.1641Z" fill="#FFBE9D"/>
<path d="M76.6096 33.3504C76.6196 33.5417 76.7027 33.7218 76.8417 33.8536C76.9807 33.9854 77.165 34.0587 77.3566 34.0584C77.4522 34.0627 77.5477 34.0476 77.6373 34.014C77.7269 33.9803 77.8088 33.9289 77.8779 33.8627C77.9471 33.7965 78.0021 33.717 78.0396 33.6289C78.0772 33.5409 78.0965 33.4462 78.0964 33.3504C78.0864 33.1592 78.0034 32.979 77.8643 32.8473C77.7253 32.7155 77.541 32.6422 77.3495 32.6424C77.2539 32.6381 77.1584 32.6533 77.0687 32.6869C76.9791 32.7206 76.8973 32.772 76.8281 32.8382C76.759 32.9044 76.7039 32.9839 76.6664 33.0719C76.6288 33.16 76.6095 33.2547 76.6096 33.3504Z" fill="#263238"/>
<path d="M75.5472 31.9025C75.6428 31.9945 76.1915 31.5485 76.988 31.5272C77.7845 31.506 78.404 31.8812 78.4748 31.7715C78.5137 31.7255 78.4146 31.5556 78.1491 31.3786C77.7931 31.1539 77.3767 31.044 76.9561 31.0635C76.5409 31.0782 76.1413 31.2259 75.8162 31.4848C75.5684 31.683 75.4941 31.86 75.5472 31.9025Z" fill="#263238"/>
<path d="M84.1746 33.0954C84.1845 33.2867 84.2676 33.4668 84.4066 33.5986C84.5457 33.7304 84.73 33.8037 84.9215 33.8034C85.0171 33.8077 85.1126 33.7926 85.2022 33.759C85.2918 33.7253 85.3737 33.6739 85.4429 33.6077C85.512 33.5415 85.567 33.462 85.6046 33.3739C85.6421 33.2859 85.6615 33.1912 85.6614 33.0954C85.6514 32.9042 85.5683 32.724 85.4293 32.5923C85.2903 32.4605 85.106 32.3872 84.9144 32.3874C84.8188 32.3831 84.7233 32.3983 84.6337 32.4319C84.5441 32.4655 84.4622 32.517 84.3931 32.5832C84.3239 32.6494 84.2689 32.7289 84.2313 32.8169C84.1938 32.905 84.1745 32.9997 84.1746 33.0954Z" fill="#263238"/>
<path d="M83.4064 31.7326C83.5019 31.8246 84.0471 31.3786 84.8471 31.3573C85.6472 31.3361 86.2631 31.7113 86.3304 31.6016C86.3729 31.5556 86.2738 31.3856 86.0083 31.2086C85.6522 30.984 85.2358 30.874 84.8153 30.8936C84.405 30.9115 84.0109 31.059 83.6896 31.3148C83.4347 31.506 83.3603 31.6901 83.4064 31.7326Z" fill="#263238"/>
<path d="M80.7443 37.779C80.3181 37.6648 79.8793 37.6041 79.4381 37.5985C79.2327 37.5985 79.038 37.5524 78.9956 37.4144C78.972 37.2047 79.0114 36.9927 79.1088 36.8055C79.2823 36.3028 79.4628 35.7754 79.6504 35.2267C80.3974 32.9788 80.9319 31.1521 80.8576 31.1026C80.7832 31.053 80.0859 32.8726 79.3389 35.1205C79.1584 35.6727 78.9849 36.2002 78.8221 36.7064C78.6963 36.9598 78.6649 37.2497 78.7336 37.5241C78.7667 37.5954 78.816 37.6581 78.8774 37.7072C78.9388 37.7564 79.0107 37.7906 79.0876 37.8073C79.2036 37.8339 79.3226 37.8458 79.4416 37.8427C79.8768 37.8771 80.3146 37.8557 80.7443 37.779Z" fill="#263238"/>
<path d="M80.3799 47.2802C83.173 47.2109 85.8941 46.3797 88.2493 44.8766C88.2493 44.8766 86.3979 49.029 80.3799 48.7387V47.2802Z" fill="#EB996E"/>
<path d="M81.1617 39.694C81.3041 39.4949 81.4958 39.3361 81.7179 39.2331C81.94 39.1301 82.185 39.0864 82.4291 39.1064C82.6067 39.1138 82.781 39.1576 82.9411 39.2349C83.1012 39.3122 83.2438 39.4215 83.3601 39.556C83.4714 39.6851 83.5406 39.8452 83.5583 40.0148C83.5761 40.1844 83.5415 40.3553 83.4592 40.5047C83.3365 40.6533 83.1722 40.7619 82.9875 40.8168C82.8028 40.8716 82.6059 40.8702 82.422 40.8127C82.0397 40.6952 81.6847 40.5026 81.3777 40.2463C81.2843 40.1847 81.2027 40.1067 81.137 40.0162C81.1086 39.9718 81.0935 39.9202 81.0935 39.8675C81.0935 39.8148 81.1086 39.7632 81.137 39.7188" fill="#EB996E"/>
<path d="M87.0952 29.3572C87.0492 29.1306 86.2421 29.1165 85.3252 28.8687C84.4084 28.6209 83.6968 28.2563 83.5552 28.4333C83.488 28.5147 83.5871 28.7377 83.8597 28.989C84.2266 29.3044 84.6605 29.532 85.1285 29.6547C85.5965 29.7774 86.0863 29.7919 86.5607 29.697C86.9182 29.6085 87.1129 29.4634 87.0952 29.3572Z" fill="#263238"/>
<path d="M77.8452 28.7803C77.5938 28.7059 77.0203 29.2122 76.2345 29.6299C75.4486 30.0476 74.7123 30.2742 74.645 30.522C74.6202 30.6388 74.8078 30.745 75.1795 30.7485C75.6907 30.7293 76.1898 30.5872 76.6345 30.3343C77.0851 30.1025 77.4717 29.7633 77.7602 29.3467C77.9549 29.0281 77.962 28.8228 77.8452 28.7803Z" fill="#263238"/>
<path d="M90.6176 20.6382L81.8809 21.3249L74.6416 23.8206C75.5726 25.8491 75.7496 27.5164 77.9727 27.7146C79.0872 27.8118 80.2079 27.6217 81.228 27.1624C82.2481 26.7032 83.1334 25.9902 83.7996 25.0915C84.1748 26.7341 86.0262 27.5695 87.6936 27.8031C88.8737 28.017 90.0898 27.9069 91.2123 27.4845C92.3062 27.0173 93.2337 26.0331 93.3824 24.8508C93.531 23.6684 91.7929 20.8329 90.6176 20.6382Z" fill="#263238"/>
<path d="M97.5376 26.4438C97.0509 25.5405 96.2536 24.8439 95.2932 24.4826L95.0702 22.787L88.5955 24.8296C87.0627 27.258 87.7636 30.798 90.1284 32.5007L90.1567 33.7291C90.185 35.0172 90.5407 36.2769 91.1904 37.3895L93.2436 41.8605C94.7516 41.8959 95.095 40.264 95.6932 38.9294C96.2915 37.5948 96.2986 36.0974 96.2455 34.6318C96.2195 33.9238 96.1829 33.2158 96.1357 32.5078C96.5959 31.729 97.2508 31.0033 97.6367 30.175C97.9053 29.5865 98.0361 28.9445 98.0189 28.2979C98.0017 27.6513 97.8371 27.0171 97.5376 26.4438Z" fill="#263238"/>
<path d="M91.021 34.1044C91.1095 34.0584 94.561 32.6884 94.7698 36.3204C94.9787 39.9525 91.3042 39.4144 91.2936 39.3117C91.283 39.2091 91.021 34.1044 91.021 34.1044Z" fill="#FFBE9D"/>
<path d="M92.3165 37.878C92.3165 37.878 92.3838 37.9205 92.4935 37.963C92.6472 38.0174 92.8162 38.0098 92.9644 37.9417C93.3396 37.7789 93.6263 37.1523 93.6015 36.4974C93.5929 36.1865 93.5143 35.8816 93.3714 35.6053C93.331 35.4941 93.2641 35.3945 93.1765 35.3149C93.0889 35.2353 92.9833 35.1783 92.8688 35.1487C92.7964 35.1359 92.7218 35.1482 92.6575 35.1836C92.5931 35.219 92.5427 35.2754 92.5148 35.3434C92.4723 35.4496 92.4971 35.5204 92.4794 35.5274C92.4617 35.5345 92.3979 35.4708 92.4192 35.3186C92.4335 35.2283 92.4785 35.1458 92.5466 35.0849C92.5949 35.043 92.6511 35.0114 92.712 34.9919C92.7728 34.9724 92.837 34.9655 92.9006 34.9717C93.0536 34.9896 93.1993 35.047 93.3235 35.1382C93.4476 35.2294 93.5458 35.3514 93.6086 35.492C93.7814 35.7972 93.8774 36.1398 93.8883 36.4903C93.9095 37.2231 93.5768 37.9276 93.0599 38.1081C92.965 38.1431 92.8633 38.1559 92.7627 38.1454C92.662 38.135 92.5651 38.1016 92.4794 38.0479C92.3271 37.9594 92.3059 37.878 92.3165 37.878Z" fill="#EB996E"/>
<path d="M97.1593 26.0119C97.2159 26.0119 97.2513 26.1924 97.1947 26.4862C97.0975 26.9045 96.8967 27.2917 96.6106 27.612C96.1791 28.1075 95.5972 28.4482 94.9539 28.5819C94.2034 28.7412 93.4529 28.5819 92.8299 28.6492C92.4997 28.697 92.1749 28.7764 91.8599 28.8864C91.69 28.9359 91.5059 28.9855 91.3289 29.0244C91.1519 29.0634 90.9749 29.0917 90.805 29.1129C90.1822 29.2094 89.5453 29.1573 88.9465 28.9607C88.5359 28.8231 88.1694 28.5788 87.8845 28.2527C87.6933 28.0226 87.6438 27.8598 87.6863 27.8208C87.7925 27.7146 88.2385 28.1748 89.1023 28.327C89.6195 28.4037 90.1465 28.3833 90.6563 28.2669C90.805 28.2385 90.9572 28.2031 91.1094 28.1642C91.2617 28.1253 91.4103 28.0722 91.5732 28.0155C91.9425 27.8771 92.326 27.7798 92.7166 27.7252C93.5804 27.6509 94.26 27.8279 94.7981 27.7252C95.2931 27.6512 95.7583 27.4431 96.1433 27.1234C96.8407 26.5747 97.0212 25.9765 97.1593 26.0119Z" fill="white"/>
<path d="M83.9129 39.255C83.9342 39.3576 83.2262 39.5736 82.4403 39.9913C81.6544 40.409 81.0739 40.8692 80.9995 40.7913C80.9252 40.7135 81.4208 40.1117 82.2668 39.6656C83.1129 39.2196 83.8988 39.1594 83.9129 39.255Z" fill="#263238"/>
<path d="M84.5465 39.8073C84.4969 39.7826 84.5854 39.5312 84.5111 39.2303C84.4367 38.9294 84.2633 38.7347 84.2951 38.6958C84.327 38.6568 84.6102 38.8161 84.6916 39.1878C84.773 39.5595 84.5854 39.8392 84.5465 39.8073Z" fill="#EB996E"/>
<path d="M86.2279 33.9557C86.2704 33.9769 86.0969 34.3097 85.6863 34.508C85.2757 34.7062 84.904 34.6212 84.9181 34.5717C84.9323 34.5221 85.2544 34.515 85.6084 34.3416C85.9624 34.1681 86.1854 33.9238 86.2279 33.9557Z" fill="#EB996E"/>
<path d="M86.5639 34.2354C86.6064 34.2637 86.4718 34.5009 86.1851 34.6566C85.8984 34.8124 85.6293 34.7982 85.6258 34.7487C85.6222 34.6991 85.8488 34.6318 86.0966 34.4938C86.3444 34.3557 86.5214 34.2035 86.5639 34.2354Z" fill="#EB996E"/>
<path d="M76.6486 35.0035C76.6486 35.053 76.4504 35.0849 76.245 34.9787C76.0397 34.8725 75.9512 34.6955 75.9902 34.6636C76.0291 34.6318 76.1601 34.7273 76.3442 34.8123C76.5282 34.8973 76.6521 34.9504 76.6486 35.0035Z" fill="#EB996E"/>
<path d="M76.6101 35.4319C76.6101 35.4814 76.3835 35.485 76.1428 35.3752C75.9021 35.2655 75.7569 35.0956 75.7888 35.0602C75.8206 35.0248 76.0012 35.1097 76.2171 35.2089C76.4331 35.308 76.6278 35.4 76.6101 35.4319Z" fill="#EB996E"/>
<path d="M81.7603 28.3519C81.3532 28.6793 80.8596 28.8811 80.3397 28.9327C79.8199 28.9842 79.2962 28.8833 78.8328 28.6422C79.3241 28.7326 79.8239 28.7683 80.3231 28.7484C80.8154 28.6699 81.2974 28.5369 81.7603 28.3519Z" fill="#EB996E"/>
<path d="M82.1037 28.7236C82.0261 28.868 81.9183 28.9941 81.7876 29.093C81.6568 29.192 81.5063 29.2616 81.3462 29.2971C81.1954 29.3616 81.0322 29.3923 80.8683 29.3868C80.7043 29.3813 80.5436 29.3398 80.3975 29.2652C80.6972 29.2331 80.995 29.1847 81.2895 29.1201C81.7639 28.9749 82.0648 28.674 82.1037 28.7236Z" fill="#EB996E"/>
<path d="M75.7633 26.4899C75.7633 26.4899 75.7279 26.458 75.6748 26.3872C75.5963 26.2835 75.5287 26.172 75.473 26.0545C75.2697 25.6196 75.1715 25.1431 75.1863 24.6633C75.1863 23.449 75.8943 21.7923 77.3103 20.5852C77.9669 20.0151 78.7331 19.5851 79.5617 19.3214C80.2358 19.1089 80.9402 19.0084 81.6468 19.024C82.1245 19.0301 82.5999 19.0931 83.0628 19.2117C83.2221 19.2541 83.346 19.2931 83.4168 19.3249C83.4876 19.3568 83.5407 19.3745 83.5371 19.3816C82.9142 19.24 82.2784 19.1629 81.6397 19.1515C80.948 19.1561 80.2613 19.2684 79.6042 19.4842C78.8029 19.7497 78.0618 20.1708 77.4236 20.7232C76.0571 21.8985 75.3491 23.4951 75.3243 24.6668C75.2986 25.1308 75.3748 25.5947 75.5473 26.0262C75.6677 26.3306 75.7774 26.4793 75.7633 26.4899Z" fill="#455A64"/>
<path d="M88.8224 27.7925C88.7166 27.7856 88.6126 27.7617 88.5144 27.7217C88.2419 27.6288 87.9787 27.5103 87.7285 27.3677C86.8934 26.8995 86.1794 26.2425 85.6435 25.4491C85.3734 24.9911 85.1999 24.4827 85.1337 23.9552C85.0715 23.5322 85.0467 23.1046 85.0594 22.6772C85.067 22.39 85.0954 22.1037 85.1443 21.8206C85.1538 21.7155 85.1801 21.6127 85.2222 21.5161C85.2541 21.5161 85.1797 21.9622 85.1904 22.6808C85.1945 23.0984 85.2312 23.515 85.3001 23.9269C85.3746 24.4264 85.544 24.907 85.7992 25.3429C86.323 26.1142 87.0033 26.7668 87.7958 27.258C88.4047 27.6332 88.833 27.7642 88.8224 27.7925Z" fill="#455A64"/>
<path d="M78.528 26.4403C78.4728 26.3286 78.4346 26.2093 78.4147 26.0863C78.3449 25.7606 78.3128 25.428 78.3192 25.0951C78.324 23.9756 78.7258 22.8941 79.4531 22.043C80.1803 21.1919 81.186 20.6264 82.291 20.447C82.6192 20.3885 82.9531 20.3695 83.2858 20.3904C83.4057 20.3914 83.5248 20.4093 83.6398 20.4435C83.1925 20.4571 82.7466 20.5009 82.3052 20.5745C81.2456 20.7833 80.2875 21.3436 79.586 22.1646C78.8844 22.9857 78.4805 24.0194 78.4395 25.0986C78.4352 25.5474 78.4648 25.9959 78.528 26.4403Z" fill="#455A64"/>
<path d="M90.2564 19.601C89.4987 19.4937 88.7285 19.5117 87.9767 19.6541C87.2364 19.8519 86.5342 20.1713 85.8987 20.5993C86.0355 20.4128 86.209 20.2562 86.4084 20.1391C87.3409 19.5039 88.4785 19.2435 89.5944 19.4098C89.8254 19.4303 90.0501 19.4952 90.2564 19.601Z" fill="#455A64"/>
<path d="M103.036 37.1382C102.851 37.3293 101.924 36.7063 100.657 36.3381C99.3893 35.97 98.2778 35.9452 98.2318 35.6832C98.2141 35.5629 98.4902 35.3965 98.9858 35.308C99.6349 35.2131 100.297 35.2626 100.925 35.4529C101.553 35.6432 102.131 35.9696 102.618 36.4089C102.979 36.7559 103.117 37.0497 103.036 37.1382Z" fill="white"/>
<path d="M102.48 38.0833C102.48 38.0833 102.639 38.0019 102.915 37.8426C103.3 37.6168 103.642 37.3243 103.924 36.9788C104.344 36.4748 104.61 35.8602 104.689 35.2088C104.77 34.4056 104.556 33.6004 104.087 32.9432C103.605 32.2865 102.896 31.8332 102.097 31.6724C101.45 31.5338 100.78 31.5338 100.133 31.6724C99.5359 31.8166 98.9503 32.0035 98.3804 32.2317C98.5164 32.1339 98.6638 32.0531 98.8193 31.991C99.2314 31.796 99.6635 31.6464 100.108 31.5449C100.772 31.384 101.463 31.3719 102.133 31.5095C102.971 31.6684 103.718 32.1374 104.225 32.8229C104.68 33.4489 104.907 34.212 104.868 34.985C104.828 35.7581 104.525 36.4943 104.009 37.0709C103.712 37.417 103.352 37.703 102.947 37.9134C102.833 37.9705 102.714 38.019 102.593 38.0585C102.556 38.071 102.518 38.0793 102.48 38.0833Z" fill="#263238"/>
<path d="M73.2112 91.1904C73.2112 91.1904 65.6745 107.071 65.7488 114.381C65.7984 118.983 72.2412 167.962 72.2412 167.962H85.9693L87.0844 122.332L88.0261 121.072L88.6137 122.509C88.6137 122.509 86.5428 166.833 87.0278 167.962H102.374C102.374 167.962 107.252 132.817 107.9 127.493C108.547 122.169 109.316 119.62 108.983 111.875C108.65 104.129 103.22 91.1904 103.22 91.1904C103.22 91.1904 82.4081 94.5782 73.2112 91.1904Z" fill="#263238"/>
<path d="M73.905 91.2966L72.6306 95.6792L76.3051 96.4686L77.3388 92.0577L73.905 91.2966Z" fill="#455A64"/>
<path d="M78.7336 92.2418L77.9902 96.4686C80.8666 96.763 83.7583 96.8812 86.6491 96.8226C90.9573 96.7058 95.1663 96.3447 97.0531 95.6862L96.5044 91.9161C96.5044 91.9161 82.2736 93.2224 78.7336 92.2418Z" fill="#455A64"/>
<path d="M98.3418 91.7037L99.2516 95.4207C99.2516 95.4207 102.19 95.0986 103.4 94.3906L102.388 91.0524L98.3418 91.7037Z" fill="#455A64"/>
<path d="M78.7332 167.35C78.6978 166.337 78.1951 151.753 77.5402 132.708C77.2358 123.149 77.0198 114.469 76.9561 108.197C76.9561 106.628 76.9561 105.209 76.9384 103.949C76.9207 102.688 76.9596 101.633 76.9667 100.763C76.9738 99.8917 77.0127 99.212 77.0269 98.7447C77.0269 98.5182 77.0269 98.3447 77.0446 98.2173C77.0623 98.0898 77.0446 98.0403 77.0446 98.0403C77.0446 98.0403 77.0446 98.1005 77.0446 98.2208C77.0446 98.3412 77.0446 98.5182 77.0446 98.7447C77.0446 99.2156 77.0446 99.8917 77.0198 100.763C76.9951 101.633 77.0198 102.717 77.0198 103.949C77.0198 105.18 77.0446 106.614 77.0623 108.197C77.1579 114.466 77.3951 123.132 77.6995 132.7C78.004 142.269 78.2836 150.921 78.4854 157.197C78.581 160.334 78.6447 162.861 78.6801 164.631C78.6801 165.502 78.7013 166.178 78.7084 166.649C78.7084 166.876 78.7084 167.049 78.7084 167.176C78.7084 167.304 78.7332 167.35 78.7332 167.35Z" fill="#455A64"/>
<path d="M87.6614 97.1058C87.6749 97.1746 87.6809 97.2446 87.6791 97.3147C87.6791 97.4705 87.6791 97.6687 87.6791 97.9094C87.6791 98.4475 87.6791 99.1874 87.7039 100.09C87.7216 101.934 87.7605 104.48 87.8384 107.29C87.9163 110.101 88.0296 112.646 88.1145 114.487C88.157 115.39 88.1889 116.13 88.2136 116.668C88.2136 116.904 88.2207 117.102 88.2349 117.263C88.2445 117.332 88.2445 117.402 88.2349 117.471C88.22 117.404 88.2093 117.335 88.203 117.266L88.1499 116.671C88.1039 116.158 88.0508 115.415 87.9906 114.494C87.8738 112.654 87.7428 110.108 87.6614 107.297C87.58 104.487 87.5835 101.952 87.5835 100.09C87.5835 99.1697 87.6012 98.4227 87.6154 97.9059L87.6366 97.3147C87.6357 97.2443 87.644 97.1741 87.6614 97.1058Z" fill="#455A64"/>
<path d="M88.2423 117.471C88.165 117.462 88.0882 117.449 88.0122 117.433L87.3573 117.305C86.5488 117.149 85.7499 116.947 84.9643 116.7C84.6976 116.615 84.443 116.496 84.2067 116.346C84.1359 116.298 84.0795 116.232 84.0439 116.155C84.0191 116.08 83.9978 116.009 83.9766 115.939C83.9403 115.789 83.9131 115.638 83.8952 115.486C83.8244 114.866 83.8633 114.215 83.8562 113.528C83.8562 112.151 83.8739 110.643 83.8846 109.06C83.9164 105.899 83.9483 103.042 83.9695 100.943C83.9907 99.9201 84.0084 99.0847 84.0191 98.4829C84.0191 98.2068 84.0262 97.9838 84.0403 97.8138C84.0384 97.7354 84.0455 97.657 84.0616 97.5802C84.069 97.6579 84.069 97.7361 84.0616 97.8138C84.0616 97.9838 84.0616 98.2068 84.0616 98.4829C84.0616 99.0847 84.0616 99.9201 84.0616 100.943C84.0616 103.039 84.0403 105.899 84.0297 109.06C84.0297 110.646 84.0014 112.154 83.9872 113.528C83.9872 114.215 83.9483 114.87 84.0084 115.468C84.024 115.614 84.0489 115.76 84.0828 115.903C84.1005 115.971 84.1182 116.041 84.1394 116.105C84.1668 116.156 84.2056 116.199 84.2527 116.232C84.4735 116.374 84.7114 116.487 84.9607 116.569C85.9342 116.905 86.759 117.082 87.3219 117.227L87.9697 117.39C88.0648 117.4 88.1571 117.428 88.2423 117.471Z" fill="#455A64"/>
<path d="M95.8989 167.35C95.8989 167.35 95.8989 167.29 95.8989 167.17C95.8989 167.049 95.9166 166.862 95.9308 166.631C95.9591 166.154 96.0051 165.46 96.0582 164.571C96.1892 162.776 96.3733 160.192 96.6034 156.999C97.0707 150.609 97.722 141.777 98.2424 132.014C98.7628 122.25 98.9504 113.39 98.7415 106.986C98.7097 106.186 98.6743 105.425 98.6424 104.706C98.6106 103.988 98.5893 103.29 98.5256 102.671C98.4123 101.403 98.3522 100.31 98.2389 99.421C98.1256 98.5325 98.0229 97.8528 97.9557 97.3784C97.9273 97.1483 97.9026 96.9713 97.8884 96.8439C97.8742 96.7164 97.8707 96.6633 97.8707 96.6633C97.8707 96.6633 97.8707 96.7235 97.9061 96.8439C97.9415 96.9642 97.9557 97.1448 97.9946 97.3713C98.0654 97.8457 98.1751 98.5325 98.3097 99.4104C98.4442 100.288 98.5044 101.396 98.6283 102.664C98.6991 103.297 98.7274 103.977 98.7628 104.699C98.7982 105.421 98.8336 106.182 98.8725 106.982C99.1274 113.393 98.9186 122.254 98.4265 132.024C97.9344 141.795 97.2335 150.62 96.7308 157.01C96.4795 160.196 96.2742 162.783 96.1326 164.578C96.0618 165.463 96.0051 166.157 95.9662 166.635C95.9449 166.865 95.9308 167.042 95.9202 167.17C95.9095 167.297 95.8989 167.35 95.8989 167.35Z" fill="#455A64"/>
<path d="M86.9148 96.9713V97.7925L91.6725 97.6085C91.8234 97.6029 91.9662 97.5389 92.0706 97.4298C92.1751 97.3208 92.2329 97.1753 92.2319 97.0244V92.6312C92.2319 92.4763 92.1703 92.3277 92.0608 92.2182C91.9513 92.1087 91.8027 92.0471 91.6478 92.0471H86.5962V92.7056L91.3858 92.9534V94.5499H91.0637C91.0301 94.549 90.9966 94.5548 90.9653 94.567C90.934 94.5792 90.9054 94.5975 90.8813 94.621C90.8573 94.6444 90.8381 94.6724 90.825 94.7034C90.812 94.7344 90.8052 94.7676 90.8053 94.8012C90.8061 94.8661 90.832 94.9281 90.8776 94.9742C90.9231 95.0204 90.9847 95.0472 91.0495 95.049H91.4035V96.642L86.9148 96.9713Z" fill="#E0E0E0"/>
<path d="M84.1604 92.3445H82.8152V96.9465H84.1604V92.3445Z" fill="#263238"/>
<path d="M90.9642 95.3252C90.9465 95.3429 90.8721 95.3252 90.7942 95.2013C90.6972 95.0602 90.6499 94.8909 90.6597 94.7199C90.6683 94.5487 90.7388 94.3864 90.858 94.2632C90.9465 94.1677 91.0243 94.1429 91.0385 94.1606C91.0527 94.1783 90.865 94.4084 90.8438 94.7341C90.8226 95.0597 91.0031 95.2934 90.9642 95.3252Z" fill="#263238"/>
<path d="M87.141 94.3905C87.141 94.3905 87.1658 94.3622 87.2189 94.3658C87.2553 94.372 87.2898 94.3863 87.3198 94.4078C87.3499 94.4293 87.3747 94.4572 87.3923 94.4897C87.4217 94.5383 87.439 94.5932 87.4427 94.6499C87.4464 94.7066 87.4364 94.7633 87.4136 94.8153C87.3803 94.8795 87.3291 94.9327 87.2663 94.9685C87.2035 95.0043 87.1317 95.0212 87.0596 95.0171C86.9866 95.0076 86.9183 94.9755 86.8644 94.9254C86.8105 94.8753 86.7735 94.8096 86.7587 94.7375C86.7489 94.6812 86.7542 94.6234 86.7741 94.5699C86.794 94.5164 86.8278 94.4692 86.872 94.433C87.0242 94.3162 87.1481 94.3728 87.1375 94.3905C87.1268 94.4082 87.0383 94.4259 86.964 94.5251C86.9428 94.5487 86.9281 94.5774 86.9212 94.6084C86.9144 94.6395 86.9157 94.6717 86.9251 94.7021C86.9337 94.7357 86.9521 94.7661 86.9779 94.7894C87.0037 94.8127 87.0358 94.8279 87.0702 94.833C87.1077 94.8334 87.1448 94.8245 87.1781 94.8072C87.2114 94.79 87.24 94.7648 87.2614 94.7339C87.2736 94.7048 87.2799 94.6735 87.2799 94.6419C87.2799 94.6103 87.2736 94.579 87.2614 94.5498C87.2295 94.4295 87.1445 94.4153 87.141 94.3905Z" fill="#263238"/>
<path d="M100.413 95.3252C100.503 95.0865 100.622 94.8596 100.767 94.649C100.898 94.426 101.036 94.1888 101.184 93.941L101.436 93.5233C101.529 93.3871 101.612 93.2439 101.683 93.095C101.704 93.0251 101.709 92.9514 101.696 92.8796C101.684 92.8078 101.655 92.7397 101.613 92.6808C101.508 92.571 101.389 92.4757 101.259 92.3976L100.59 91.9197C100.376 91.7827 100.178 91.6211 100.002 91.4382C100.237 91.5337 100.46 91.6586 100.664 91.8099L101.354 92.2595L101.552 92.3905C101.632 92.4387 101.701 92.5011 101.758 92.5746C101.817 92.6567 101.857 92.7515 101.875 92.8515C101.892 92.9516 101.886 93.0543 101.857 93.1516C101.824 93.2423 101.779 93.328 101.722 93.4065L101.584 93.6224L101.322 94.0331L100.873 94.7163C100.745 94.9375 100.591 95.142 100.413 95.3252Z" fill="#263238"/>
<path d="M108.469 106.041C108.432 106.069 108.39 106.092 108.346 106.108C108.219 106.161 108.087 106.2 107.953 106.225C107.451 106.291 106.94 106.228 106.469 106.041C105.78 105.766 105.126 105.41 104.522 104.979C101.967 103.274 100.03 100.791 98.9965 97.8987C98.931 97.7286 98.8801 97.5534 98.8442 97.3748C98.9343 97.5332 99.0078 97.7005 99.0637 97.8739C99.1982 98.1996 99.4177 98.6598 99.6868 99.2191C100.437 100.665 101.407 101.985 102.561 103.134C103.196 103.764 103.884 104.337 104.618 104.848C105.209 105.272 105.845 105.628 106.515 105.91C106.962 106.1 107.447 106.182 107.931 106.147C108.289 106.108 108.469 106.023 108.469 106.041Z" fill="#455A64"/>
<path d="M73.9265 98.8688C73.7673 99.1967 73.5713 99.5055 73.3424 99.7892C72.3078 101.207 71.0585 102.455 69.6395 103.488C69.3561 103.716 69.0486 103.912 68.7227 104.073C68.9873 103.826 69.2675 103.596 69.5616 103.386C70.9229 102.303 72.1569 101.069 73.2397 99.7078C73.4515 99.4145 73.6808 99.1343 73.9265 98.8688Z" fill="#455A64"/>
<path d="M86.277 63.3199L86.0292 51.4999C85.9089 49.9812 84.5955 50.2644 84.5955 50.2644C84.5955 50.2644 84.5106 54.4558 84.1601 56.8099C83.8097 59.164 82.5423 61.7659 82.4999 62.2933C82.4574 62.8208 82.2945 67.3024 82.1459 68.7397C81.9481 69.9529 81.6461 71.1467 81.2432 72.308L84.6097 74.8958L85.6328 73.4585C85.6328 73.4585 86.7833 72.6372 87.0488 71.6106C87.3143 70.584 86.277 63.3199 86.277 63.3199Z" fill="#FFBE9D"/>
<path d="M86.2774 63.32C86.2774 63.32 86.2951 63.3837 86.3163 63.5112L86.4013 64.0669C86.4757 64.5555 86.5783 65.2741 86.6987 66.1909C86.819 67.1078 86.9606 68.2406 87.0704 69.5469C87.1022 69.8761 87.1235 70.2124 87.1412 70.5628C87.1412 70.7398 87.1589 70.9168 87.1412 71.0974C87.1448 71.2854 87.1258 71.4732 87.0845 71.6567C86.967 72.029 86.7769 72.3743 86.5252 72.6727C86.2688 72.9855 85.9765 73.2671 85.6544 73.5117V73.494L84.6348 74.9347L84.5853 74.9985L84.5216 74.9489L81.1515 72.3682L81.1055 72.3328V72.2727C81.6504 70.7932 81.9817 69.2436 82.0896 67.6707C82.1993 66.0246 82.2666 64.3218 82.3516 62.5766C82.3516 62.4279 82.3671 62.2796 82.3976 62.1341C82.4365 61.989 82.4825 61.8544 82.5286 61.7164L82.8224 60.9199C83.0206 60.3924 83.2118 59.8579 83.3852 59.3446C83.7331 58.3275 83.9704 57.276 84.0932 56.2081C84.3269 54.116 84.4012 52.1124 84.4472 50.2716V50.2043H84.511C84.7844 50.1548 85.0663 50.1868 85.3216 50.2963C85.5712 50.4102 85.7702 50.6118 85.8809 50.8627C85.9854 51.0992 86.0396 51.3547 86.0402 51.6132C86.0402 51.8575 86.0402 52.0982 86.0402 52.3389C86.0402 53.2912 86.0756 54.1974 86.0898 55.0506C86.1181 56.7533 86.1429 58.2366 86.1641 59.472C86.1854 60.7075 86.1924 61.6562 86.1995 62.3253C86.1995 62.6474 86.1995 62.8987 86.1995 63.0793C86.1995 63.1572 86.1995 63.2209 86.1995 63.274C86.1995 63.3271 86.1995 63.3377 86.1995 63.3377C86.1995 63.3377 86.1995 63.3165 86.1995 63.274C86.1995 63.2315 86.1995 63.1607 86.1995 63.0828C86.1995 62.9023 86.1995 62.651 86.1712 62.3288C86.15 61.6598 86.1252 60.6969 86.0898 59.4791C86.0544 58.2613 86.019 56.7604 85.9765 55.0576C85.9765 54.2045 85.9376 53.2876 85.9128 52.346C85.8845 51.8716 85.9553 51.3583 85.7464 50.93C85.6528 50.7114 85.4794 50.5367 85.2614 50.4415C85.038 50.3472 84.792 50.3201 84.5534 50.3636L84.6171 50.2857C84.5711 52.1336 84.5039 54.1337 84.2631 56.24C84.1358 57.3249 83.8925 58.393 83.5375 59.426C83.364 59.9535 83.1834 60.488 82.9746 61.0048L82.6808 61.8013C82.6347 61.9323 82.5887 62.0668 82.5569 62.1978C82.5276 62.3315 82.5134 62.4681 82.5144 62.6049C82.4294 64.3502 82.3622 66.0564 82.2489 67.7025C82.1401 69.2966 81.8027 70.8667 81.2471 72.3647L81.2188 72.2691L84.5782 74.8604L84.4685 74.8781L85.4951 73.4444C86.1266 73.0081 86.6115 72.3911 86.8863 71.6744C86.9237 71.5011 86.9415 71.3242 86.9394 71.1469C86.9394 70.9699 86.9394 70.793 86.9394 70.6195C86.9394 70.2655 86.904 69.9363 86.8792 69.6106C86.7765 68.3079 86.6456 67.1786 86.5429 66.2547C86.4402 65.3307 86.3447 64.6192 86.2845 64.1307C86.2562 63.8899 86.2349 63.7059 86.2172 63.5713C86.1995 63.4368 86.2774 63.32 86.2774 63.32Z" fill="#EB996E"/>
<path d="M86.0438 52.5513C85.9517 52.4162 85.8525 52.2863 85.7464 52.1619C85.6142 52.0312 85.461 51.9235 85.2933 51.8433C85.1957 51.7882 85.0828 51.7664 84.9717 51.7811C84.8606 51.7958 84.7573 51.8462 84.6774 51.9247L84.6951 51.868C84.7411 52.222 84.8119 52.6468 84.8473 53.1C84.8827 53.5531 84.8933 54.0381 84.8791 54.5443C84.8352 55.6152 84.7038 56.6808 84.4862 57.7303C84.4048 58.1303 84.334 58.4383 84.2809 58.6755C84.265 58.798 84.2304 58.9174 84.1782 59.0295C84.2121 58.5898 84.2712 58.1525 84.3552 57.7197C84.539 56.6767 84.6572 55.6233 84.7092 54.5655C84.7092 54.0664 84.7092 53.5885 84.6844 53.1495C84.6597 52.7106 84.5959 52.2928 84.5605 51.9247V51.8928L84.5782 51.868C84.6288 51.8108 84.6909 51.7648 84.7605 51.7331C84.83 51.7014 84.9054 51.6847 84.9818 51.684C85.1125 51.6834 85.2414 51.715 85.357 51.776C85.5332 51.8627 85.6907 51.9829 85.8208 52.13C85.9022 52.2266 85.97 52.3338 86.0226 52.4486C86.0403 52.5052 86.0509 52.5513 86.0438 52.5513Z" fill="#EB996E"/>
<path d="M86.1393 57.1391C86.0993 56.957 86.071 56.7726 86.0543 56.5869C86.0282 56.3804 85.9569 56.1822 85.8454 56.0063C85.6713 55.8054 85.4268 55.6787 85.1622 55.6523L85.2578 55.5815C85.2366 56.2541 85.1941 57.0613 85.1091 57.9215C84.9923 59.1286 84.8188 60.2189 84.6702 61.0013C84.5923 61.3907 84.5215 61.7093 84.4684 61.9217C84.4505 62.037 84.4159 62.1491 84.3657 62.2544C84.4012 61.8257 84.4591 61.3992 84.5392 60.9765C84.6595 60.1942 84.8118 59.1074 84.925 57.9038C85.01 57.0471 85.0631 56.2435 85.102 55.5745V55.4824L85.1941 55.5001C85.4929 55.5429 85.7634 55.7003 85.9481 55.9391C86.0603 56.1341 86.1268 56.3519 86.1428 56.5763C86.1716 56.7629 86.1705 56.9529 86.1393 57.1391Z" fill="#EB996E"/>
<path d="M84.3976 63.5288C84.3657 63.5678 84.1675 63.4191 84.1427 63.1394C84.1179 62.8597 84.2807 62.6721 84.3197 62.7075C84.3586 62.7429 84.302 62.9093 84.3197 63.1217C84.3374 63.3341 84.4259 63.4934 84.3976 63.5288Z" fill="#EB996E"/>
<path d="M83.8563 60.6119C83.8103 60.6296 83.6757 60.3641 83.7005 60.0031C83.7253 59.642 83.8952 59.3977 83.9377 59.4225C83.9802 59.4473 83.9023 59.6986 83.8846 60.0172C83.8669 60.3358 83.9059 60.5942 83.8563 60.6119Z" fill="#EB996E"/>
<path d="M91.0631 70.0283C90.7976 68.6124 90.3197 64.1555 90.2418 63.6245C90.1639 63.0935 88.7196 60.5942 88.2027 58.272C87.6859 55.9498 87.3071 51.7726 87.3071 51.7726C87.3071 51.7726 85.9796 51.5814 85.9619 53.1071L86.546 64.913C86.546 64.913 86.0221 72.2338 86.3655 73.2391C86.7089 74.2445 87.916 74.9808 87.916 74.9808L89.0382 76.3402L92.2242 73.5082C91.7394 72.3832 91.3509 71.2191 91.0631 70.0283Z" fill="#FFBE9D"/>
<path d="M91.0633 70.0284C91.0633 70.0284 91.0633 70.0461 91.0633 70.085C91.0633 70.1239 91.0881 70.1912 91.1058 70.262C91.1482 70.4213 91.2049 70.6514 91.2969 70.97C91.5673 71.8374 91.8816 72.6904 92.2386 73.5259V73.5542L92.2138 73.579L89.0526 76.411L88.9995 76.457L88.957 76.4039L87.8277 75.0481H87.8454C87.5135 74.8334 87.207 74.5817 86.9321 74.2976C86.6315 73.9975 86.4006 73.635 86.256 73.2356C86.1725 72.8113 86.1345 72.3794 86.1427 71.947C86.1427 71.5116 86.1427 71.0691 86.1427 70.6195C86.1816 68.8212 86.2878 66.9061 86.4223 64.8989C86.3232 62.9377 86.2206 60.8598 86.1144 58.7287C86.0471 57.3552 85.9798 56.01 85.9161 54.7037C85.9161 54.3745 85.8843 54.0523 85.8666 53.7302C85.8365 53.4064 85.8365 53.0805 85.8666 52.7567C85.8846 52.5886 85.9363 52.4259 86.0183 52.2782C86.1004 52.1304 86.2113 52.0006 86.3445 51.8965C86.6195 51.7066 86.9543 51.6236 87.2861 51.6628H87.3534V51.7372C87.4808 53.0895 87.6259 54.3957 87.7994 55.6312C87.9364 56.8176 88.1649 57.9916 88.4826 59.1429C88.8098 60.1528 89.2 61.1412 89.6508 62.1023C89.8526 62.559 90.0615 62.9838 90.2172 63.4227C90.2706 63.6448 90.3049 63.871 90.3199 64.0989C90.3447 64.3148 90.3694 64.5272 90.3942 64.7325C90.5783 66.3892 90.727 67.7026 90.8403 68.6053C90.8969 69.0442 90.9429 69.3912 90.9748 69.6354L91.0137 69.9009C91.0177 69.9315 91.0177 69.9624 91.0137 69.993C91.0024 69.9644 90.9941 69.9347 90.9889 69.9045C90.9889 69.8372 90.9606 69.7487 90.9394 69.639C90.8969 69.4053 90.8403 69.0619 90.773 68.6124C90.642 67.7132 90.4756 66.3999 90.2774 64.7467C90.2526 64.5414 90.2243 64.329 90.1995 64.113C90.1803 63.8938 90.146 63.6762 90.0969 63.4617C89.9446 63.0404 89.7252 62.6085 89.5234 62.1589C89.0631 61.194 88.6647 60.2008 88.3304 59.1853C88.0046 58.0251 87.768 56.8416 87.6224 55.6453C87.4501 54.3945 87.2991 53.0965 87.1693 51.7513L87.2436 51.8292C86.958 51.7982 86.6707 51.8697 86.433 52.031C86.3188 52.1221 86.224 52.2352 86.1541 52.3634C86.0842 52.4917 86.0406 52.6326 86.0259 52.7779C85.996 53.0911 85.996 53.4064 86.0259 53.7196C86.0259 54.0382 86.0577 54.3639 86.0719 54.6895C86.1391 55.9993 86.2064 57.3445 86.2737 58.7145C86.3799 60.8385 86.479 62.92 86.5781 64.8812C86.44 66.8813 86.3303 68.8 86.2843 70.5912C86.2843 71.0408 86.2666 71.4798 86.2843 71.9116C86.2759 72.3294 86.3103 72.7469 86.3869 73.1577C86.5237 73.5302 86.7399 73.8684 87.0206 74.1489C87.2863 74.4252 87.5819 74.671 87.9021 74.8817L89.0242 76.2446H88.9287L92.1147 73.4445V73.4976C91.7645 72.6566 91.4631 71.7961 91.212 70.9204C91.127 70.616 91.0739 70.3824 91.0456 70.2124L91.0137 70.0319C91.0633 70.0496 91.0597 70.0284 91.0633 70.0284Z" fill="#EB996E"/>
<path d="M86.0151 54.1833C86.0463 54.0689 86.0953 53.9602 86.1603 53.8611C86.2243 53.7361 86.3001 53.6176 86.3868 53.5071C86.501 53.3462 86.6674 53.2299 86.8577 53.1779C86.9837 53.1597 87.1122 53.1848 87.2222 53.2491C87.3321 53.3134 87.417 53.4131 87.463 53.5319C87.5269 53.7862 87.5472 54.0496 87.5232 54.3107C87.5232 54.8417 87.5515 55.4258 87.6081 56.0347C87.7146 57.0753 87.8777 58.1093 88.0967 59.1322C88.2056 59.554 88.2896 59.9819 88.348 60.4137C88.294 60.3091 88.2524 60.1986 88.2241 60.0844C88.1604 59.8685 88.0683 59.5534 87.9692 59.164C87.711 58.1417 87.5287 57.1016 87.4241 56.0524C87.3703 55.4734 87.3466 54.8921 87.3533 54.3107C87.3801 54.0745 87.3694 53.8355 87.3214 53.6027C87.2897 53.5137 87.2295 53.4377 87.1501 53.3864C87.0707 53.3352 86.9766 53.3117 86.8824 53.3195C86.7185 53.3611 86.5729 53.4557 86.4683 53.5885C86.3776 53.6882 86.2948 53.7948 86.2205 53.9071C86.1625 54.0065 86.0936 54.0991 86.0151 54.1833Z" fill="#EB996E"/>
<path d="M86.2492 58.9127C86.2307 58.8616 86.2211 58.8077 86.2209 58.7534C86.2096 58.6026 86.2096 58.4511 86.2209 58.3003C86.2325 58.0618 86.289 57.8276 86.3872 57.61C86.4546 57.4632 86.5527 57.3326 86.6748 57.227C86.7969 57.1213 86.9403 57.0431 87.0952 56.9976L87.1837 56.9692V57.0648C87.2652 57.7126 87.3678 58.4808 87.5059 59.2986C87.7077 60.5128 87.9378 61.6066 88.1148 62.3925C88.2272 62.8146 88.317 63.2423 88.3838 63.674C88.3256 63.571 88.2827 63.4601 88.2564 63.3448C88.1856 63.1288 88.0935 62.8173 87.9873 62.4244C87.7785 61.642 87.5271 60.5517 87.3253 59.3304C87.1873 58.5091 87.0917 57.7374 87.0244 57.0825L87.1271 57.1498C86.991 57.1863 86.8641 57.2513 86.7549 57.3403C86.6457 57.4294 86.5566 57.5406 86.4934 57.6666C86.3934 57.8689 86.3288 58.0868 86.3023 58.3109C86.2598 58.6897 86.274 58.9127 86.2492 58.9127Z" fill="#EB996E"/>
<path d="M88.4615 64.9519C88.419 64.92 88.5004 64.7536 88.5004 64.5412C88.5004 64.3288 88.4367 64.1589 88.4792 64.1271C88.5217 64.0952 88.6916 64.2616 88.6845 64.5448C88.6774 64.828 88.4934 64.9908 88.4615 64.9519Z" fill="#EB996E"/>
<path d="M88.784 62.0067C88.7309 62.0067 88.7592 61.727 88.7132 61.412C88.6672 61.0969 88.5752 60.8491 88.6212 60.8243C88.6672 60.7996 88.8477 61.0297 88.8973 61.3872C88.9469 61.7447 88.83 62.0209 88.784 62.0067Z" fill="#EB996E"/>
<g opacity="0.3">
<path d="M90.2351 76.2304C89.5802 75.4728 88.7518 74.7117 87.7571 74.7188C86.8685 74.7188 86.111 75.3383 85.4809 75.9613C83.4529 78.0405 81.7926 80.4489 80.5709 83.0838C79.3 85.6857 77.7601 88.8151 76.7937 91.5444C78.9177 91.0984 80.801 89.7744 82.2347 88.1354C83.6684 86.4964 84.7127 84.5458 85.6225 82.5741C85.9411 81.8944 86.3977 81.105 87.1482 81.0873C87.7004 81.0873 88.1536 81.5156 88.5005 81.9475C89.4952 83.2042 90.1643 84.6839 90.8652 86.1247C91.5661 87.5655 92.3308 89.0098 93.4706 90.139C94.6105 91.2683 96.1929 92.0506 97.7859 91.8736C95.9663 86.3335 94.0583 80.6341 90.2351 76.2304Z" fill="black"/>
</g>
<path d="M68.5278 55.932C68.5278 55.932 63.8869 58.856 63.7488 64.6156C63.6108 70.3752 63.9542 85.7282 64.9843 87.7849C66.0144 89.8417 66.7543 97.2438 73.4166 94.1569C77.1513 92.4259 81.2046 86.8079 83.8596 82.0926C85.1042 79.8914 86.1834 77.6006 87.0881 75.2392L80.8187 71.1965L72.9351 80.5173L72.6909 71.554L68.5278 55.932Z" fill="#009A46"/>
<path d="M72.9353 80.5067C72.9353 80.5385 72.6521 80.5562 72.2273 80.6766C71.6644 80.8409 71.1381 81.1112 70.6767 81.4731C70.2161 81.8416 69.796 82.2581 69.4236 82.7156C69.279 82.9163 69.118 83.1046 68.9421 83.2785C69.0332 83.046 69.1611 82.8296 69.3209 82.6377C69.67 82.1437 70.0885 81.7026 70.5635 81.3279C71.0408 80.9478 71.5992 80.6826 72.1954 80.5527C72.4363 80.4868 72.6881 80.4712 72.9353 80.5067Z" fill="#263238"/>
<path d="M72.896 80.4359C72.279 80.4191 71.6617 80.4439 71.0481 80.5103C70.4482 80.6392 69.857 80.8059 69.2781 81.0094C69.7916 80.6339 70.3945 80.3995 71.0268 80.3297C71.6483 80.1992 72.2933 80.2358 72.896 80.4359Z" fill="#263238"/>
<path d="M87.0881 75.2285C87.0781 75.2941 87.0603 75.3583 87.035 75.4197L86.8439 75.9542C86.6775 76.418 86.412 77.0764 86.0651 77.8871C85.1438 79.9883 84.0646 82.0166 82.8366 83.9546C81.6039 85.8892 80.2426 87.7389 78.7621 89.4912C78.1957 90.1638 77.7248 90.6983 77.3885 91.0559L76.9991 91.47C76.9553 91.5196 76.9067 91.5646 76.854 91.6046C76.8865 91.547 76.9257 91.4936 76.9708 91.4453L77.3248 91.0098C77.6434 90.6346 78.0965 90.0894 78.6523 89.4098C80.0982 87.6378 81.4397 85.7833 82.6702 83.8555C83.8924 81.9252 84.9828 79.9147 85.9341 77.8375C86.2881 77.0375 86.5819 76.3861 86.766 75.9294C86.858 75.7206 86.9288 75.5471 86.989 75.4091C87.014 75.3448 87.0474 75.2841 87.0881 75.2285Z" fill="#263238"/>
<path d="M72.6908 71.5435C72.6958 71.6 72.6958 71.6568 72.6908 71.7134C72.6908 71.8408 72.7085 72.0037 72.7191 72.2054C72.7368 72.6515 72.7616 73.2674 72.7935 74.0533C72.8466 75.6534 72.9174 77.8871 73.0023 80.5032L72.8536 80.4501L76.3016 76.3614L80.7372 71.1328L80.7832 71.0762L80.8434 71.1151L85.3675 74.0746L86.6313 74.9171L86.9605 75.1436C87.0004 75.1674 87.0373 75.1959 87.0703 75.2286C87.0276 75.2127 86.9871 75.1913 86.9499 75.1649L86.5959 74.9596L85.3074 74.1524L80.7514 71.2532L80.854 71.2355L76.4361 76.4818L72.9775 80.5634L72.8289 80.7333V80.5103C72.7722 77.8907 72.7227 75.6569 72.6873 74.0569C72.6873 73.2781 72.666 72.6409 72.6589 72.2054V71.7134C72.665 71.656 72.6757 71.5992 72.6908 71.5435Z" fill="#263238"/>
<path d="M106.254 54.1266C106.254 54.1266 110.176 56.1125 110.349 65.3342C110.523 74.5559 111.21 85.4945 110.349 87.392C109.698 88.808 108.169 93.1445 105.393 94.6242C104.558 95.0667 103.924 95.0879 102.784 94.9216C98.9966 94.3693 94.0264 89.9408 90.2492 82.6696C87.3748 77.1366 87.1978 74.5736 87.1978 74.5736L92.4724 69.2636L102.77 82.0324L102.961 69.7911L106.254 54.1266Z" fill="#009A46"/>
<path d="M102.88 70.1593C102.88 70.1593 102.88 70.2301 102.88 70.3717C102.88 70.5133 102.88 70.7257 102.88 70.9912C102.88 71.5434 102.88 72.3399 102.88 73.363C102.88 75.4304 102.852 78.3969 102.83 82.0324V82.2271L102.71 82.0749L92.3944 69.3309H92.5289L88.4508 73.4409L87.2543 74.6445L87.2791 74.5595C88.2514 78.6669 89.9865 82.5552 92.3944 86.022C94.3057 88.8686 96.6936 91.3643 99.4531 93.3994C100.005 93.8137 100.598 94.1697 101.223 94.4614C101.511 94.5907 101.809 94.6938 102.115 94.7694C102.406 94.8307 102.701 94.8756 102.997 94.9039C103.976 95.0228 104.967 94.8282 105.829 94.3481C106.357 94.0211 106.814 93.5899 107.17 93.0808C107.294 92.9109 107.386 92.7728 107.443 92.6808C107.5 92.5887 107.538 92.5462 107.538 92.5462C107.432 92.7388 107.314 92.9245 107.184 93.102C106.838 93.6264 106.384 94.0716 105.853 94.4083C104.981 94.9081 103.971 95.1164 102.972 95.003C102.685 94.9676 102.384 94.9428 102.076 94.8756C101.763 94.8005 101.457 94.6962 101.163 94.5641C100.53 94.2748 99.9293 93.9187 99.3717 93.5021C96.5872 91.4723 94.1771 88.9736 92.2492 86.1176C89.8201 82.6334 88.0714 78.7215 87.095 74.5878V74.5383L87.1304 74.5029L88.3269 73.2957L92.4085 69.1893L92.4793 69.115L92.543 69.1964C96.437 74.0391 99.977 78.4323 102.809 81.9793L102.685 82.0218C102.735 78.3862 102.77 75.4233 102.798 73.3559C102.816 72.3328 102.83 71.5363 102.841 70.9841C102.841 70.7151 102.841 70.5097 102.841 70.3646C102.85 70.2955 102.863 70.227 102.88 70.1593Z" fill="#263238"/>
<path d="M106.976 86.7867C106.782 86.5455 106.604 86.2912 106.445 86.0256C106.024 85.4126 105.563 84.8284 105.064 84.2768C104.562 83.7288 104.032 83.2077 103.475 82.7157C103.23 82.524 103.001 82.312 102.792 82.082C103.067 82.2294 103.323 82.4089 103.556 82.6166C104.146 83.0823 104.697 83.5962 105.202 84.1529C105.708 84.71 106.161 85.3132 106.555 85.9548C106.732 86.2117 106.874 86.4915 106.976 86.7867Z" fill="#263238"/>
<path d="M105.832 55.9745C105.857 55.9957 105.549 56.3745 105.124 57.0365C104.003 58.7565 103.27 60.7002 102.976 62.7324C102.862 63.5112 102.841 63.9997 102.809 63.9997C102.789 63.8829 102.783 63.7639 102.792 63.6457C102.793 63.3321 102.811 63.0189 102.848 62.7076C103.072 60.6371 103.819 58.6576 105.018 56.9551C105.197 56.698 105.39 56.4511 105.595 56.2152C105.663 56.1248 105.743 56.0438 105.832 55.9745Z" fill="#263238"/>
<path d="M71.827 65.4192C71.7987 65.4192 71.735 64.9484 71.5934 64.1873C71.4132 63.1965 71.1768 62.2167 70.8854 61.2526C70.5895 60.2907 70.2421 59.3453 69.8446 58.4206C69.6609 58.0447 69.4967 57.6595 69.3525 57.2666C69.4262 57.3524 69.4881 57.4477 69.5366 57.5498C69.6464 57.7374 69.7915 58.0171 69.9614 58.3675C70.3994 59.2824 70.7674 60.2291 71.0624 61.1995C71.356 62.1707 71.5773 63.1622 71.7243 64.1661C71.7774 64.5519 71.8093 64.8741 71.8235 65.0794C71.8416 65.1918 71.8428 65.3064 71.827 65.4192Z" fill="#263238"/>
<g opacity="0.3">
<path d="M107.489 86.7619C107.321 86.0158 106.932 85.3374 106.374 84.8149C105.337 83.7033 104.117 82.7777 102.767 82.0785C104.441 83.4187 105.882 85.0262 107.032 86.8363C107.121 86.9779 107.294 87.1372 107.425 87.0345C107.459 86.9985 107.482 86.9544 107.493 86.9066C107.504 86.8588 107.503 86.809 107.489 86.7619Z" fill="black"/>
</g>
<g opacity="0.3">
<path d="M72.8675 80.496C71.784 80.3318 70.6767 80.5363 69.7234 81.0768C68.7701 81.6174 68.026 82.4626 67.6106 83.4767C67.5249 83.6607 67.4814 83.8614 67.4832 84.0644C67.4867 84.1653 67.5179 84.2633 67.5735 84.3477C67.6291 84.432 67.7069 84.4993 67.7983 84.5423C67.9096 84.5748 68.0283 84.5726 68.1383 84.5359C68.2484 84.4992 68.3447 84.4298 68.4142 84.337C68.5528 84.1513 68.6604 83.9445 68.7328 83.7245C69.108 82.8485 69.7098 82.0883 70.4764 81.5221C71.2429 80.9559 72.1465 80.6042 73.0941 80.5031L72.8675 80.496Z" fill="black"/>
</g>
<path d="M163.34 167.831C163.34 167.881 130.064 167.923 89.0002 167.923C47.9362 167.923 14.6602 167.881 14.6602 167.831C14.6602 167.782 47.9362 167.739 89.0179 167.739C130.1 167.739 163.34 167.796 163.34 167.831Z" fill="#263238"/>
</svg>