<svg xmlns="http://www.w3.org/2000/svg" fill="none" x="0px" y="0px" viewBox="2 8 28 16"><path d="M12 14C12 13.4477 11.5523 13 11 13C10.4477 13 10 13.4477 10 14V15C10 15.5523 10.4477 16 11 16C11.5523 16 12 15.5523 12 15V14Z" fill="#676767"/><path d="M11 17C11.5523 17 12 17.4477 12 18V19C12 19.5523 11.5523 20 11 20C10.4477 20 10 19.5523 10 19V18C10 17.4477 10.4477 17 11 17Z" fill="#676767"/><path fill-rule="evenodd" clip-rule="evenodd" d="M2 9C2 8.44772 2.44772 8 3 8H29C29.5523 8 30 8.44772 30 9V13C30 13.5523 29.5523 14 29 14C27.8954 14 27 14.8954 27 16C27 17.1046 27.8954 18 29 18C29.5523 18 30 18.4477 30 19V23C30 23.5523 29.5523 24 29 24H3C2.44772 24 2 23.5523 2 23V19C2 18.4477 2.44772 18 3 18C4.10457 18 5 17.1046 5 16C5 14.8954 4.10457 14 3 14C2.44772 14 2 13.5523 2 13V9ZM12 22C12 21.4477 11.5523 21 11 21C10.4477 21 10 21.4477 10 22H4V19.874C5.72523 19.4299 7 17.8638 7 16C7 14.1362 5.72523 12.5701 4 12.126V10L10 10V11C10 11.5523 10.4477 12 11 12C11.5523 12 12 11.5523 12 11V10H28V12.126C26.2748 12.5701 25 14.1362 25 16C25 17.8638 26.2748 19.4299 28 19.874V22H12Z" fill="#676767"/></svg>