<svg width="29" height="16" viewBox="0 0 29 16" fill="none" xmlns="http://www.w3.org/2000/svg">
<path d="M26.8916 5.79865H27.9083C28.0404 5.79865 28.1672 5.74395 28.2606 5.6466C28.3541 5.54924 28.4066 5.4172 28.4066 5.27952V1.04864C28.4057 0.770815 28.2993 0.504647 28.1107 0.308197C27.9222 0.111747 27.6666 0.000957776 27.3999 0H1.00669C0.739983 0.000957776 0.484461 0.111747 0.295869 0.308197C0.107276 0.504647 0.000919465 0.770815 0 1.04864V5.27952C0 5.4172 0.0525058 5.54924 0.145967 5.6466C0.239428 5.74395 0.366188 5.79865 0.498362 5.79865H1.51502C2.05561 5.79865 2.57406 6.02234 2.95631 6.42053C3.33857 6.81871 3.55332 7.35876 3.55332 7.92187C3.55332 8.48499 3.33857 9.02504 2.95631 9.42322C2.57406 9.82141 2.05561 10.0451 1.51502 10.0451H0.498362C0.366188 10.0451 0.239428 10.0998 0.145967 10.1972C0.0525058 10.2945 0 10.4265 0 10.5642V14.7951C0.000919465 15.0729 0.107276 15.3391 0.295869 15.5356C0.484461 15.732 0.739983 15.8428 1.00669 15.8437H27.3999C27.6666 15.8428 27.9222 15.732 28.1107 15.5356C28.2993 15.3391 28.4057 15.0729 28.4066 14.7951V10.5642C28.4066 10.4265 28.3541 10.2945 28.2606 10.1972C28.1672 10.0998 28.0404 10.0451 27.9083 10.0451H26.8916C26.351 10.0451 25.8326 9.82141 25.4503 9.42322C25.068 9.02504 24.8533 8.48499 24.8533 7.92187C24.8533 7.35876 25.068 6.81871 25.4503 6.42053C25.8326 6.02234 26.351 5.79865 26.8916 5.79865ZM26.8916 11.0834H27.4099L27.3999 14.8055L0.996723 14.7951V11.0834H1.51502C2.31996 11.0834 3.09193 10.7503 3.6611 10.1574C4.23028 9.56449 4.55004 8.76035 4.55004 7.92187C4.55004 7.0834 4.23028 6.27926 3.6611 5.68637C3.09193 5.09348 2.31996 4.76039 1.51502 4.76039H0.996723L1.00669 1.03825L27.4099 1.04864V4.76039H26.8916C26.0867 4.76039 25.3147 5.09348 24.7455 5.68637C24.1763 6.27926 23.8566 7.0834 23.8566 7.92187C23.8566 8.76035 24.1763 9.56449 24.7455 10.1574C25.3147 10.7503 26.0867 11.0834 26.8916 11.0834Z" fill="#5201BB"/>
<path d="M14.2034 2.11499C14.0713 2.11499 13.9445 2.16968 13.851 2.26704C13.7576 2.36439 13.7051 2.49644 13.7051 2.63412V3.6921C13.7051 3.82978 13.7576 3.96182 13.851 4.05918C13.9445 4.15653 14.0713 4.21122 14.2034 4.21122C14.3356 4.21122 14.4624 4.15653 14.5558 4.05918C14.6493 3.96182 14.7018 3.82978 14.7018 3.6921V2.63412C14.7018 2.49644 14.6493 2.36439 14.5558 2.26704C14.4624 2.16968 14.3356 2.11499 14.2034 2.11499Z" fill="#5201BB"/>
<path d="M14.2034 11.6326C14.0713 11.6326 13.9445 11.6873 13.851 11.7846C13.7576 11.882 13.7051 12.014 13.7051 12.1517V13.2097C13.7051 13.3474 13.7576 13.4794 13.851 13.5768C13.9445 13.6741 14.0713 13.7288 14.2034 13.7288C14.3356 13.7288 14.4624 13.6741 14.5558 13.5768C14.6493 13.4794 14.7018 13.3474 14.7018 13.2097V12.1517C14.7018 12.014 14.6493 11.882 14.5558 11.7846C14.4624 11.6873 14.3356 11.6326 14.2034 11.6326Z" fill="#5201BB"/>
<path d="M14.2034 8.46021C14.0713 8.46021 13.9445 8.5149 13.851 8.61226C13.7576 8.70961 13.7051 8.84165 13.7051 8.97933V10.0368C13.7051 10.1745 13.7576 10.3065 13.851 10.4039C13.9445 10.5012 14.0713 10.5559 14.2034 10.5559C14.3356 10.5559 14.4624 10.5012 14.5558 10.4039C14.6493 10.3065 14.7018 10.1745 14.7018 10.0368V8.97933C14.7018 8.84165 14.6493 8.70961 14.5558 8.61226C14.4624 8.5149 14.3356 8.46021 14.2034 8.46021Z" fill="#5201BB"/>
<path d="M14.2034 5.28784C14.0713 5.28784 13.9445 5.34253 13.851 5.43989C13.7576 5.53725 13.7051 5.66929 13.7051 5.80697V6.86443C13.7051 7.00211 13.7576 7.13415 13.851 7.23151C13.9445 7.32886 14.0713 7.38356 14.2034 7.38356C14.3356 7.38356 14.4624 7.32886 14.5558 7.23151C14.6493 7.13415 14.7018 7.00211 14.7018 6.86443V5.80697C14.7018 5.66929 14.6493 5.53725 14.5558 5.43989C14.4624 5.34253 14.3356 5.28784 14.2034 5.28784Z" fill="#5201BB"/>
<path d="M6.58943 5.26872H8.62174C8.75392 5.26872 8.88068 5.21403 8.97414 5.11667C9.0676 5.01932 9.12011 4.88728 9.12011 4.7496C9.12011 4.61191 9.0676 4.47987 8.97414 4.38252C8.88068 4.28516 8.75392 4.23047 8.62174 4.23047H6.58943C6.45725 4.23047 6.33049 4.28516 6.23703 4.38252C6.14357 4.47987 6.09106 4.61191 6.09106 4.7496C6.09106 4.88728 6.14357 5.01932 6.23703 5.11667C6.33049 5.21403 6.45725 5.26872 6.58943 5.26872Z" fill="#5201BB"/>
<path d="M6.58943 8.44084H9.63491C9.76709 8.44084 9.89385 8.38615 9.98731 8.28879C10.0808 8.19144 10.1333 8.0594 10.1333 7.92171C10.1333 7.78403 10.0808 7.65199 9.98731 7.55464C9.89385 7.45728 9.76709 7.40259 9.63491 7.40259H6.58943C6.45725 7.40259 6.33049 7.45728 6.23703 7.55464C6.14357 7.65199 6.09106 7.78403 6.09106 7.92171C6.09106 8.0594 6.14357 8.19144 6.23703 8.28879C6.33049 8.38615 6.45725 8.44084 6.58943 8.44084Z" fill="#5201BB"/>
<path d="M10.6506 10.575H6.58943C6.45725 10.575 6.33049 10.6296 6.23703 10.727C6.14357 10.8244 6.09106 10.9564 6.09106 11.0941C6.09106 11.2318 6.14357 11.3638 6.23703 11.4612C6.33049 11.5585 6.45725 11.6132 6.58943 11.6132H10.6506C10.7827 11.6132 10.9095 11.5585 11.003 11.4612C11.0964 11.3638 11.1489 11.2318 11.1489 11.0941C11.1489 10.9564 11.0964 10.8244 11.003 10.727C10.9095 10.6296 10.7827 10.575 10.6506 10.575Z" fill="#5201BB"/>
<path d="M17.7566 4.23071C17.4577 4.23123 17.1656 4.324 16.9172 4.49732C16.6689 4.67064 16.4754 4.91674 16.3612 5.20452C16.2471 5.49231 16.2173 5.80889 16.2758 6.11427C16.3342 6.41966 16.4782 6.70016 16.6896 6.92034C16.901 7.14053 17.1703 7.29053 17.4634 7.35141C17.7566 7.41229 18.0605 7.3813 18.3368 7.26238C18.6131 7.14345 18.8493 6.94191 19.0157 6.68321C19.1821 6.42451 19.2711 6.12025 19.2716 5.80886C19.271 5.39052 19.1111 4.98951 18.8272 4.6937C18.5432 4.39789 18.1582 4.2314 17.7566 4.23071ZM17.7566 6.34356C17.6546 6.34304 17.555 6.31103 17.4705 6.25157C17.3859 6.1921 17.3202 6.10785 17.2816 6.00948C17.243 5.91111 17.2333 5.80303 17.2537 5.6989C17.2741 5.59478 17.3237 5.49929 17.3962 5.42451C17.4686 5.34974 17.5608 5.29902 17.6609 5.2788C17.7611 5.25857 17.8647 5.26973 17.9588 5.31087C18.0529 5.35201 18.1331 5.42128 18.1894 5.50992C18.2456 5.59856 18.2754 5.70259 18.2749 5.80886C18.274 5.95127 18.2189 6.0875 18.1218 6.18772C18.0246 6.28794 17.8933 6.34397 17.7566 6.34356Z" fill="#5201BB"/>
<path d="M21.8182 8.46192C21.5189 8.4614 21.2261 8.55343 20.977 8.72636C20.7279 8.89929 20.5336 9.14533 20.4188 9.43333C20.304 9.72133 20.2739 10.0383 20.3322 10.3442C20.3904 10.6501 20.5346 10.931 20.7462 11.1515C20.9579 11.372 21.2276 11.5222 21.5213 11.5829C21.8149 11.6436 22.1192 11.6122 22.3957 11.4926C22.6722 11.373 22.9084 11.1707 23.0744 10.9112C23.2404 10.6517 23.3288 10.3467 23.3283 10.0349C23.3274 9.61799 23.168 9.21846 22.885 8.92368C22.602 8.6289 22.2184 8.46288 21.8182 8.46192ZM21.8182 10.5748C21.6814 10.5748 21.5502 10.5182 21.4535 10.4174C21.3568 10.3166 21.3024 10.18 21.3024 10.0375C21.3024 9.89497 21.3568 9.7583 21.4535 9.65754C21.5502 9.55678 21.6814 9.50017 21.8182 9.50017C21.955 9.50017 22.0862 9.55678 22.183 9.65754C22.2797 9.7583 22.334 9.89497 22.334 10.0375C22.334 10.18 22.2797 10.3166 22.183 10.4174C22.0862 10.5182 21.955 10.5748 21.8182 10.5748Z" fill="#5201BB"/>
<path d="M22.6754 4.91078C22.582 4.81346 22.4552 4.75879 22.3231 4.75879C22.1909 4.75879 22.0642 4.81346 21.9707 4.91078L16.8944 10.1986C16.8482 10.2469 16.8115 10.3043 16.7865 10.3674C16.7615 10.4305 16.7487 10.4981 16.7488 10.5664C16.749 10.7042 16.8017 10.8364 16.8954 10.9337C16.9891 11.031 17.1161 11.0856 17.2485 11.0854C17.3808 11.0852 17.5077 11.0303 17.6011 10.9327L22.6754 5.64483C22.7689 5.54748 22.8213 5.41546 22.8213 5.2778C22.8213 5.14015 22.7689 5.00813 22.6754 4.91078Z" fill="#5201BB"/>
</svg>
