<svg xmlns="http://www.w3.org/2000/svg" fill="none" viewBox="0.47 25.11 239.38 185.37">
<path d="M29.3408 198.425C51.4328 211.263 81.1408 213.335 105.865 207.091C118.283 203.948 127.509 197.389 138.212 191.145C153.206 182.388 164.42 183.312 181.213 182.318C230.094 179.434 244.073 132.408 238.816 99.8368C232.432 60.2307 196.256 29.0037 152.968 25.6927C123.827 23.4667 96.9048 27.5337 74.0918 39.9867C56.2838 49.7097 54.2608 65.0467 51.3558 82.8128C49.1368 96.3718 47.7228 111.513 39.3788 123.245C31.7418 133.976 20.6468 127.781 10.9308 135.145C-13.8282 153.821 10.7348 187.61 29.3408 198.425Z" fill="#009A46"/>
<path opacity="0.9" d="M29.3408 198.425C51.4328 211.263 81.1408 213.335 105.865 207.091C118.283 203.948 127.509 197.389 138.212 191.145C153.206 182.388 164.42 183.312 181.213 182.318C230.094 179.434 244.073 132.408 238.816 99.8368C232.432 60.2307 196.256 29.0037 152.968 25.6927C123.827 23.4667 96.9048 27.5337 74.0918 39.9867C56.2838 49.7097 54.2608 65.0467 51.3558 82.8127C49.1368 96.3717 47.7228 111.513 39.3788 123.245C31.7418 133.976 20.6468 127.781 10.9308 135.145C-13.8282 153.821 10.7348 187.61 29.3408 198.425Z" fill="white"/>
<path d="M85.8427 48.8077L85.4017 48.2617C88.4773 45.7668 91.6781 43.4304 94.9917 41.2617L95.3767 41.8497C92.0818 44.0044 88.8996 46.3268 85.8427 48.8077Z" fill="#263238"/>
<path d="M80.6767 53.2249L80.2007 52.7069C81.1387 51.8599 82.1047 51.0128 83.0637 50.1938L83.5187 50.7329C82.5597 51.5449 81.6077 52.3849 80.6767 53.2249Z" fill="#263238"/>
<path d="M158.204 138.654C191.715 109.297 202.114 66.3585 181.431 42.749C160.748 19.1394 116.814 23.799 83.3032 53.1564C49.7921 82.5138 39.393 125.452 60.0762 149.062C80.7594 172.671 124.693 168.012 158.204 138.654Z" fill="#263238"/>
<path d="M153.24 132.989C182.311 107.521 191.333 70.2731 173.391 49.7924C155.449 29.3118 117.337 33.3544 88.2665 58.8218C59.1958 84.2892 50.1742 121.537 68.1163 142.018C86.0584 162.499 124.17 158.456 153.24 132.989Z" fill="white"/>
<path d="M135.277 41.7729C104.974 44.2299 73.9077 70.4729 65.8857 100.335L175.625 91.4519C183.647 61.5619 165.58 39.3229 135.277 41.7729Z" fill="#009A46"/>
<path opacity="0.7" d="M65.8717 100.335L120.745 95.8898L92.2267 60.7498C79.6687 71.3618 69.8967 85.3898 65.8717 100.335Z" fill="white"/>
<path opacity="0.4" d="M135.277 41.7727C120.129 43.0047 104.785 50.1727 92.2267 60.7637L120.759 95.8897L135.277 41.7727Z" fill="white"/>
<path opacity="0.1" d="M135.277 41.7728L120.759 95.8898L169.822 54.4848C162.521 45.4968 150.432 40.5478 135.277 41.7728Z" fill="white"/>
<path d="M134.006 111.032C145.867 100.641 149.55 85.4446 142.231 77.0901C134.912 68.7356 119.363 70.3867 107.501 80.778C95.6398 91.1692 91.9573 106.366 99.2763 114.72C106.595 123.075 122.144 121.424 134.006 111.032Z" fill="white"/>
<path d="M128.489 104.735C135.41 98.6721 137.557 89.8037 133.285 84.9271C129.013 80.0505 119.939 81.0123 113.018 87.0753C106.097 93.1384 103.95 102.007 108.222 106.883C112.494 111.76 121.568 110.798 128.489 104.735Z" fill="#263238"/>
<path d="M161.828 66.9448C148.773 71.8746 136.394 78.4368 124.987 86.4748L130.146 95.7148C141.811 87.4161 152.446 77.7582 161.828 66.9448Z" fill="#263238"/>
<path d="M72.1717 120.992C72.0089 121 71.8463 120.971 71.6967 120.906C71.5471 120.841 71.4146 120.742 71.3095 120.617C71.2044 120.492 71.1296 120.345 71.091 120.187C71.0523 120.028 71.0509 119.863 71.0867 119.704C71.168 119.31 71.3714 118.952 71.6681 118.68C71.9647 118.409 72.3393 118.238 72.7387 118.192L133.072 113.411C133.242 113.385 133.416 113.401 133.579 113.458C133.742 113.514 133.889 113.61 134.006 113.736C134.123 113.863 134.208 114.016 134.252 114.182C134.297 114.349 134.3 114.524 134.262 114.692C134.183 115.085 133.98 115.442 133.685 115.713C133.389 115.983 133.015 116.153 132.617 116.197L72.3327 120.985L72.1717 120.992Z" fill="#009A46"/>
<path d="M124.357 126.732C124.193 126.742 124.03 126.713 123.88 126.649C123.73 126.584 123.596 126.485 123.491 126.36C123.386 126.235 123.311 126.087 123.273 125.928C123.235 125.769 123.234 125.603 123.272 125.444C123.351 125.05 123.554 124.692 123.851 124.421C124.149 124.15 124.524 123.981 124.924 123.939L144.524 122.378C144.695 122.35 144.87 122.365 145.034 122.422C145.197 122.478 145.345 122.573 145.463 122.7C145.581 122.826 145.667 122.98 145.711 123.147C145.756 123.314 145.76 123.49 145.721 123.659C145.64 124.053 145.437 124.412 145.141 124.683C144.844 124.955 144.469 125.126 144.069 125.171L124.469 126.725L124.357 126.732Z" fill="#009A46"/>
<path d="M24.6767 151.806C24.5139 151.814 24.3513 151.784 24.2017 151.72C24.0521 151.655 23.9196 151.556 23.8145 151.431C23.7094 151.306 23.6346 151.159 23.596 151C23.5573 150.842 23.5559 150.677 23.5917 150.518C23.6749 150.121 23.8827 149.76 24.1849 149.49C24.4871 149.219 24.8679 149.052 25.2717 149.013L44.8718 147.452C45.0424 147.426 45.2167 147.442 45.3796 147.499C45.5426 147.556 45.6893 147.651 45.8071 147.777C45.9249 147.904 46.0102 148.056 46.0558 148.223C46.1014 148.389 46.1059 148.564 46.0688 148.733C45.9888 149.126 45.7868 149.484 45.4914 149.755C45.1959 150.027 44.8223 150.198 44.4238 150.245L24.8237 151.799L24.6767 151.806Z" fill="#009A46"/>
<path d="M42.1347 140.347C41.972 140.355 41.8095 140.326 41.6601 140.261C41.5107 140.196 41.3784 140.097 41.2739 139.972C41.1693 139.847 41.0952 139.7 41.0575 139.541C41.0198 139.383 41.0196 139.217 41.0567 139.059C41.1369 138.666 41.3393 138.309 41.6348 138.039C41.9303 137.769 42.3038 137.599 42.7017 137.554L101.502 132.885C101.672 132.859 101.847 132.875 102.01 132.932C102.173 132.989 102.319 133.085 102.437 133.211C102.555 133.337 102.64 133.49 102.686 133.656C102.731 133.822 102.736 133.997 102.699 134.166C102.617 134.56 102.414 134.918 102.117 135.189C101.821 135.461 101.446 135.632 101.047 135.678L42.2467 140.34L42.1347 140.347Z" fill="#009A46"/>
</svg>