<svg width="150" height="150" viewBox="0 0 150 150" fill="none" xmlns="http://www.w3.org/2000/svg">
<path d="M150 114.72H0V114.795H150V114.72Z" fill="#E6E6E6"/>
<path d="M133.674 116.649H126.699V116.724H133.674V116.649Z" fill="#E6E6E6"/>
<path d="M108.3 118.278H75.1709V118.353H108.3V118.278Z" fill="#E6E6E6"/>
<path d="M60.999 118.317H57.75V118.392H60.999V118.317Z" fill="#E6E6E6"/>
<path d="M34.6679 117.417H23.3999V117.492H34.6679V117.417Z" fill="#E6E6E6"/>
<path d="M123.795 116.649H117.201V116.724H123.795V116.649Z" fill="#E6E6E6"/>
<path d="M20.9521 117.417H15.4951V117.492H20.9521V117.417Z" fill="#E6E6E6"/>
<path d="M71.0999 101.34H13.1729C12.7191 101.339 12.2842 101.158 11.9636 100.837C11.643 100.516 11.4629 100.081 11.4629 99.627V18.198C11.4668 17.7468 11.6486 17.3154 11.9688 16.9975C12.289 16.6795 12.7217 16.5008 13.1729 16.5H71.0999C71.5542 16.5 71.9899 16.6805 72.3112 17.0017C72.6324 17.323 72.8129 17.7587 72.8129 18.213V99.627C72.8129 100.081 72.6324 100.517 72.3112 100.838C71.9899 101.16 71.5542 101.34 71.0999 101.34ZM13.1729 16.56C12.739 16.5608 12.3231 16.7337 12.0166 17.0408C11.7101 17.3479 11.5379 17.7641 11.5379 18.198V99.627C11.5379 100.061 11.7101 100.477 12.0166 100.784C12.3231 101.091 12.739 101.264 13.1729 101.265H71.0999C71.5341 101.264 71.9502 101.091 72.2573 100.784C72.5643 100.477 72.7371 100.061 72.7379 99.627V18.198C72.7371 17.7638 72.5643 17.3476 72.2573 17.0406C71.9502 16.7336 71.5341 16.5608 71.0999 16.56H13.1729Z" fill="#E6E6E6"/>
<path d="M135.993 101.34H78.0631C77.609 101.339 77.1738 101.158 76.8527 100.837C76.5316 100.516 76.3509 100.081 76.3501 99.627V18.198C76.3548 17.7465 76.5373 17.3151 76.858 16.9973C77.1786 16.6794 77.6116 16.5008 78.0631 16.5H135.993C136.444 16.5016 136.876 16.6807 137.195 16.9985C137.515 17.3164 137.696 17.7473 137.7 18.198V99.627C137.7 100.08 137.52 100.515 137.2 100.836C136.881 101.157 136.446 101.338 135.993 101.34ZM78.0631 16.56C77.6289 16.5608 77.2127 16.7336 76.9057 17.0406C76.5987 17.3476 76.4259 17.7638 76.4251 18.198V99.627C76.4259 100.061 76.5987 100.477 76.9057 100.784C77.2127 101.091 77.6289 101.264 78.0631 101.265H135.993C136.427 101.264 136.843 101.091 137.15 100.784C137.457 100.477 137.63 100.061 137.631 99.627V18.198C137.63 17.7638 137.457 17.3476 137.15 17.0406C136.843 16.7336 136.427 16.5608 135.993 16.56H78.0631Z" fill="#E6E6E6"/>
<path d="M97.0712 61.5361H119.742V22.0651H97.0712V61.5361Z" fill="#E6E6E6"/>
<path d="M95.8471 61.5361H118.518V22.0651H95.8471V61.5361Z" fill="#F5F5F5"/>
<path d="M116.316 59.6849V23.9189H98.0429V59.6849H116.316Z" fill="#FAFAFA"/>
<path d="M98.9702 59.6849V23.9189H98.0432V59.6849H98.9702Z" fill="#E6E6E6"/>
<path d="M96.7559 51.0508H117.609V48.5638H96.7559V51.0508Z" fill="#F5F5F5"/>
<path d="M58.5419 61.5361H81.2129V22.0651H58.5419V61.5361Z" fill="#E6E6E6"/>
<path d="M57.3178 61.5361H79.9888V22.0651H57.3178V61.5361Z" fill="#F5F5F5"/>
<path d="M77.79 59.6849V23.9189H59.517V59.6849H77.79Z" fill="#FAFAFA"/>
<path d="M60.4409 59.682V23.916H59.5139V59.682H60.4409Z" fill="#E6E6E6"/>
<path d="M58.2271 51.0508H79.0801V48.5638H58.2271V51.0508Z" fill="#F5F5F5"/>
<path d="M20.016 61.5361H42.687L42.687 22.0651H20.016L20.016 61.5361Z" fill="#E6E6E6"/>
<path d="M18.7919 61.5361H41.4629L41.4629 22.0651H18.7919L18.7919 61.5361Z" fill="#F5F5F5"/>
<path d="M39.2612 59.682V23.916H20.9882L20.9882 59.682H39.2612Z" fill="#FAFAFA"/>
<path d="M21.915 59.6849L21.915 23.9189H20.988L20.988 59.6849H21.915Z" fill="#E6E6E6"/>
<path d="M19.7012 51.0508H40.5542V48.5638H19.7012V51.0508Z" fill="#F5F5F5"/>
<path d="M41.9999 85.9559C37.9109 86.5199 35.3819 77.6339 44.3999 70.1099C43.9289 78.8189 49.1339 84.9719 41.9999 85.9559Z" fill="#E6E6E6"/>
<path d="M39.0002 97.5929C33.0722 93.4379 37.1282 78.9209 55.4732 79.9739C47.5412 90.6599 49.3382 104.835 39.0002 97.5929Z" fill="#E0E0E0"/>
<path d="M41.0998 97.5001C45.0388 93.2581 39.4318 82.5811 25.2568 86.4811C33.2548 93.5011 34.2268 104.892 41.0998 97.5001Z" fill="#E0E0E0"/>
<path d="M36.0422 91.3078C34.6802 89.6488 33.0722 87.7828 33.4622 85.8088C33.8522 83.8348 34.8272 82.3678 34.0622 80.2678C33.1322 77.7478 33.3122 74.7418 34.8842 74.9938C36.4562 75.2458 38.2172 77.0938 38.1842 79.5268C38.1572 81.8908 39.6842 82.6468 41.1542 83.9038C42.6242 85.1608 43.1432 86.9998 43.4042 88.7998C43.8602 91.6588 47.5652 91.1188 48.5492 93.5998C49.5662 95.9998 47.5382 99.1948 44.2952 99.9298C41.0522 100.665 38.7422 101.13 36.5312 98.5919C34.2842 95.9189 38.0582 93.6838 36.0422 91.3078Z" fill="#F5F5F5"/>
<path d="M47.1991 114.72H35.0161L34.0981 98.124H48.1171L47.1991 114.72Z" fill="#EBEBEB"/>
<path d="M49.026 97.7852H33.189V99.5732H49.026V97.7852Z" fill="#EBEBEB"/>
<path d="M119.022 112.467H127.218V76.9258H119.022V112.467Z" fill="#EBEBEB"/>
<path d="M54.7951 114.72L125.643 114.72V112.467L54.7951 112.467V114.72Z" fill="#EBEBEB"/>
<path d="M119.022 76.9258H53.2231V112.467H119.022V76.9258Z" fill="#F5F5F5"/>
<path d="M115.8 81.2998H56.4448V92.9578H115.8V81.2998Z" fill="#EBEBEB"/>
<path d="M115.8 96.4351H56.4448V108.093H115.8V96.4351Z" fill="#EBEBEB"/>
<path d="M67.6588 87.9271H104.586C104.797 87.9263 105 87.842 105.149 87.6925C105.299 87.543 105.383 87.3405 105.384 87.1291C105.384 86.9172 105.3 86.7139 105.15 86.5638C105.001 86.4137 104.798 86.3289 104.586 86.3281H67.6588C67.4469 86.3289 67.244 86.4137 67.0944 86.5638C66.9448 86.7139 66.8608 86.9172 66.8608 87.1291C66.8616 87.3405 66.946 87.543 67.0954 87.6925C67.2449 87.842 67.4474 87.9263 67.6588 87.9271Z" fill="#F5F5F5"/>
<path d="M67.6588 103.062H104.586C104.797 103.061 105 102.977 105.149 102.827C105.299 102.678 105.383 102.475 105.384 102.264C105.383 102.052 105.299 101.85 105.149 101.7C105 101.551 104.797 101.467 104.586 101.466H67.6588C67.4474 101.467 67.2449 101.551 67.0954 101.7C66.946 101.85 66.8616 102.052 66.8608 102.264C66.8616 102.475 66.946 102.678 67.0954 102.827C67.2449 102.977 67.4474 103.061 67.6588 103.062Z" fill="#F5F5F5"/>
<path d="M100.857 71.7389C100.857 71.7389 110.247 80.6369 115.821 71.7029C115.821 71.7029 114.339 68.8319 112.776 68.5859C111.213 68.3399 111.15 71.0699 109.776 70.2269C108.402 69.3839 106.797 66.5009 105.921 68.0399C105.045 69.5789 103.842 67.3859 102.531 67.2599C101.22 67.1339 100.857 71.7389 100.857 71.7389Z" fill="#F5F5F5"/>
<path d="M116.418 71.124C116.418 71.124 116.214 76.926 108.3 76.926C100.386 76.926 100.182 71.124 100.182 71.124H116.418Z" fill="#EBEBEB"/>
<path d="M76.3831 68.1001H80.9401V76.9261H67.5601C67.5601 74.5858 68.4895 72.3413 70.1441 70.6862C71.7986 69.0311 74.0428 68.1009 76.3831 68.1001Z" fill="#F5F5F5"/>
<path d="M85.1429 68.1001H80.9399V76.9261H85.1429V68.1001Z" fill="#E6E6E6"/>
<path d="M75 128.268C107.125 128.268 133.167 126.748 133.167 124.872C133.167 122.997 107.125 121.476 75 121.476C42.8753 121.476 16.833 122.997 16.833 124.872C16.833 126.748 42.8753 128.268 75 128.268Z" fill="#F5F5F5"/>
<path d="M65.3997 59.328L65.2017 59.628C65.1417 59.715 65.0787 59.793 65.0187 59.874C64.8957 60.036 64.7667 60.174 64.6377 60.339C64.3767 60.639 64.1127 60.939 63.8307 61.203C63.2668 61.7448 62.6653 62.2461 62.0307 62.703C61.3969 63.1598 60.7301 63.5689 60.0357 63.927C59.6847 64.098 59.3367 64.275 58.9737 64.419L58.4307 64.635L58.2777 64.692C58.1937 64.719 58.1157 64.749 58.0227 64.77C57.8413 64.8153 57.6547 64.8365 57.4677 64.833C57.1113 64.8306 56.7606 64.7432 56.4447 64.578C56.1907 64.4453 55.9573 64.2766 55.7517 64.077C55.426 63.7557 55.1445 63.3926 54.9147 62.997C54.5218 62.3121 54.201 61.5882 53.9577 60.837C53.4858 59.4209 53.1483 57.9634 52.9497 56.484L54.2037 56.208C54.4317 56.865 54.6657 57.543 54.9237 58.197C55.1817 58.851 55.4397 59.502 55.7397 60.12C56.0128 60.7165 56.3381 61.2877 56.7117 61.827C56.8602 62.0506 57.0389 62.2525 57.2427 62.427C57.3013 62.4751 57.3671 62.5135 57.4377 62.541C57.4797 62.541 57.4767 62.541 57.4557 62.541H57.4347L57.5337 62.493L57.9807 62.277C58.2807 62.133 58.5657 61.977 58.8537 61.803C59.4218 61.4626 59.9707 61.091 60.4977 60.69C61.0178 60.2813 61.5117 59.8404 61.9767 59.37C62.2107 59.142 62.4327 58.899 62.6457 58.653C62.7507 58.53 62.8557 58.407 62.9457 58.284L63.0897 58.101L63.2067 57.945L65.3997 59.328Z" fill="#B97964"/>
<path d="M61.7671 59.1987L63.2881 62.8467L62.187 63.5337L60.4771 60.2247L61.7671 59.1987Z" fill="#263238"/>
<path d="M66.0718 56.1267C63.5908 56.0937 61.0708 59.2347 61.0078 59.3127L62.9698 63.9267C62.9698 63.9267 67.3348 60.3837 67.5538 58.9977C67.7818 57.5547 67.6438 56.1477 66.0718 56.1267Z" fill="#066735"/>
<path opacity="0.3" d="M66.0718 56.1267C63.5908 56.0937 61.0708 59.2347 61.0078 59.3127L62.9698 63.9267C62.9698 63.9267 67.3348 60.3837 67.5538 58.9977C67.7818 57.5547 67.6438 56.1477 66.0718 56.1267Z" fill="black"/>
<path d="M54 55.731L52.284 54.396L51.936 57.024C51.936 57.024 53.604 57.678 54.492 57.111L54.468 56.631C54.4591 56.4562 54.4127 56.2854 54.3319 56.1301C54.2512 55.9748 54.138 55.8387 54 55.731Z" fill="#B97964"/>
<path d="M49.998 54.2637L50.106 56.2587L51.945 57.0237L52.293 54.3957L49.998 54.2637Z" fill="#B97964"/>
<path d="M87.5998 55.5179L90.2518 54.8549L88.3978 52.9619C88.3978 52.9619 86.6788 53.6639 87.0988 55.1639L87.5998 55.5179Z" fill="#B97964"/>
<path d="M91.5688 54.3838L91.3498 52.3018L88.3828 52.9618L90.2368 54.8548L91.5688 54.3838Z" fill="#B97964"/>
<path d="M78.9509 122.241L76.4819 122.478L74.4209 116.652L76.8899 116.412L78.9509 122.241Z" fill="#B97964"/>
<path d="M105.381 109.992L103.563 111.756L98.8887 108.108L100.71 106.344L105.381 109.992Z" fill="#B97964"/>
<path d="M103.038 111.414L104.436 108.933C104.459 108.89 104.498 108.858 104.543 108.841C104.589 108.825 104.639 108.825 104.685 108.843L106.809 109.665C106.861 109.688 106.908 109.721 106.947 109.764C106.986 109.806 107.015 109.856 107.033 109.91C107.051 109.964 107.058 110.022 107.052 110.079C107.047 110.136 107.029 110.191 107.001 110.241C106.5 111.099 106.215 111.486 105.6 112.578C105.222 113.25 104.484 114.789 103.962 115.716C103.44 116.643 102.495 116.175 102.63 115.743C103.23 113.802 103.128 112.719 102.966 111.861C102.936 111.708 102.962 111.55 103.038 111.414Z" fill="#263238"/>
<path d="M75.99 121.722H78.99C79.0438 121.723 79.0959 121.741 79.1386 121.774C79.1812 121.807 79.2122 121.853 79.227 121.905L79.881 124.284C79.8975 124.34 79.9006 124.399 79.8898 124.457C79.8791 124.514 79.8549 124.569 79.8192 124.615C79.7836 124.662 79.7374 124.699 79.6845 124.724C79.6316 124.75 79.5735 124.762 79.515 124.761C78.462 124.743 77.949 124.68 76.626 124.68C75.813 124.68 73.164 124.767 72.039 124.767C70.914 124.767 70.71 123.654 71.166 123.567C73.206 123.114 74.928 122.493 75.555 121.899C75.671 121.785 75.8273 121.721 75.99 121.722Z" fill="#263238"/>
<path d="M74.4238 116.652L75.4828 119.658H78.0388L76.8928 116.412L74.4238 116.652Z" fill="#A76755"/>
<path d="M100.713 106.344L98.8921 108.111L101.301 109.989L103.122 108.225L100.713 106.344Z" fill="#A76755"/>
<path d="M63.6569 56.9277C63.6569 56.9277 62.6369 57.7047 69.5099 71.1177L79.3079 67.9527C77.8559 64.0197 77.0579 61.5627 76.3079 52.7637C74.8547 52.9245 73.4149 53.1901 71.9999 53.5587C70.487 53.9394 69.0008 54.4195 67.5509 54.9957C65.6789 55.7997 63.6569 56.9277 63.6569 56.9277Z" fill="#066735"/>
<path opacity="0.3" d="M63.6569 56.9277C63.6569 56.9277 62.6369 57.7047 69.5099 71.1177L79.3079 67.9527C77.8559 64.0197 77.0579 61.5627 76.3079 52.7637C74.8547 52.9245 73.4149 53.1901 71.9999 53.5587C70.487 53.9394 69.0008 54.4195 67.5509 54.9957C65.6789 55.7997 63.6569 56.9277 63.6569 56.9277Z" fill="black"/>
<path d="M69.9269 48.6899C70.1069 50.2139 70.6739 52.9259 71.9849 53.5589C71.9849 53.5589 72.0599 55.1369 69.4019 55.9949C66.4769 56.9399 67.5359 54.9959 67.5359 54.9959C69.0089 54.0959 68.5829 52.9259 67.9469 51.9059L69.9269 48.6899Z" fill="#B97964"/>
<path d="M65.0098 56.2018C65.7328 55.8268 66.6538 55.3708 67.5358 55.0018C68.9875 54.415 70.4793 53.9328 71.9998 53.5588C72.8548 53.3248 73.7188 53.1508 74.4478 53.0278C74.5168 53.2318 74.3098 53.7598 73.8028 54.4888C72.1978 55.8208 68.7748 57.5518 66.2518 57.4888C65.1478 57.0778 64.8718 56.6428 65.0098 56.2018Z" fill="#B97964"/>
<path d="M73.8 54.4888C72.7102 55.9496 71.4078 57.2389 69.936 58.3138C68.6828 58.1612 67.4478 57.8848 66.249 57.4888C68.76 57.5518 72.183 55.8208 73.8 54.4888Z" fill="#263238"/>
<path d="M69.1198 50.001L67.9468 51.9C68.1 52.1367 68.2315 52.3867 68.3398 52.647C68.9218 52.362 69.6628 51.519 69.5218 50.847C69.4381 50.5437 69.302 50.2574 69.1198 50.001Z" fill="#A76755"/>
<path d="M70.5211 45.8758C70.6711 48.3868 70.791 49.4458 69.687 50.8798C68.028 53.0338 64.9111 52.6798 64.0111 50.2558C63.2041 48.0808 63.0931 44.3398 65.4121 43.0558C65.9216 42.7694 66.4958 42.618 67.0803 42.6157C67.6648 42.6135 68.2401 42.7606 68.7518 43.043C69.2636 43.3255 69.6946 43.7339 70.0043 44.2297C70.3139 44.7254 70.4918 45.292 70.5211 45.8758Z" fill="#B97964"/>
<path d="M75.4803 41.3757C76.0475 38.8812 74.4851 36.3992 71.9906 35.832C69.4961 35.2648 67.0141 36.8272 66.4469 39.3217C65.8797 41.8162 67.4421 44.2982 69.9366 44.8654C72.4311 45.4326 74.9131 43.8702 75.4803 41.3757Z" fill="#263238"/>
<path d="M69.8069 42.3597C70.7609 42.9897 71.2349 43.9557 70.8659 44.5167C70.4969 45.0777 69.4229 45.0237 68.4659 44.3937C67.5089 43.7637 67.0379 42.7977 67.4069 42.2367C67.7759 41.6757 68.8499 41.7297 69.8069 42.3597Z" fill="#066735"/>
<path opacity="0.6" d="M69.8069 42.3597C70.7609 42.9897 71.2349 43.9557 70.8659 44.5167C70.4969 45.0777 69.4229 45.0237 68.4659 44.3937C67.5089 43.7637 67.0379 42.7977 67.4069 42.2367C67.7759 41.6757 68.8499 41.7297 69.8069 42.3597Z" fill="#FAFAFA"/>
<path d="M69.3 47.589C69.549 47.013 68.682 45.303 68.868 44.664C68.37 44.199 63.321 45.843 63.729 44.643C64.119 43.491 65.349 41.964 68.157 42.603C71.157 43.287 71.418 45.882 71.082 46.71C70.746 47.538 70.269 48.399 70.269 48.399L69.3 47.589Z" fill="#263238"/>
<path d="M71.1811 48.078C71.1874 48.564 71.002 49.0328 70.6651 49.383C70.2121 49.842 69.6661 49.512 69.5251 48.918C69.3961 48.384 69.4801 47.499 70.0621 47.265C70.1904 47.2151 70.3292 47.1981 70.4657 47.2158C70.6023 47.2334 70.7322 47.285 70.8436 47.366C70.955 47.4469 71.0442 47.5545 71.1032 47.6789C71.1622 47.8033 71.189 47.9406 71.1811 48.078Z" fill="#B97964"/>
<path d="M69.5097 71.1179C69.5097 71.1179 64.9677 93.2699 67.4997 100.575C70.1337 108.174 74.4207 118.782 74.4207 118.782L78.4257 118.554C78.4257 118.554 75.1257 105.15 74.3127 99.0959C73.1997 90.7499 77.9667 68.3999 77.9667 68.3999L69.5097 71.1179Z" fill="#066735"/>
<path opacity="0.6" d="M69.5097 71.1179C69.5097 71.1179 64.9677 93.2699 67.4997 100.575C70.1337 108.174 74.4207 118.782 74.4207 118.782L78.4257 118.554C78.4257 118.554 75.1257 105.15 74.3127 99.0959C73.1997 90.7499 77.9667 68.3999 77.9667 68.3999L69.5097 71.1179Z" fill="#FAFAFA"/>
<path d="M78.7408 118.65L74.1058 118.917L73.3618 117.093L78.4738 116.562L78.7408 118.65Z" fill="#066735"/>
<path opacity="0.2" d="M78.7408 118.65L74.1058 118.917L73.3618 117.093L78.4738 116.562L78.7408 118.65Z" fill="black"/>
<path d="M74.313 72.8218C73.617 75.3958 74.199 79.2538 75.513 81.9598C75.834 79.8598 76.176 77.8258 76.5 76.0048C75.825 74.6998 75.081 73.5418 74.313 72.8218Z" fill="#066735"/>
<path opacity="0.4" d="M74.313 72.8218C73.617 75.3958 74.199 79.2538 75.513 81.9598C75.834 79.8598 76.176 77.8258 76.5 76.0048C75.825 74.6998 75.081 73.5418 74.313 72.8218Z" fill="#FAFAFA"/>
<path d="M72.0957 70.2806C72.0957 70.2806 78.8397 86.3996 83.3067 95.2496C86.9067 102.408 100.266 109.899 100.266 109.899L102.666 107.355C102.666 107.355 92.6817 98.4896 90.1917 93.6356C82.2237 78.0986 83.8617 71.3126 79.3137 67.9526L72.0957 70.2806Z" fill="#066735"/>
<path opacity="0.6" d="M72.0957 70.2806C72.0957 70.2806 78.8397 86.3996 83.3067 95.2496C86.9067 102.408 100.266 109.899 100.266 109.899L102.666 107.355C102.666 107.355 92.6817 98.4896 90.1917 93.6356C82.2237 78.0986 83.8617 71.3126 79.3137 67.9526L72.0957 70.2806Z" fill="#FAFAFA"/>
<path d="M103.113 106.992L99.8131 110.499L97.7251 109.401L101.526 105.525L103.113 106.992Z" fill="#066735"/>
<path opacity="0.2" d="M103.113 106.992L99.8131 110.499L97.7251 109.401L101.526 105.525L103.113 106.992Z" fill="black"/>
<path d="M79.2689 67.3317L79.9919 68.0667C80.0489 68.1237 79.9919 68.2197 79.8779 68.2557L69.6029 71.5557C69.5129 71.5857 69.4259 71.5557 69.4019 71.5107L69.0329 70.6647C69.0059 70.6047 69.0659 70.5297 69.1619 70.4967L79.0829 67.2957C79.1143 67.2851 79.148 67.2828 79.1806 67.2891C79.2132 67.2955 79.2436 67.3101 79.2689 67.3317Z" fill="#263238"/>
<path d="M78.2998 68.871L78.5638 68.787C78.6178 68.769 78.6478 68.727 78.6358 68.697L78.1438 67.596C78.1438 67.566 78.0718 67.554 78.0208 67.569L77.7538 67.656C77.7028 67.656 77.6698 67.713 77.6848 67.746L78.1768 68.844C78.1858 68.877 78.2398 68.889 78.2998 68.871Z" fill="#066735"/>
<path opacity="0.6" d="M78.2998 68.871L78.5638 68.787C78.6178 68.769 78.6478 68.727 78.6358 68.697L78.1438 67.596C78.1438 67.566 78.0718 67.554 78.0208 67.569L77.7538 67.656C77.7028 67.656 77.6698 67.713 77.6848 67.746L78.1768 68.844C78.1858 68.877 78.2398 68.889 78.2998 68.871Z" fill="#FAFAFA"/>
<path d="M70.3799 71.4271L70.6469 71.3401C70.6979 71.3221 70.7309 71.2831 70.7159 71.2501L70.2239 70.1521C70.2089 70.1191 70.1549 70.1071 70.1009 70.1251L69.8339 70.2091C69.7829 70.2271 69.7499 70.2661 69.7649 70.2991L70.2569 71.3971C70.2719 71.4301 70.3259 71.4421 70.3799 71.4271Z" fill="#066735"/>
<path opacity="0.6" d="M70.3799 71.4271L70.6469 71.3401C70.6979 71.3221 70.7309 71.2831 70.7159 71.2501L70.2239 70.1521C70.2089 70.1191 70.1549 70.1071 70.1009 70.1251L69.8339 70.2091C69.7829 70.2271 69.7499 70.2661 69.7649 70.2991L70.2569 71.3971C70.2719 71.4301 70.3259 71.4421 70.3799 71.4271Z" fill="#FAFAFA"/>
<path d="M74.3369 70.1487L74.6009 70.0617C74.6549 70.0617 74.6879 70.0047 74.6729 69.9717L74.1809 68.8737C74.1659 68.8407 74.1089 68.8287 74.0579 68.8467L73.7909 68.9337C73.7399 68.9487 73.7069 68.9907 73.7219 69.0207L74.2139 70.1217C74.2287 70.1389 74.2487 70.1509 74.2709 70.1557C74.2931 70.1606 74.3162 70.1581 74.3369 70.1487Z" fill="#066735"/>
<path opacity="0.6" d="M74.3369 70.1487L74.6009 70.0617C74.6549 70.0617 74.6879 70.0047 74.6729 69.9717L74.1809 68.8737C74.1659 68.8407 74.1089 68.8287 74.0579 68.8467L73.7909 68.9337C73.7399 68.9487 73.7069 68.9907 73.7219 69.0207L74.2139 70.1217C74.2287 70.1389 74.2487 70.1509 74.2709 70.1557C74.2931 70.1606 74.3162 70.1581 74.3369 70.1487Z" fill="#FAFAFA"/>
<path d="M66.8248 47.0339C66.8488 47.2349 66.7618 47.4149 66.6298 47.4299C66.4978 47.4449 66.3688 47.2949 66.3448 47.0909C66.3208 46.8869 66.4078 46.7099 66.5398 46.6949C66.6718 46.6799 66.8008 46.8299 66.8248 47.0339Z" fill="#263238"/>
<path d="M64.5299 47.3127C64.5569 47.5167 64.4669 47.6937 64.3349 47.7087C64.2029 47.7237 64.0739 47.5737 64.0499 47.3727C64.0259 47.1717 64.1129 46.9917 64.2449 46.9737C64.3769 46.9557 64.4999 47.0997 64.5299 47.3127Z" fill="#263238"/>
<path d="M64.3048 46.9799L63.8008 46.8989C63.8008 46.8989 64.0978 47.2499 64.3048 46.9799Z" fill="#263238"/>
<path d="M65.1808 47.5889C65.0554 48.0735 64.8646 48.5387 64.6138 48.9719C64.7268 49.0321 64.8513 49.0676 64.9791 49.0758C65.1069 49.0841 65.235 49.065 65.3548 49.0199L65.1808 47.5889Z" fill="#A24E3F"/>
<path d="M66.1588 49.731C66.1443 49.7312 66.1302 49.7261 66.1192 49.7167C66.1082 49.7074 66.1009 49.6943 66.0988 49.68C66.0978 49.6639 66.1027 49.648 66.1127 49.6353C66.1226 49.6225 66.1369 49.6139 66.1528 49.611C66.4055 49.5858 66.6488 49.5016 66.863 49.365C67.0772 49.2285 67.2562 49.0435 67.3858 48.825C67.389 48.8176 67.3937 48.811 67.3995 48.8054C67.4054 48.7999 67.4123 48.7956 67.4199 48.7928C67.4274 48.79 67.4355 48.7887 67.4435 48.7891C67.4516 48.7895 67.4595 48.7915 67.4668 48.795C67.4739 48.7985 67.4802 48.8034 67.4855 48.8094C67.4907 48.8154 67.4947 48.8223 67.4972 48.8299C67.4997 48.8374 67.5007 48.8454 67.5001 48.8533C67.4995 48.8612 67.4974 48.8689 67.4938 48.876C67.3574 49.1144 67.1658 49.3165 66.9351 49.4653C66.7043 49.6141 66.4411 49.7052 66.1678 49.731H66.1588Z" fill="#263238"/>
<path d="M67.1099 46.3139C67.0812 46.3136 67.0535 46.3029 67.0319 46.2839C66.921 46.1813 66.7872 46.1068 66.6415 46.0666C66.4959 46.0264 66.3427 46.0217 66.1949 46.0529C66.1796 46.0574 66.1634 46.0589 66.1475 46.0571C66.1316 46.0553 66.1162 46.0504 66.1022 46.0425C66.0882 46.0347 66.0759 46.0242 66.0661 46.0115C66.0563 45.9989 66.0491 45.9844 66.0449 45.9689C66.0404 45.9537 66.039 45.9378 66.0408 45.9221C66.0426 45.9063 66.0476 45.8912 66.0555 45.8774C66.0633 45.8637 66.0739 45.8517 66.0865 45.8421C66.0991 45.8326 66.1136 45.8257 66.1289 45.8219C66.3149 45.781 66.508 45.785 66.6921 45.8335C66.8762 45.8821 67.0462 45.9737 67.1879 46.1009C67.1993 46.1121 67.2083 46.1254 67.2144 46.14C67.2206 46.1547 67.2237 46.1705 67.2237 46.1864C67.2237 46.2023 67.2206 46.2181 67.2144 46.2327C67.2083 46.2474 67.1993 46.2607 67.1879 46.2719C67.168 46.2951 67.1402 46.3101 67.1099 46.3139Z" fill="#263238"/>
<path d="M63.3447 46.3828C63.3269 46.387 63.3084 46.387 63.2907 46.3828C63.263 46.3676 63.2422 46.3422 63.2327 46.312C63.2232 46.2819 63.2257 46.2492 63.2397 46.2208C63.3218 46.0493 63.4435 45.8997 63.5947 45.7844C63.746 45.6692 63.9225 45.5915 64.1097 45.5578C64.1411 45.5544 64.1725 45.5636 64.1972 45.5832C64.2219 45.6029 64.2379 45.6315 64.2417 45.6628C64.2438 45.6786 64.2427 45.6946 64.2385 45.71C64.2344 45.7254 64.2272 45.7397 64.2174 45.7523C64.2077 45.7649 64.1955 45.7754 64.1816 45.7832C64.1678 45.791 64.1525 45.796 64.1367 45.7978C63.9886 45.8254 63.8493 45.888 63.7303 45.9804C63.6113 46.0727 63.5161 46.1922 63.4527 46.3288C63.4411 46.3466 63.4249 46.3609 63.406 46.3704C63.387 46.3799 63.3658 46.3842 63.3447 46.3828Z" fill="#263238"/>
<path d="M78.2997 55.1067L78.4137 55.2507L78.5547 55.4217C78.6507 55.5357 78.7497 55.6527 78.8547 55.7667C79.0617 55.9977 79.2777 56.2257 79.5087 56.4417C79.961 56.8852 80.4388 57.3019 80.9397 57.6897C81.4483 58.0749 81.976 58.4344 82.5207 58.7667C82.7937 58.9317 83.0727 59.0877 83.3547 59.2407L83.7837 59.4597L83.9907 59.5647C84.0417 59.5887 84.0927 59.6127 84.1407 59.6307C84.2938 59.6945 84.4578 59.7281 84.6237 59.7297C84.7762 59.7209 84.9225 59.6666 85.0437 59.5737C85.4458 59.2404 85.7634 58.8169 85.9707 58.3377C86.2492 57.7598 86.4732 57.1572 86.6397 56.5377C86.8252 55.9059 86.9784 55.265 87.0987 54.6177L88.3797 54.6987C88.4198 56.1755 88.2088 57.6485 87.7557 59.0547C87.6273 59.438 87.4615 59.8078 87.2607 60.1587C87.0379 60.5586 86.7499 60.9185 86.4087 61.2237C86.0024 61.5845 85.5057 61.8282 84.9717 61.9287C84.4526 62.0192 83.9193 61.9822 83.4177 61.8207C83.3007 61.7877 83.1927 61.7457 83.0817 61.7037L82.8207 61.5957L82.3107 61.3827C81.9717 61.2297 81.6387 61.0827 81.3117 60.8967C80.6554 60.5504 80.023 60.1605 79.4187 59.7297C78.8136 59.2934 78.2374 58.8184 77.6937 58.3077C77.4237 58.0497 77.1627 57.7767 76.9077 57.4947C76.7817 57.3507 76.6557 57.1947 76.5357 57.0567L76.3527 56.8197C76.2897 56.7357 76.2417 56.6697 76.1577 56.5497L78.2997 55.1067Z" fill="#B97964"/>
<path d="M80.4268 56.6879L78.5488 59.8409L77.6338 58.9769L79.3678 55.8179L80.4268 56.6879Z" fill="#263238"/>
<path d="M76.3198 52.7638C77.3998 52.7458 80.0218 55.8417 80.0218 55.8417L77.7418 59.8107C77.7418 59.8107 74.8378 57.2517 74.8408 55.8507C74.8438 54.3897 75.0898 52.7998 76.3198 52.7638Z" fill="#066735"/>
<path opacity="0.3" d="M76.3198 52.7638C77.3998 52.7458 80.0218 55.8417 80.0218 55.8417L77.7418 59.8107C77.7418 59.8107 74.8378 57.2517 74.8408 55.8507C74.8438 54.3897 75.0898 52.7998 76.3198 52.7638Z" fill="black"/>
<path d="M102.546 112.761C102.462 112.757 102.382 112.727 102.318 112.674C102.288 112.653 102.263 112.626 102.248 112.593C102.233 112.56 102.227 112.524 102.231 112.488C102.258 112.164 103.071 111.738 103.161 111.69C103.17 111.683 103.182 111.68 103.194 111.68C103.205 111.68 103.217 111.683 103.227 111.69C103.236 111.697 103.242 111.707 103.246 111.718C103.25 111.729 103.25 111.741 103.248 111.753C103.155 112.077 102.948 112.635 102.648 112.734C102.616 112.749 102.581 112.758 102.546 112.761ZM103.089 111.861C102.771 112.041 102.366 112.323 102.351 112.491C102.348 112.507 102.351 112.523 102.359 112.538C102.366 112.552 102.378 112.564 102.393 112.572C102.421 112.599 102.456 112.618 102.494 112.627C102.532 112.636 102.571 112.634 102.609 112.623C102.774 112.575 102.948 112.293 103.089 111.867V111.861Z" fill="#066735"/>
<path d="M102.435 111.975C102.303 111.986 102.171 111.953 102.06 111.882C102.024 111.851 101.999 111.808 101.99 111.761C101.982 111.714 101.989 111.666 102.012 111.624C102.028 111.58 102.054 111.541 102.088 111.509C102.121 111.478 102.162 111.454 102.207 111.441C102.555 111.324 103.191 111.675 103.218 111.69C103.227 111.695 103.236 111.703 103.241 111.712C103.247 111.722 103.25 111.733 103.251 111.744C103.25 111.754 103.247 111.764 103.242 111.773C103.237 111.782 103.229 111.789 103.221 111.795C102.976 111.913 102.707 111.975 102.435 111.975ZM102.372 111.537C102.329 111.536 102.286 111.542 102.246 111.555C102.218 111.563 102.193 111.578 102.171 111.598C102.15 111.618 102.133 111.642 102.123 111.669C102.093 111.741 102.123 111.771 102.123 111.792C102.258 111.906 102.756 111.858 103.041 111.741C102.833 111.63 102.606 111.561 102.372 111.537Z" fill="#066735"/>
<path d="M74.6579 122.22C74.448 122.237 74.238 122.188 74.0579 122.079C74.0108 122.044 73.9724 121.999 73.9458 121.947C73.9193 121.895 73.9052 121.837 73.9049 121.779C73.9014 121.747 73.9065 121.715 73.9197 121.686C73.9329 121.657 73.9537 121.632 73.9799 121.614C74.2529 121.428 75.2789 121.896 75.4799 121.989C75.4914 121.994 75.5008 122.003 75.5067 122.015C75.5127 122.026 75.5148 122.039 75.5129 122.052C75.5119 122.064 75.5069 122.075 75.4988 122.085C75.4907 122.094 75.4799 122.1 75.4679 122.103C75.2025 122.169 74.9311 122.208 74.6579 122.22ZM74.1779 121.701C74.1374 121.697 74.0967 121.705 74.0609 121.725C74.0518 121.731 74.0447 121.739 74.0405 121.75C74.0362 121.76 74.035 121.771 74.0369 121.782C74.0379 121.821 74.0479 121.859 74.0661 121.894C74.0843 121.929 74.1102 121.959 74.1419 121.983C74.3789 122.163 74.9429 122.094 75.2729 122.034C74.9267 121.868 74.5576 121.756 74.1779 121.701Z" fill="#066735"/>
<path d="M75.4681 122.115H75.4441C75.1051 121.977 74.4211 121.428 74.4601 121.143C74.4601 121.08 74.5081 121.002 74.6641 120.984C75.2641 120.906 75.5161 122.001 75.5251 122.046C75.5276 122.057 75.5272 122.068 75.5241 122.078C75.5209 122.089 75.5151 122.098 75.5071 122.106C75.4953 122.113 75.4817 122.116 75.4681 122.115ZM74.7181 121.098H74.6791C74.6161 121.098 74.5801 121.125 74.5771 121.155C74.5561 121.317 75.0271 121.755 75.3751 121.941C75.3001 121.683 75.0781 121.098 74.7181 121.098Z" fill="#066735"/>
<path d="M66.5997 46.6977L66.0957 46.6167C66.0957 46.6167 66.3927 46.9677 66.5997 46.6977Z" fill="#263238"/>
<path d="M47.8319 25.7339C47.3009 26.3999 44.3759 27.1829 42.0509 26.9669C41.2499 32.2229 44.0489 38.2739 44.0489 38.2739C44.0489 38.2739 50.1239 37.5509 50.2739 35.0489C50.4239 32.5469 47.8319 25.7339 47.8319 25.7339Z" fill="#066735"/>
<path opacity="0.4" d="M47.8319 25.7339C47.3009 26.3999 44.3759 27.1829 42.0509 26.9669C41.2499 32.2229 44.0489 38.2739 44.0489 38.2739C44.0489 38.2739 50.1239 37.5509 50.2739 35.0489C50.4239 32.5469 47.8319 25.7339 47.8319 25.7339Z" fill="#FAFAFA"/>
<path d="M93.8187 21.7349C94.3617 22.4999 97.1187 23.2589 99.2517 22.8629C100.395 29.0849 98.2767 36.4769 98.2767 36.4769C98.2767 36.4769 92.6157 35.9729 92.2767 32.9999C91.9377 30.0269 93.8187 21.7349 93.8187 21.7349Z" fill="#066735"/>
<path opacity="0.4" d="M93.8187 21.7349C94.3617 22.4999 97.1187 23.2589 99.2517 22.8629C100.395 29.0849 98.2767 36.4769 98.2767 36.4769C98.2767 36.4769 92.6157 35.9729 92.2767 32.9999C91.9377 30.0269 93.8187 21.7349 93.8187 21.7349Z" fill="#FAFAFA"/>
<path d="M53.9999 75.6211C53.9567 75.6274 53.9127 75.6251 53.8705 75.6144C53.8282 75.6036 53.7884 75.5845 53.7536 75.5583C53.7187 75.5321 53.6894 75.4992 53.6673 75.4616C53.6452 75.4239 53.6308 75.3823 53.6249 75.3391L46.4999 24.7981C46.4941 24.7534 46.4972 24.7081 46.5093 24.6647C46.5213 24.6213 46.5419 24.5808 46.5699 24.5455C46.5979 24.5103 46.6326 24.481 46.6722 24.4594C46.7117 24.4379 46.7551 24.4245 46.7999 24.4201C46.8433 24.4141 46.8873 24.4168 46.9296 24.4279C46.9719 24.4391 47.0116 24.4584 47.0465 24.4849C47.0813 24.5113 47.1105 24.5444 47.1326 24.5822C47.1546 24.62 47.169 24.6617 47.1749 24.7051L54.2999 75.2431C54.3058 75.2877 54.3026 75.333 54.2906 75.3764C54.2785 75.4198 54.2579 75.4603 54.2299 75.4956C54.202 75.5308 54.1672 75.5601 54.1277 75.5817C54.0882 75.6032 54.0447 75.6166 53.9999 75.6211Z" fill="#066735"/>
<path opacity="0.2" d="M53.9999 75.6211C53.9567 75.6274 53.9127 75.6251 53.8705 75.6144C53.8282 75.6036 53.7884 75.5845 53.7536 75.5583C53.7187 75.5321 53.6894 75.4992 53.6673 75.4616C53.6452 75.4239 53.6308 75.3823 53.6249 75.3391L46.4999 24.7981C46.4941 24.7534 46.4972 24.7081 46.5093 24.6647C46.5213 24.6213 46.5419 24.5808 46.5699 24.5455C46.5979 24.5103 46.6326 24.481 46.6722 24.4594C46.7117 24.4379 46.7551 24.4245 46.7999 24.4201C46.8433 24.4141 46.8873 24.4168 46.9296 24.4279C46.9719 24.4391 47.0116 24.4584 47.0465 24.4849C47.0813 24.5113 47.1105 24.5444 47.1326 24.5822C47.1546 24.62 47.169 24.6617 47.1749 24.7051L54.2999 75.2431C54.3058 75.2877 54.3026 75.333 54.2906 75.3764C54.2785 75.4198 54.2579 75.4603 54.2299 75.4956C54.202 75.5308 54.1672 75.5601 54.1277 75.5817C54.0882 75.6032 54.0447 75.6166 53.9999 75.6211Z" fill="black"/>
<path d="M87.9507 71.8648C87.9953 71.8707 88.0407 71.8675 88.084 71.8555C88.1274 71.8435 88.1679 71.8229 88.2032 71.7949C88.2384 71.7669 88.2677 71.7321 88.2893 71.6926C88.3108 71.6531 88.3242 71.6096 88.3287 71.5648L95.4687 21.0268C95.475 20.9835 95.4728 20.9393 95.4621 20.8968C95.4513 20.8544 95.4323 20.8144 95.4061 20.7793C95.3799 20.7442 95.347 20.7146 95.3094 20.6922C95.2717 20.6698 95.23 20.6551 95.1867 20.6488C95.142 20.643 95.0967 20.6462 95.0533 20.6582C95.0099 20.6702 94.9694 20.6908 94.9342 20.7188C94.8989 20.7468 94.8696 20.7816 94.8481 20.8211C94.8265 20.8606 94.8131 20.904 94.8087 20.9488L87.6687 71.4868C87.6566 71.5743 87.6794 71.6629 87.7322 71.7336C87.785 71.8044 87.8635 71.8515 87.9507 71.8648Z" fill="#066735"/>
<path opacity="0.2" d="M87.9507 71.8648C87.9953 71.8707 88.0407 71.8675 88.084 71.8555C88.1274 71.8435 88.1679 71.8229 88.2032 71.7949C88.2384 71.7669 88.2677 71.7321 88.2893 71.6926C88.3108 71.6531 88.3242 71.6096 88.3287 71.5648L95.4687 21.0268C95.475 20.9835 95.4728 20.9393 95.4621 20.8968C95.4513 20.8544 95.4323 20.8144 95.4061 20.7793C95.3799 20.7442 95.347 20.7146 95.3094 20.6922C95.2717 20.6698 95.23 20.6551 95.1867 20.6488C95.142 20.643 95.0967 20.6462 95.0533 20.6582C95.0099 20.6702 94.9694 20.6908 94.9342 20.7188C94.8989 20.7468 94.8696 20.7816 94.8481 20.8211C94.8265 20.8606 94.8131 20.904 94.8087 20.9488L87.6687 71.4868C87.6566 71.5743 87.6794 71.6629 87.7322 71.7336C87.785 71.8044 87.8635 71.8515 87.9507 71.8648Z" fill="black"/>
<path d="M46.2149 25.8658L47.5649 35.7898C47.5732 35.8525 47.5949 35.9127 47.6286 35.9662C47.6624 36.0198 47.7073 36.0653 47.7603 36.0998C47.8133 36.1343 47.8732 36.1569 47.9358 36.1661C47.9984 36.1752 48.0622 36.1707 48.1229 36.1528C51.1409 35.2888 67.9229 30.9808 93.7019 33.7228C93.8114 33.7354 93.9216 33.7063 94.0106 33.6413C94.0996 33.5762 94.1607 33.48 94.1819 33.3718C94.6679 30.8578 95.5049 23.6968 95.7179 21.8638C95.7307 21.7483 95.6976 21.6323 95.6258 21.5409C95.554 21.4495 95.4492 21.3898 95.3339 21.3748C91.8719 20.9368 68.2409 18.3178 46.5179 25.3858C46.4196 25.4184 46.3357 25.484 46.2804 25.5716C46.2252 25.6591 46.202 25.7631 46.2149 25.8658Z" fill="#066735"/>
<path opacity="0.6" d="M46.2149 25.8658L47.5649 35.7898C47.5732 35.8525 47.5949 35.9127 47.6286 35.9662C47.6624 36.0198 47.7073 36.0653 47.7603 36.0998C47.8133 36.1343 47.8732 36.1569 47.9358 36.1661C47.9984 36.1752 48.0622 36.1707 48.1229 36.1528C51.1409 35.2888 67.9229 30.9808 93.7019 33.7228C93.8114 33.7354 93.9216 33.7063 94.0106 33.6413C94.0996 33.5762 94.1607 33.48 94.1819 33.3718C94.6679 30.8578 95.5049 23.6968 95.7179 21.8638C95.7307 21.7483 95.6976 21.6323 95.6258 21.5409C95.554 21.4495 95.4492 21.3898 95.3339 21.3748C91.8719 20.9368 68.2409 18.3178 46.5179 25.3858C46.4196 25.4184 46.3357 25.484 46.2804 25.5716C46.2252 25.6591 46.202 25.7631 46.2149 25.8658Z" fill="#FAFAFA"/>
<path d="M50.5439 27.5999L51.9659 27.2999L52.9709 29.9129L53.2259 27.0449L54.6449 26.7449L55.8899 29.3069L55.9079 26.4899L57.3239 26.1899L57.1379 31.2599L55.6709 31.5599L54.2639 28.6739L53.9639 31.9019L52.4969 32.2019L50.5439 27.5999Z" fill="#FAFAFA"/>
<path d="M58.02 26.1356L62.067 25.5356L62.199 26.5796L59.667 26.9516L59.766 27.7316L62.115 27.3866L62.241 28.3856L59.892 28.7306L60 29.6996L62.607 29.3186L62.748 30.4286L58.626 31.0286L58.02 26.1356Z" fill="#FAFAFA"/>
<path d="M63.0957 25.4189L64.6137 25.2539L64.9377 28.9649L67.3047 28.7099L67.4127 29.9099L63.5127 30.3299L63.0957 25.4189Z" fill="#FAFAFA"/>
<path d="M71.1176 27.6178L72.4706 27.9178C72.4146 28.2643 72.2869 28.5954 72.0956 28.8898C71.9201 29.1548 71.6808 29.3714 71.3996 29.5198C71.0627 29.6821 70.6963 29.774 70.3226 29.7898C69.8766 29.8373 69.4256 29.7892 68.9996 29.6488C68.6309 29.4894 68.3177 29.2242 68.0996 28.8868C67.8125 28.4455 67.6574 27.9313 67.6526 27.4048C67.5739 26.714 67.7725 26.0203 68.2046 25.4758C68.4362 25.23 68.7149 25.0334 69.0242 24.8979C69.3335 24.7623 69.667 24.6905 70.0046 24.6868C70.5137 24.6202 71.0309 24.7146 71.4836 24.9568C71.8813 25.2211 72.1807 25.6091 72.3356 26.0608L71.0066 26.4568C70.9701 26.3412 70.9143 26.2327 70.8416 26.1358C70.7497 26.0268 70.6322 25.9423 70.4996 25.8898C70.284 25.8017 70.0439 25.7945 69.8234 25.8694C69.6029 25.9444 69.4169 26.0965 69.2996 26.2978C69.1539 26.606 69.0988 26.9494 69.1406 27.2878C69.1666 27.8338 69.2666 28.2028 69.4406 28.3948C69.5312 28.4905 69.643 28.5634 69.7671 28.6077C69.8912 28.6521 70.0239 28.6665 70.1546 28.6498C70.2777 28.6483 70.399 28.6208 70.5107 28.5691C70.6224 28.5174 70.7219 28.4426 70.8026 28.3498C70.9685 28.1367 71.077 27.8847 71.1176 27.6178Z" fill="#FAFAFA"/>
<path d="M73.0261 27.0447C73.0026 26.6996 73.0478 26.3533 73.159 26.0258C73.2702 25.6983 73.4453 25.3961 73.6741 25.1367C73.9194 24.8953 74.2107 24.7055 74.5307 24.5788C74.8507 24.452 75.1929 24.3908 75.5371 24.3987C75.8787 24.3647 76.2236 24.4003 76.5511 24.5035C76.8785 24.6066 77.1816 24.7751 77.4421 24.9987C77.6759 25.2416 77.8574 25.5299 77.9756 25.8456C78.0937 26.1614 78.146 26.498 78.1291 26.8347C78.1551 27.3274 78.0625 27.8192 77.8591 28.2687C77.6754 28.6431 77.3867 28.9559 77.0281 29.1687C76.6109 29.4017 76.1409 29.5236 75.6631 29.5227C75.1911 29.5559 74.7179 29.4799 74.2801 29.3007C73.9034 29.1276 73.5892 28.8427 73.3801 28.4847C73.134 28.0456 73.0117 27.5479 73.0261 27.0447ZM74.5471 27.0027C74.5206 27.3827 74.6266 27.7601 74.8471 28.0707C74.9407 28.1766 75.0579 28.2589 75.1892 28.311C75.3206 28.3631 75.4623 28.3836 75.6031 28.3707C75.7469 28.374 75.8897 28.3446 76.0206 28.2849C76.1515 28.2251 76.2672 28.1365 76.3591 28.0257C76.5683 27.6769 76.6579 27.2692 76.6141 26.8647C76.6397 26.5025 76.5331 26.1433 76.3141 25.8537C76.2182 25.7483 76.0993 25.6664 75.9666 25.6143C75.8339 25.5623 75.6911 25.5416 75.5491 25.5537C75.4081 25.5533 75.2688 25.5846 75.1415 25.6454C75.0143 25.7061 74.9024 25.7948 74.8141 25.9047C74.603 26.2287 74.5088 26.615 74.5471 26.9997V27.0027Z" fill="#FAFAFA"/>
<path d="M79.053 24.3867H81.054L81.744 27.4077L82.593 24.4077L84.594 24.4257L84.459 29.3757H83.211L83.313 25.5987L82.251 29.3667H81.123L80.268 25.5807L80.166 29.3577H78.918L79.053 24.3867Z" fill="#FAFAFA"/>
<path d="M85.6919 24.4736L89.7629 24.6566L89.6999 25.7126L87.1499 25.5986L87.0989 26.3996L89.4629 26.5046L89.3999 27.4976L87.0359 27.3926L86.9759 28.3706L89.5979 28.4846L89.5259 29.6066L85.3799 29.4206L85.6919 24.4736Z" fill="#FAFAFA"/>
</svg>
