<svg width="31" height="30" viewBox="0 0 31 30" fill="none" xmlns="http://www.w3.org/2000/svg">
<rect x="0.5625" y="0.5" width="29" height="29" rx="4.5" fill="#EBEBEB" fill-opacity="0.5"/>
<path d="M14.6188 21.814L8.32343 15.4405C6.55021 13.6453 6.66187 10.7017 8.56587 9.04945C10.4548 7.4103 13.3188 7.7286 14.8115 9.74356L15.0625 10.0823L15.3135 9.74356C16.8062 7.7286 19.6702 7.4103 21.5591 9.04945C23.4631 10.7017 23.5748 13.6453 21.8015 15.4405L15.5062 21.814C15.2611 22.062 14.8639 22.062 14.6188 21.814Z" stroke="#676767" stroke-width="1.5" stroke-linecap="round" stroke-linejoin="round"/>
<path d="M19.5625 14.4999C20.5625 13.9999 21.0625 11.9999 20.5625 11.4999" stroke="#676767" stroke-linecap="round" stroke-linejoin="round"/>
<rect x="0.5625" y="0.5" width="29" height="29" rx="4.5" stroke="#EBEBEB"/>
</svg>
