<svg width="29" height="29" viewBox="0 0 29 29" fill="none" xmlns="http://www.w3.org/2000/svg">
<mask id="mask0_444_1042" style="mask-type:luminance" maskUnits="userSpaceOnUse" x="0" y="0" width="29" height="29">
<path d="M29 0H0V29H29V0Z" fill="white"/>
</mask>
<g mask="url(#mask0_444_1042)">
<path d="M22.6562 17.2188C25.6559 17.2188 28.0937 19.6566 28.0937 22.6562C28.0937 25.6559 25.6559 28.0938 22.6562 28.0938C19.6566 28.0938 17.2187 25.6559 17.2187 22.6562C17.2187 19.6566 19.6566 17.2188 22.6562 17.2188ZM9.38865 18.125C10.8296 19.1037 11.7811 20.7803 11.7811 22.6562C11.7811 25.6559 9.34334 28.0938 6.34363 28.0938C3.34394 28.0938 0.906128 25.6559 0.906128 22.6562C0.906128 22.0128 0.906128 19.9375 2.71863 18.125H9.38865Z" fill="#FFC44D"/>
<path d="M14.5002 22.6563V17.2188C14.5002 17.2188 9.06273 14.5 9.96898 12.6875C11.7815 9.0625 14.5002 7.25 16.3127 6.34375C18.1252 10.875 22.6565 12.6875 22.6565 12.6875M7.25021 14.5H1.81271M6.34396 10.875H0.906463M1.21975 20.8341C1.01675 21.4041 0.906189 22.0176 0.906189 22.6565C0.906189 25.6589 3.34128 28.094 6.34369 28.094C9.34702 28.094 11.7812 25.6589 11.7812 22.6565C11.7812 20.7788 10.8306 19.1022 9.38508 18.1253H2.71869M11.7815 15.5496C11.7815 15.5496 13.3103 11.7814 17.8416 9.06268M28.094 22.6563C28.094 19.6538 25.6589 17.2188 22.6565 17.2188C19.6541 17.2188 17.219 19.6538 17.219 22.6563C17.219 25.6587 19.6541 28.0938 22.6565 28.0938C25.6589 28.0938 28.094 25.6587 28.094 22.6563ZM20.844 2.71875C20.844 1.71825 20.032 0.90625 19.0315 0.90625C18.031 0.90625 17.219 1.71825 17.219 2.71875C17.219 3.71925 18.031 4.53125 19.0315 4.53125C20.032 4.53125 20.844 3.71925 20.844 2.71875Z" stroke="black" stroke-linecap="round" stroke-linejoin="round"/>
</g>
</svg>
