<svg xmlns:dc="http://purl.org/dc/elements/1.1/" xmlns:cc="http://creativecommons.org/ns#" xmlns:rdf="http://www.w3.org/1999/02/22-rdf-syntax-ns#" xmlns:svg="http://www.w3.org/2000/svg" xmlns="http://www.w3.org/2000/svg" xmlns:sodipodi="http://sodipodi.sourceforge.net/DTD/sodipodi-0.dtd" xmlns:inkscape="http://www.inkscape.org/namespaces/inkscape" version="1.1" x="0px" y="0px" viewBox="5.01 24.96 90.03 50.13"><g transform="translate(0,-952.36218)"><path style="font-size:medium;font-style:normal;font-variant:normal;font-weight:normal;font-stretch:normal;text-indent:0;text-align:start;text-decoration:none;line-height:normal;letter-spacing:normal;word-spacing:normal;text-transform:none;direction:ltr;block-progression:tb;writing-mode:lr-tb;text-anchor:start;baseline-shift:baseline;opacity:1;color:#000000;fill:#000000;fill-opacity:1;stroke:none;stroke-width:6;marker:none;visibility:visible;display:inline;overflow:visible;enable-background:accumulate;font-family:Sans;-inkscape-font-specification:Sans" d="M 31.78125 24.96875 A 3.0003 3.0003 0 0 0 29.96875 25.78125 L 5.96875 47.78125 A 3.0003 3.0003 0 0 0 5.96875 52.1875 L 29.96875 74.1875 A 3.0003 3.0003 0 1 0 34.03125 69.78125 L 15.71875 53 L 92 53 C 93.584938 53.022 95.03125 51.5851 95.03125 50 C 95.03125 48.4149 93.584938 46.97759 92 47 L 15.71875 47 L 34.03125 30.1875 A 3.0003 3.0003 0 0 0 31.78125 24.96875 z " transform="translate(0,952.36218)"/></g></svg>