<svg width="97" height="97" viewBox="0 0 97 97" fill="none" xmlns="http://www.w3.org/2000/svg">
<g clip-path="url(#clip0_444_1027)">
<rect width="97" height="97" fill="white"/>
<circle cx="48.5" cy="48.5" r="38.5" fill="#FFC44D"/>
<path d="M61.4499 21.4869H59.5842C58.9877 21.4869 58.4018 21.7312 57.9805 22.156C57.5716 22.5649 57.3504 23.0995 57.3557 23.5739L53.6916 50.6878C53.5536 51.7003 54.0386 52.8933 54.8546 53.527C54.8546 53.527 56.3574 54.6528 57.1238 55.1874L57.3097 55.267L57.3451 75.3981C57.3451 76.63 58.3469 77.6372 59.5842 77.6372H61.4499C62.6836 77.6372 63.6908 76.6336 63.6908 75.3981V23.7225C63.6855 22.4906 62.6836 21.4869 61.4499 21.4869ZM56.2193 51.7534C56.0476 51.6189 55.8812 51.2029 55.906 50.9887L59.4355 24.8341C59.5187 24.2199 60.0002 23.7225 60.5153 23.7225C61.0304 23.7225 61.4463 24.2235 61.4463 24.843V61.4198H59.5594L59.547 54.7625C59.547 54.4422 59.37 54.0899 59.1151 53.9023L56.2193 51.7534ZM60.5153 75.3963C60.0002 75.3927 59.5824 74.8954 59.5824 74.2758L59.5647 64.9582H61.4463V74.2758C61.4481 74.8971 61.0304 75.3963 60.5153 75.3963Z" fill="#010002"/>
<path d="M44.8802 23.7225C43.6677 23.7225 42.6765 24.7262 42.6765 25.9617V35.7803C42.6765 36.3998 42.3331 36.899 41.9082 36.899C41.4852 36.899 41.14 36.3998 41.14 35.782C41.1383 32.9765 41.1383 25.8714 41.1383 25.8714C41.1383 24.5863 39.8355 23.7225 38.5486 23.7225C37.3733 23.7225 36.0245 24.7244 36.0245 26.0095V35.8033C36.0245 36.4228 35.6811 36.922 35.2563 36.922C34.8333 36.922 34.4899 36.4228 34.4899 35.8033V25.9617C34.4899 24.7279 33.5163 23.7225 32.3198 23.7225C31.6224 23.7225 29.0327 24.2836 29.0327 25.9617V38.2283C29.0327 38.8478 29.169 40.1152 29.677 40.9436C30.4276 42.1614 32.7906 43.9421 36.3307 44.5634C35.9413 44.9652 35.7006 45.5104 35.7006 46.1104V75.3963C35.7006 76.6283 36.7042 77.6354 37.9397 77.6354H39.8054C41.0409 77.6354 42.0463 76.6318 42.0463 75.3963V64.9599H42.0499V61.4198H42.0463V46.1104C42.0463 45.5068 41.8038 44.9616 41.4144 44.5581C44.5846 43.981 46.9335 42.4127 47.6999 40.9046C48.1761 39.9683 48.2026 38.5097 48.2026 38.2283V25.9617C48.2044 24.2854 45.5847 23.7225 44.8802 23.7225ZM39.8125 74.2776C39.8125 74.8971 39.3947 75.398 38.8797 75.398C38.3646 75.398 37.9451 74.8971 37.9451 74.2776V64.9599H39.8125V74.2776ZM37.9451 61.4198V47.2291C37.9451 46.6096 38.3628 46.1086 38.8779 46.1086C39.393 46.1086 39.8089 46.6096 39.8089 47.2291L39.8107 61.4198H37.9451ZM45.9653 38.2265C45.9653 38.8637 45.852 39.6089 45.7068 39.8886C45.2324 40.8197 42.742 42.5632 38.8797 42.5632C34.9412 42.5632 32.1888 40.7436 31.5887 39.7682C31.4259 39.5027 31.2754 38.7664 31.2754 38.2265V26.2856C31.5586 26.1316 32.0843 25.9634 32.256 25.9599V36.8972C32.256 38.1309 33.2579 39.1523 34.4562 39.1505H36.0104C37.2441 39.1505 38.2495 38.1787 38.2495 36.945V26.1174C38.3221 26.0449 38.4849 25.9634 38.6212 25.9599C38.715 25.9599 38.8283 25.9971 38.9009 26.0378V36.8051C38.9009 38.4141 39.8868 39.1346 40.8604 39.1346H42.6782C43.912 39.1346 44.9174 38.1309 44.9174 36.8954L44.882 25.9581C45.1103 25.9599 45.6732 26.1316 45.9653 26.2891V38.2265Z" fill="#010002"/>
<path d="M48.5 0C21.7577 0 0 21.7577 0 48.5C0 75.2423 21.7577 97 48.5 97C75.2423 97 97 75.2423 97 48.5C97 21.7577 75.2423 0 48.5 0ZM48.5 93.4616C23.7101 93.4616 3.54015 73.2916 3.54015 48.5018C3.54015 23.7119 23.7101 3.54192 48.5 3.54192C73.2899 3.54192 93.4599 23.7119 93.4599 48.5018C93.4599 73.2916 73.2899 93.4616 48.5 93.4616Z" fill="#010002"/>
<path d="M48.4982 9.42389C26.9511 9.42389 9.42033 26.9547 9.42033 48.5018C9.42033 70.0507 26.9494 87.5797 48.4982 87.5797C70.0471 87.5797 87.5761 70.0507 87.5761 48.5018C87.5761 26.9547 70.0453 9.42389 48.4982 9.42389ZM48.4982 85.8096C27.9264 85.8096 11.1904 69.0736 11.1904 48.5018C11.1904 27.93 27.9264 11.194 48.4982 11.194C69.07 11.194 85.8061 27.93 85.8061 48.5018C85.8061 69.0736 69.0682 85.8096 48.4982 85.8096Z" fill="#FFC44D"/>
</g>
<defs>
<clipPath id="clip0_444_1027">
<rect width="97" height="97" fill="white"/>
</clipPath>
</defs>
</svg>
