<svg width="21" height="21" viewBox="0 0 21 21" fill="none" xmlns="http://www.w3.org/2000/svg">
<g clip-path="url(#clip0_444_1054)">
<path d="M21 10.5C21 13.2848 19.8938 15.9555 17.9246 17.9246C15.9555 19.8938 13.2848 21 10.5 21C7.71523 21 5.04451 19.8938 3.07538 17.9246C1.10625 15.9555 0 13.2848 0 10.5C0 10.2679 0.0921872 10.0454 0.256282 9.88128C0.420376 9.71719 0.642936 9.625 0.875 9.625C1.10706 9.625 1.32962 9.71719 1.49372 9.88128C1.65781 10.0454 1.75 10.2679 1.75 10.5C1.75 12.2306 2.26318 13.9223 3.22464 15.3612C4.1861 16.8002 5.55267 17.9217 7.15152 18.5839C8.75037 19.2462 10.5097 19.4195 12.207 19.0819C13.9044 18.7443 15.4635 17.9109 16.6872 16.6872C17.9109 15.4635 18.7443 13.9044 19.0819 12.207C19.4195 10.5097 19.2462 8.75037 18.5839 7.15152C17.9217 5.55267 16.8002 4.1861 15.3612 3.22464C13.9223 2.26318 12.2306 1.75 10.5 1.75C10.2679 1.75 10.0454 1.65781 9.88128 1.49372C9.71719 1.32962 9.625 1.10706 9.625 0.875C9.625 0.642936 9.71719 0.420376 9.88128 0.256282C10.0454 0.0921872 10.2679 0 10.5 0C13.2838 0.00301095 15.9528 1.11022 17.9213 3.0787C19.8898 5.04718 20.997 7.71615 21 10.5ZM8.99238 9.625H7C6.76794 9.625 6.54538 9.71719 6.38128 9.88128C6.21719 10.0454 6.125 10.2679 6.125 10.5C6.125 10.7321 6.21719 10.9546 6.38128 11.1187C6.54538 11.2828 6.76794 11.375 7 11.375H8.99238C9.126 11.6071 9.31126 11.8053 9.53379 11.9542C9.75632 12.1032 10.0102 12.199 10.2756 12.2341C10.5411 12.2692 10.8111 12.2427 11.0647 12.1567C11.3183 12.0707 11.5488 11.9275 11.7381 11.7381C11.9275 11.5488 12.0707 11.3183 12.1567 11.0647C12.2427 10.8111 12.2692 10.5411 12.2341 10.2756C12.199 10.0102 12.1032 9.75632 11.9542 9.53379C11.8053 9.31126 11.6071 9.126 11.375 8.99238V6.125C11.375 5.89294 11.2828 5.67038 11.1187 5.50628C10.9546 5.34219 10.7321 5.25 10.5 5.25C10.2679 5.25 10.0454 5.34219 9.88128 5.50628C9.71719 5.67038 9.625 5.89294 9.625 6.125V8.99238C9.36287 9.14487 9.14487 9.36287 8.99238 9.625ZM1.59863 7.686C1.77168 7.686 1.94086 7.63468 2.08475 7.53854C2.22864 7.44239 2.34079 7.30573 2.40702 7.14585C2.47325 6.98596 2.49057 6.81003 2.45681 6.6403C2.42305 6.47056 2.33971 6.31465 2.21734 6.19228C2.09497 6.06991 1.93906 5.98657 1.76933 5.95281C1.5996 5.91905 1.42366 5.93638 1.26378 6.00261C1.10389 6.06883 0.967235 6.18098 0.871089 6.32488C0.774943 6.46877 0.723625 6.63794 0.723625 6.811C0.723625 7.04306 0.815812 7.26562 0.979907 7.42972C1.144 7.59381 1.36656 7.686 1.59863 7.686ZM3.69338 4.55612C3.86643 4.55612 4.03561 4.50481 4.1795 4.40866C4.32339 4.31251 4.43554 4.17586 4.50177 4.01597C4.568 3.85609 4.58532 3.68015 4.55156 3.51042C4.5178 3.34069 4.43446 3.18478 4.31209 3.06241C4.18972 2.94004 4.03381 2.8567 3.86408 2.82294C3.69435 2.78918 3.51841 2.8065 3.35853 2.87273C3.19864 2.93896 3.06199 3.05111 2.96584 3.195C2.86969 3.33889 2.81837 3.50807 2.81837 3.68112C2.81837 3.91319 2.91056 4.13575 3.07466 4.29984C3.23875 4.46394 3.46131 4.55612 3.69338 4.55612ZM6.80662 2.48588C6.97968 2.48588 7.14886 2.43456 7.29275 2.33841C7.43664 2.24226 7.54879 2.10561 7.61502 1.94572C7.68125 1.78584 7.69857 1.6099 7.66481 1.44017C7.63105 1.27044 7.54771 1.11453 7.42534 0.992157C7.30297 0.869786 7.14706 0.78645 6.97733 0.752688C6.8076 0.718926 6.63166 0.736254 6.47178 0.80248C6.31189 0.868707 6.17524 0.980858 6.07909 1.12475C5.98294 1.26864 5.93162 1.43782 5.93162 1.61088C5.93162 1.84294 6.02381 2.0655 6.18791 2.22959C6.352 2.39369 6.57456 2.48588 6.80662 2.48588Z" fill="#FFC44D"/>
</g>
<defs>
<clipPath id="clip0_444_1054">
<rect width="21" height="21" fill="white"/>
</clipPath>
</defs>
</svg>
