<svg width="31" height="30" viewBox="0 0 31 30" fill="none" xmlns="http://www.w3.org/2000/svg">
<path d="M3.3564 3.27773C2.56343 4.12272 1.93293 5.13857 1.50238 6.26312C1.07183 7.38765 0.85 8.59798 0.85 9.82071C0.85 11.0435 1.07183 12.2538 1.50238 13.3783C1.93286 14.5027 2.56323 15.5184 3.35601 16.3633C3.35614 16.3634 3.35627 16.3636 3.3564 16.3637L14.9595 28.9083L14.9595 28.9083C15.1012 29.0613 15.294 29.1502 15.4985 29.15M3.3564 3.27773L3.46578 3.38037M3.3564 3.27773L3.46578 3.38037M3.3564 3.27773C4.81674 1.72135 6.75874 0.85 8.78175 0.85C10.8048 0.85 12.7468 1.72135 14.2071 3.27774L14.208 3.27864L15.4986 4.67696L16.7922 3.27852L16.7929 3.27773C18.2532 1.72135 20.1952 0.85 22.2182 0.85C24.2413 0.85 26.1833 1.72135 27.6436 3.27774C28.4366 4.12272 29.0671 5.13857 29.4976 6.26312C29.9282 7.38765 30.15 8.59798 30.15 9.82071C30.15 11.0435 29.9282 12.2538 29.4976 13.3783C29.0671 14.5027 28.4367 15.5185 27.6439 16.3634C27.6438 16.3635 27.6437 16.3636 27.6436 16.3637L16.0374 28.9083L16.0374 28.9083C15.8957 29.0613 15.7029 29.1502 15.4985 29.15M3.46578 3.38037C2.68668 4.21059 2.06634 5.20962 1.64246 6.31675C1.21858 7.42388 1 8.61601 1 9.82071C1 11.0254 1.21858 12.2176 1.64246 13.3247C2.06634 14.4318 2.68668 15.4308 3.46578 16.2611L15.6006 4.78753L15.4985 4.89799L15.3964 4.78742L14.0977 3.38037C12.6639 1.85221 10.7607 1 8.78175 1C6.80285 1 4.89964 1.85221 3.46578 3.38037ZM15.4985 29.15C15.4984 29.15 15.4983 29.15 15.4983 29.15L15.4985 29L15.4986 29.15C15.4986 29.15 15.4985 29.15 15.4985 29.15ZM4.43023 4.47816L4.42966 4.47876C3.7839 5.16519 3.26876 5.99272 2.91645 6.91135C2.56413 7.83 2.38225 8.81994 2.38225 9.82071C2.38225 10.8215 2.56413 11.8114 2.91645 12.7301C3.26876 13.6487 3.7839 14.4762 4.42966 15.1627L4.43052 15.1636L15.4985 27.1267L26.5664 15.1636L26.5673 15.1627C27.213 14.4762 27.7282 13.6487 28.0805 12.7301C28.4328 11.8114 28.6147 10.8215 28.6147 9.82071C28.6147 8.81994 28.4328 7.83 28.0805 6.91135C27.7282 5.99272 27.213 5.16519 26.5673 4.47876L26.5672 4.47875C25.3899 3.22693 23.8323 2.53245 22.2167 2.53245C20.6013 2.53245 19.044 3.22675 17.8666 4.47826C17.8665 4.47842 17.8663 4.47859 17.8662 4.47875L16.0375 6.45859C15.896 6.61188 15.7031 6.7011 15.4985 6.7011C15.2939 6.7011 15.101 6.61193 14.9595 6.4587L4.43023 4.47816ZM4.43023 4.47816C5.60214 3.21854 7.16166 2.52262 8.77786 2.53132L8.77947 2.53131C10.3956 2.52262 11.955 3.21847 13.1269 4.47797C13.127 4.47803 13.1271 4.4781 13.1271 4.47816L14.9594 6.45859L4.43023 4.47816Z" fill="black" stroke="black" stroke-width="0.3"/>
</svg>
